<svg width="151" height="151" viewBox="0 0 151 151" fill="none" xmlns="http://www.w3.org/2000/svg">
<rect x="0.75" y="0.125" width="150" height="150" rx="6" fill="#558FFF"/>
<rect x="0.75" y="0.125" width="150" height="150" rx="6" fill="url(#paint0_linear_33_1875)" fill-opacity="0.2"/>
<path d="M86.4938 62.8033C86.4938 57.6595 82.8629 54.8199 76.4854 54.8199H64.7547V71.3919H74.6467C82.281 71.3686 86.4938 68.2963 86.4938 62.8033ZM129.204 59.8241C126.993 52.632 126.667 43.8107 126.923 36.991C127.179 29.8921 121.639 23.375 114.191 23.375H37.6623C30.1909 23.375 24.6746 29.9154 24.9307 36.991C25.1634 43.8107 24.8609 52.632 22.6497 59.8241C20.4153 67.0394 16.668 71.6014 10.5 72.1833V78.8167C16.6447 79.3986 20.4153 83.9606 22.6497 91.1759C24.8609 98.368 25.1867 107.189 24.9307 114.009C24.6746 121.108 30.2142 127.625 37.6623 127.625H114.168C121.639 127.625 127.156 121.085 126.9 114.009C126.667 107.189 126.97 98.368 129.181 91.1759C131.415 83.9606 135.162 79.3986 141.307 78.8167V72.1833C135.186 71.6014 131.415 67.0394 129.204 59.8241ZM78.7431 103.233H55.9566V47.7675H78.6268C88.705 47.7675 95.3151 53.2139 95.3151 61.593C95.3151 67.4817 90.8696 72.7419 85.1904 73.6496V73.9522C92.9178 74.7901 98.1082 80.1434 98.1082 87.5217C98.1082 97.3206 90.823 103.233 78.7431 103.233ZM76.4156 77.9323H64.7547V96.1801H76.9277C84.8878 96.1801 89.1006 92.9914 89.1006 86.9864C89.1006 81.0046 84.7714 77.9323 76.4156 77.9323Z" fill="black"/>
<defs>
<linearGradient id="paint0_linear_33_1875" x1="148.298" y1="3.26539" x2="-24.6768" y2="108.219" gradientUnits="userSpaceOnUse">
<stop stop-color="#FF0000"/>
<stop offset="0.515" stop-color="#BB004F"/>
<stop offset="0.67" stop-color="#2E079C"/>
<stop offset="1"/>
</linearGradient>
</defs>
</svg>
