<svg width="400" height="48" viewBox="0 0 400 48" fill="none" xmlns="http://www.w3.org/2000/svg">
<path d="M62.9976 47.4716C62.5292 47.4716 62.295 47.2607 62.0609 46.8387C61.8267 46.4167 62.0609 45.9948 62.5292 45.7838L66.0421 43.4629V4.64193L62.295 2.32111C62.0609 2.11013 61.8267 1.68816 61.8267 1.26619C62.0609 0.844224 62.295 0.63324 62.7634 0.63324H103.279C103.747 0.63324 104.215 1.05521 104.215 1.47718V7.80669C104.215 8.22866 103.981 8.43964 103.513 8.65062C103.279 8.65062 103.279 8.65062 103.044 8.65062C102.81 8.65062 102.576 8.65062 102.342 8.43964L98.3606 4.43095H76.5808V20.8877H90.3981L94.8477 16.879C95.0819 16.668 95.3161 16.668 95.5503 16.668C95.7845 16.668 95.7845 16.668 96.0187 16.668C96.4871 16.879 96.7213 17.09 96.7213 17.5119V28.0611C96.7213 28.4831 96.4871 28.6941 96.0187 28.9051C95.7845 28.9051 95.7845 28.9051 95.5503 28.9051C95.3161 28.9051 95.0819 28.9051 94.8477 28.6941L90.3981 24.6854H76.5808V43.041H98.3606L102.81 39.0323C103.044 38.8213 103.279 38.8213 103.513 38.8213C103.747 38.8213 103.747 38.8213 103.981 38.8213C104.45 39.0323 104.684 39.2433 104.684 39.6652V45.9948C104.684 46.4167 104.215 46.8387 103.747 46.8387H62.9976V47.4716Z" fill="#558FFF"/>
<path d="M62.9976 47.4716C62.5292 47.4716 62.295 47.2607 62.0609 46.8387C61.8267 46.4167 62.0609 45.9948 62.5292 45.7838L66.0421 43.4629V4.64193L62.295 2.32111C62.0609 2.11013 61.8267 1.68816 61.8267 1.26619C62.0609 0.844224 62.295 0.63324 62.7634 0.63324H103.279C103.747 0.63324 104.215 1.05521 104.215 1.47718V7.80669C104.215 8.22866 103.981 8.43964 103.513 8.65062C103.279 8.65062 103.279 8.65062 103.044 8.65062C102.81 8.65062 102.576 8.65062 102.342 8.43964L98.3606 4.43095H76.5808V20.8877H90.3981L94.8477 16.879C95.0819 16.668 95.3161 16.668 95.5503 16.668C95.7845 16.668 95.7845 16.668 96.0187 16.668C96.4871 16.879 96.7213 17.09 96.7213 17.5119V28.0611C96.7213 28.4831 96.4871 28.6941 96.0187 28.9051C95.7845 28.9051 95.7845 28.9051 95.5503 28.9051C95.3161 28.9051 95.0819 28.9051 94.8477 28.6941L90.3981 24.6854H76.5808V43.041H98.3606L102.81 39.0323C103.044 38.8213 103.279 38.8213 103.513 38.8213C103.747 38.8213 103.747 38.8213 103.981 38.8213C104.45 39.0323 104.684 39.2433 104.684 39.6652V45.9948C104.684 46.4167 104.215 46.8387 103.747 46.8387H62.9976V47.4716Z" fill="url(#paint0_linear_33_1782)" fill-opacity="0.2"/>
<path d="M196.956 47.4716C196.487 47.4716 196.253 47.2607 196.019 46.8387C195.785 46.4167 196.019 45.9948 196.487 45.7838L200 43.4629V4.43095H187.822L183.373 8.43964C183.138 8.65062 182.904 8.65062 182.67 8.65062C182.436 8.65062 182.436 8.65062 182.202 8.65062C181.733 8.43964 181.499 8.22866 181.499 7.80669V1.47718C181.499 1.05521 181.967 0.63324 182.436 0.63324H227.166C227.635 0.63324 228.103 1.05521 228.103 1.47718V7.80669C228.103 8.22866 227.869 8.43964 227.401 8.65062C227.166 8.65062 227.166 8.65062 226.932 8.65062C226.698 8.65062 226.464 8.65062 226.23 8.43964L222.483 4.43095H210.305V43.252L213.818 45.5728C214.052 45.7838 214.286 46.2057 214.286 46.6277C214.052 47.0497 213.818 47.2607 213.349 47.2607H196.956V47.4716Z" fill="#558FFF"/>
<path d="M196.956 47.4716C196.487 47.4716 196.253 47.2607 196.019 46.8387C195.785 46.4167 196.019 45.9948 196.487 45.7838L200 43.4629V4.43095H187.822L183.373 8.43964C183.138 8.65062 182.904 8.65062 182.67 8.65062C182.436 8.65062 182.436 8.65062 182.202 8.65062C181.733 8.43964 181.499 8.22866 181.499 7.80669V1.47718C181.499 1.05521 181.967 0.63324 182.436 0.63324H227.166C227.635 0.63324 228.103 1.05521 228.103 1.47718V7.80669C228.103 8.22866 227.869 8.43964 227.401 8.65062C227.166 8.65062 227.166 8.65062 226.932 8.65062C226.698 8.65062 226.464 8.65062 226.23 8.43964L222.483 4.43095H210.305V43.252L213.818 45.5728C214.052 45.7838 214.286 46.2057 214.286 46.6277C214.052 47.0497 213.818 47.2607 213.349 47.2607H196.956V47.4716Z" fill="url(#paint1_linear_33_1782)" fill-opacity="0.2"/>
<path d="M358.314 47.4716C357.845 47.4716 357.611 47.2606 357.377 46.8386C357.143 46.4167 357.377 45.9947 357.845 45.7837L361.358 43.4629V4.4309L357.845 2.11008C357.611 1.8991 357.377 1.47713 357.377 1.05516C357.611 0.633195 357.845 0.422211 358.314 0.422211H375.176C375.644 0.422211 375.878 0.633195 376.112 1.05516C376.347 1.47713 376.112 1.8991 375.644 2.11008L372.131 4.4309V43.2519H393.911L398.126 39.4542C398.361 39.2432 398.595 39.2432 398.829 39.2432C399.063 39.2432 399.063 39.2432 399.297 39.2432C399.766 39.4542 400 39.6652 400 40.0872V46.4167C400 46.8386 399.532 47.2606 399.063 47.2606H358.314V47.4716Z" fill="#558FFF"/>
<path d="M358.314 47.4716C357.845 47.4716 357.611 47.2606 357.377 46.8386C357.143 46.4167 357.377 45.9947 357.845 45.7837L361.358 43.4629V4.4309L357.845 2.11008C357.611 1.8991 357.377 1.47713 357.377 1.05516C357.611 0.633195 357.845 0.422211 358.314 0.422211H375.176C375.644 0.422211 375.878 0.633195 376.112 1.05516C376.347 1.47713 376.112 1.8991 375.644 2.11008L372.131 4.4309V43.2519H393.911L398.126 39.4542C398.361 39.2432 398.595 39.2432 398.829 39.2432C399.063 39.2432 399.063 39.2432 399.297 39.2432C399.766 39.4542 400 39.6652 400 40.0872V46.4167C400 46.8386 399.532 47.2606 399.063 47.2606H358.314V47.4716Z" fill="url(#paint2_linear_33_1782)" fill-opacity="0.2"/>
<path d="M30.445 47.8933C16.3934 47.8933 0 41.5638 0 23.8412C0 10.3382 13.1148 0 30.6792 0C38.4075 0 45.9016 2.32082 48.0094 2.95377C48.4777 3.16476 48.7119 3.37574 48.7119 3.79771V10.5492C48.7119 10.9712 48.4777 11.1821 48.0094 11.3931C48.0094 11.3931 47.7752 11.3931 47.541 11.3931C47.3068 11.3931 47.0726 11.3931 46.8384 11.1821C43.3255 7.8064 36.534 4.00869 30.445 4.00869C19.2037 4.00869 12.6464 11.1821 12.6464 24.0522C12.6464 36.7112 18.9696 43.6736 30.445 43.6736C38.6417 43.6736 42.1546 40.2979 46.6042 34.8123C46.8384 34.6013 47.0726 34.3904 47.3068 34.3904H47.541C48.0094 34.6013 48.2436 34.8123 48.2436 35.2343V42.1968C48.2436 42.4077 48.0094 42.6187 48.0094 42.8297C43.5597 46.4164 38.1733 47.8933 30.445 47.8933Z" fill="#558FFF"/>
<path d="M30.445 47.8933C16.3934 47.8933 0 41.5638 0 23.8412C0 10.3382 13.1148 0 30.6792 0C38.4075 0 45.9016 2.32082 48.0094 2.95377C48.4777 3.16476 48.7119 3.37574 48.7119 3.79771V10.5492C48.7119 10.9712 48.4777 11.1821 48.0094 11.3931C48.0094 11.3931 47.7752 11.3931 47.541 11.3931C47.3068 11.3931 47.0726 11.3931 46.8384 11.1821C43.3255 7.8064 36.534 4.00869 30.445 4.00869C19.2037 4.00869 12.6464 11.1821 12.6464 24.0522C12.6464 36.7112 18.9696 43.6736 30.445 43.6736C38.6417 43.6736 42.1546 40.2979 46.6042 34.8123C46.8384 34.6013 47.0726 34.3904 47.3068 34.3904H47.541C48.0094 34.6013 48.2436 34.8123 48.2436 35.2343V42.1968C48.2436 42.4077 48.0094 42.6187 48.0094 42.8297C43.5597 46.4164 38.1733 47.8933 30.445 47.8933Z" fill="url(#paint3_linear_33_1782)" fill-opacity="0.2"/>
<path d="M332.084 47.4716C331.85 47.4716 331.382 47.2606 331.147 47.0496C330.913 46.8386 330.913 46.4167 331.147 46.2057L332.787 43.4629L328.103 33.3357H310.07L305.386 43.4629L305.621 43.8849L307.026 46.2057C307.26 46.4167 307.26 46.8386 307.026 47.0496C306.791 47.2606 306.557 47.4716 306.089 47.4716H296.019C295.55 47.4716 295.316 47.2606 295.082 46.8386C294.848 46.4167 295.082 46.2057 295.316 45.7837L298.361 43.2519L315.457 6.54073L313.115 1.47711C312.88 1.26613 313.115 0.844163 313.115 0.633179C313.349 0.422196 313.583 0.211212 314.051 0.211212H324.122C324.59 0.211212 325.058 0.422195 325.058 0.844163C325.058 1.26613 325.058 1.6881 324.59 1.89908L323.887 2.32105L342.857 43.2519L346.37 45.5727C346.604 45.7837 346.838 46.2057 346.838 46.6276C346.604 47.0496 346.37 47.2606 345.902 47.2606H332.084V47.4716ZM311.944 29.538H326.464L319.204 13.9252L311.944 29.538Z" fill="#558FFF"/>
<path d="M332.084 47.4716C331.85 47.4716 331.382 47.2606 331.147 47.0496C330.913 46.8386 330.913 46.4167 331.147 46.2057L332.787 43.4629L328.103 33.3357H310.07L305.386 43.4629L305.621 43.8849L307.026 46.2057C307.26 46.4167 307.26 46.8386 307.026 47.0496C306.791 47.2606 306.557 47.4716 306.089 47.4716H296.019C295.55 47.4716 295.316 47.2606 295.082 46.8386C294.848 46.4167 295.082 46.2057 295.316 45.7837L298.361 43.2519L315.457 6.54073L313.115 1.47711C312.88 1.26613 313.115 0.844163 313.115 0.633179C313.349 0.422196 313.583 0.211212 314.051 0.211212H324.122C324.59 0.211212 325.058 0.422195 325.058 0.844163C325.058 1.26613 325.058 1.6881 324.59 1.89908L323.887 2.32105L342.857 43.2519L346.37 45.5727C346.604 45.7837 346.838 46.2057 346.838 46.6276C346.604 47.0496 346.37 47.2606 345.902 47.2606H332.084V47.4716ZM311.944 29.538H326.464L319.204 13.9252L311.944 29.538Z" fill="url(#paint4_linear_33_1782)" fill-opacity="0.2"/>
<path d="M241.218 47.4716C240.749 47.4716 240.515 47.2607 240.281 46.8387C240.047 46.4167 240.281 45.9948 240.749 45.7838L244.262 43.4629V4.64193L240.515 2.32111C240.281 2.11013 240.047 1.68816 240.047 1.26619C240.281 0.844224 240.515 0.63324 240.984 0.63324H260.422C278.689 0.63324 281.265 8.86161 281.265 13.7142C281.265 17.7229 279.625 22.7865 271.429 25.7403L270.258 26.1623L281.03 43.6739L284.543 45.9948C284.778 46.2057 285.012 46.6277 285.012 47.0497C284.778 47.4716 284.543 47.6826 284.075 47.6826H272.6C272.131 47.6826 271.897 47.4716 271.663 47.2607L259.485 27.6392H258.782C258.08 27.6392 257.611 27.6392 256.909 27.6392H253.864V43.6739L257.377 45.9948C257.611 46.2057 257.845 46.6277 257.845 47.0497C257.611 47.4716 257.377 47.6826 256.909 47.6826H241.218V47.4716ZM254.567 22.9975H258.782H259.016C259.016 22.9975 259.016 22.9975 259.251 22.9975C260.422 22.9975 261.827 22.7865 263.232 22.5756H263.7C265.574 22.1536 266.745 21.3097 267.213 20.8877C269.321 19.4108 270.258 16.879 270.258 13.2923C270.258 7.59571 266.979 4.64193 260.89 4.64193H254.801V22.9975H254.567Z" fill="#558FFF"/>
<path d="M241.218 47.4716C240.749 47.4716 240.515 47.2607 240.281 46.8387C240.047 46.4167 240.281 45.9948 240.749 45.7838L244.262 43.4629V4.64193L240.515 2.32111C240.281 2.11013 240.047 1.68816 240.047 1.26619C240.281 0.844224 240.515 0.63324 240.984 0.63324H260.422C278.689 0.63324 281.265 8.86161 281.265 13.7142C281.265 17.7229 279.625 22.7865 271.429 25.7403L270.258 26.1623L281.03 43.6739L284.543 45.9948C284.778 46.2057 285.012 46.6277 285.012 47.0497C284.778 47.4716 284.543 47.6826 284.075 47.6826H272.6C272.131 47.6826 271.897 47.4716 271.663 47.2607L259.485 27.6392H258.782C258.08 27.6392 257.611 27.6392 256.909 27.6392H253.864V43.6739L257.377 45.9948C257.611 46.2057 257.845 46.6277 257.845 47.0497C257.611 47.4716 257.377 47.6826 256.909 47.6826H241.218V47.4716ZM254.567 22.9975H258.782H259.016C259.016 22.9975 259.016 22.9975 259.251 22.9975C260.422 22.9975 261.827 22.7865 263.232 22.5756H263.7C265.574 22.1536 266.745 21.3097 267.213 20.8877C269.321 19.4108 270.258 16.879 270.258 13.2923C270.258 7.59571 266.979 4.64193 260.89 4.64193H254.801V22.9975H254.567Z" fill="url(#paint5_linear_33_1782)" fill-opacity="0.2"/>
<path d="M171.663 1.26619C171.429 0.844224 171.194 0.63324 170.726 0.63324H158.314C157.845 0.63324 157.611 0.844224 157.377 1.26619C157.143 1.68816 157.377 2.11013 157.845 2.32111L161.358 4.64193V9.70554V34.3906L129.977 0.844223C129.742 0.63324 129.508 0.63324 129.274 0.63324H118.033C117.564 0.63324 117.33 0.844224 117.096 1.05521C116.862 1.26619 117.096 1.68816 117.33 1.89914L122.717 7.80669V11.6044V43.252L118.97 45.7838C118.735 45.9948 118.501 46.4167 118.501 46.8387C118.735 47.2607 118.97 47.4716 119.438 47.4716H131.85C132.319 47.4716 132.553 47.2607 132.787 46.8387C133.021 46.4167 132.787 45.9948 132.319 45.7838L128.806 43.4629V14.7692L158.782 47.2607C159.016 47.4716 159.251 47.6826 159.485 47.6826H166.511C166.979 47.6826 167.447 47.2607 167.447 46.8387V4.43095L170.96 2.11013C171.663 1.89914 171.663 1.47718 171.663 1.26619Z" fill="#558FFF"/>
<path d="M171.663 1.26619C171.429 0.844224 171.194 0.63324 170.726 0.63324H158.314C157.845 0.63324 157.611 0.844224 157.377 1.26619C157.143 1.68816 157.377 2.11013 157.845 2.32111L161.358 4.64193V9.70554V34.3906L129.977 0.844223C129.742 0.63324 129.508 0.63324 129.274 0.63324H118.033C117.564 0.63324 117.33 0.844224 117.096 1.05521C116.862 1.26619 117.096 1.68816 117.33 1.89914L122.717 7.80669V11.6044V43.252L118.97 45.7838C118.735 45.9948 118.501 46.4167 118.501 46.8387C118.735 47.2607 118.97 47.4716 119.438 47.4716H131.85C132.319 47.4716 132.553 47.2607 132.787 46.8387C133.021 46.4167 132.787 45.9948 132.319 45.7838L128.806 43.4629V14.7692L158.782 47.2607C159.016 47.4716 159.251 47.6826 159.485 47.6826H166.511C166.979 47.6826 167.447 47.2607 167.447 46.8387V4.43095L170.96 2.11013C171.663 1.89914 171.663 1.47718 171.663 1.26619Z" fill="url(#paint6_linear_33_1782)" fill-opacity="0.2"/>
<defs>
<linearGradient id="paint0_linear_33_1782" x1="103.983" y1="1.61384" x2="52.298" y2="30.3085" gradientUnits="userSpaceOnUse">
<stop stop-color="#FF0000"/>
<stop offset="0.515" stop-color="#BB004F"/>
<stop offset="0.67" stop-color="#2E079C"/>
<stop offset="1"/>
</linearGradient>
<linearGradient id="paint1_linear_33_1782" x1="227.341" y1="1.61384" x2="173.454" y2="34.1466" gradientUnits="userSpaceOnUse">
<stop stop-color="#FF0000"/>
<stop offset="0.515" stop-color="#BB004F"/>
<stop offset="0.67" stop-color="#2E079C"/>
<stop offset="1"/>
</linearGradient>
<linearGradient id="paint2_linear_33_1782" x1="399.302" y1="1.40723" x2="347.599" y2="29.888" gradientUnits="userSpaceOnUse">
<stop stop-color="#FF0000"/>
<stop offset="0.515" stop-color="#BB004F"/>
<stop offset="0.67" stop-color="#2E079C"/>
<stop offset="1"/>
</linearGradient>
<linearGradient id="paint3_linear_33_1782" x1="47.9157" y1="1.00269" x2="-7.7409" y2="35.3499" gradientUnits="userSpaceOnUse">
<stop stop-color="#FF0000"/>
<stop offset="0.515" stop-color="#BB004F"/>
<stop offset="0.67" stop-color="#2E079C"/>
<stop offset="1"/>
</linearGradient>
<linearGradient id="paint4_linear_33_1782" x1="345.991" y1="1.20065" x2="289.304" y2="38.9383" gradientUnits="userSpaceOnUse">
<stop stop-color="#FF0000"/>
<stop offset="0.515" stop-color="#BB004F"/>
<stop offset="0.67" stop-color="#2E079C"/>
<stop offset="1"/>
</linearGradient>
<linearGradient id="paint5_linear_33_1782" x1="284.277" y1="1.61826" x2="231.187" y2="32.4036" gradientUnits="userSpaceOnUse">
<stop stop-color="#FF0000"/>
<stop offset="0.515" stop-color="#BB004F"/>
<stop offset="0.67" stop-color="#2E079C"/>
<stop offset="1"/>
</linearGradient>
<linearGradient id="paint6_linear_33_1782" x1="170.769" y1="1.61826" x2="113.157" y2="42.2323" gradientUnits="userSpaceOnUse">
<stop stop-color="#FF0000"/>
<stop offset="0.515" stop-color="#BB004F"/>
<stop offset="0.67" stop-color="#2E079C"/>
<stop offset="1"/>
</linearGradient>
</defs>
</svg>
