<svg width="500" height="500" viewBox="0 0 500 500" fill="none" xmlns="http://www.w3.org/2000/svg">
<rect width="500" height="500" fill="#252525"/>
<path d="M215.92 372.204L215.935 372.19L215.949 372.176C217.96 370.165 218.984 367.732 218.984 364.93C218.984 362.251 217.948 359.893 215.949 357.894C213.889 355.834 211.078 354.859 207.648 354.859H157.18V276.379L195.105 244.399L293.797 354.859H261.016C257.586 354.859 254.775 355.834 252.715 357.894C250.716 359.893 249.68 362.251 249.68 364.93C249.68 367.732 250.704 370.165 252.715 372.176L252.729 372.19L252.744 372.204C254.814 374.115 257.691 375 261.227 375H349.398C352.807 375 355.608 374.108 357.67 372.204L357.685 372.19L357.699 372.176C359.71 370.165 360.734 367.732 360.734 364.93C360.734 362.257 359.703 359.904 357.714 357.909C355.785 355.829 353.026 354.859 349.609 354.859H321.162L212.207 231.474L303.597 146.344H332.312C335.715 146.344 338.469 145.453 340.402 143.52C342.414 141.508 343.438 139.076 343.438 136.273C343.438 133.471 342.414 131.038 340.402 129.027C338.342 126.967 335.531 125.992 332.102 125.992H255.742C252.33 125.992 249.478 126.886 247.287 128.764L247.273 128.776L247.259 128.789C245.25 130.643 244.195 132.869 244.195 135.43C244.195 137.875 245.273 139.969 247.292 141.677C249.355 143.423 252.144 144.234 255.531 144.234H274.305C275.613 144.234 276.491 144.341 277.009 144.504C277.111 144.536 277.186 144.566 277.24 144.59C277.213 144.638 277.175 144.697 277.124 144.77C276.928 145.05 276.61 145.42 276.147 145.884L156.336 254.047V146.344H196.047C199.45 146.344 202.203 145.453 204.137 143.52C206.136 141.521 207.172 139.163 207.172 136.484C207.172 133.668 206.067 131.237 203.926 129.238C201.873 127.043 199.062 125.992 195.625 125.992H101.758C98.1978 125.992 95.2596 126.961 93.0617 129.002L93.0482 129.014L93.0351 129.027C91.0239 131.038 90 133.471 90 136.273C90 139.076 91.0239 141.508 93.0351 143.52L93.0492 143.534L93.0639 143.547C95.1342 145.458 98.0114 146.344 101.547 146.344H134.086V354.859H101.547C98.1145 354.859 95.2518 355.835 93.0617 357.869L93.0482 357.881L93.0351 357.894C91.0363 359.893 90 362.251 90 364.93C90 367.732 91.0239 370.165 93.0351 372.176L93.0622 372.203L93.0914 372.228C95.2902 374.113 98.2174 375 101.758 375H207.438C210.973 375 213.85 374.115 215.92 372.204ZM277.374 144.674C277.372 144.674 277.362 144.667 277.351 144.651C277.371 144.665 277.376 144.673 277.374 144.674Z" fill="#2C90ED" stroke="#2C90ED" stroke-width="2"/>
<path d="M406.347 339.388C410.434 343.344 412.478 348.287 412.478 354.22C412.478 360.153 410.434 365.096 406.347 369.052C402.392 373.007 397.448 374.984 391.516 374.984C385.451 374.984 380.441 373.073 376.486 369.249C372.531 365.294 370.554 360.284 370.554 354.22C370.554 348.156 372.531 343.146 376.486 339.191C380.573 335.236 385.583 333.258 391.516 333.258C397.448 333.258 402.392 335.302 406.347 339.388Z" fill="#2C90ED"/>
</svg>
