<svg width="132" height="132" viewBox="0 0 132 132" fill="none" xmlns="http://www.w3.org/2000/svg">
<path d="M105.286 16H26.7143C20.7991 16 16 20.7991 16 26.7143V105.286C16 111.201 20.7991 116 26.7143 116H105.286C111.201 116 116 111.201 116 105.286V26.7143C116 20.7991 111.201 16 105.286 16ZM77.8973 101.647C76.0223 101.982 75.3304 100.821 75.3304 99.8616C75.3304 98.6562 75.375 92.4955 75.375 87.5179C75.375 84.0357 74.2143 81.8259 72.8527 80.6652C81.1116 79.75 89.817 78.6116 89.817 64.3482C89.817 60.2857 88.3661 58.2545 86 55.6429C86.3795 54.683 87.6518 50.7321 85.6205 45.5982C82.5179 44.6384 75.4196 49.5938 75.4196 49.5938C72.4732 48.7679 69.2812 48.3438 66.1339 48.3438C62.9866 48.3438 59.7946 48.7679 56.8482 49.5938C56.8482 49.5938 49.75 44.6384 46.6473 45.5982C44.6161 50.7098 45.8661 54.6607 46.2679 55.6429C43.9018 58.2545 42.7857 60.2857 42.7857 64.3482C42.7857 78.5446 51.1116 79.75 59.3705 80.6652C58.2991 81.625 57.3393 83.2768 57.0045 85.6429C54.8839 86.6027 49.4598 88.2545 46.2232 82.5402C44.192 79.0134 40.5312 78.7232 40.5312 78.7232C36.9152 78.6786 40.2857 81 40.2857 81C42.6964 82.1161 44.3929 86.4018 44.3929 86.4018C46.558 93.0312 56.9152 90.7991 56.9152 90.7991C56.9152 93.9018 56.9598 98.9464 56.9598 99.8616C56.9598 100.821 56.2902 101.982 54.3929 101.647C39.6607 96.7143 29.3482 82.6964 29.3482 66.3125C29.3482 45.8214 45.0179 30.2634 65.5089 30.2634C86 30.2634 102.607 45.8214 102.607 66.3125C102.629 82.6964 92.6295 96.7366 77.8973 101.647ZM56 88.0089C55.5759 88.0982 55.1741 87.9196 55.1295 87.6295C55.0848 87.2946 55.375 87.0045 55.7991 86.9152C56.2232 86.8705 56.625 87.0491 56.6696 87.3393C56.7366 87.6295 56.4464 87.9196 56 88.0089ZM53.8795 87.808C53.8795 88.0982 53.5446 88.3438 53.0982 88.3438C52.6071 88.3884 52.2723 88.1429 52.2723 87.808C52.2723 87.5179 52.6071 87.2723 53.0536 87.2723C53.4777 87.2277 53.8795 87.4732 53.8795 87.808ZM50.8214 87.5625C50.7321 87.8527 50.2857 87.9866 49.9062 87.8527C49.4821 87.7634 49.192 87.4286 49.2812 87.1384C49.3705 86.8482 49.817 86.7143 50.1964 86.8036C50.6429 86.9375 50.933 87.2723 50.8214 87.5625ZM48.0759 86.3571C47.875 86.6027 47.4509 86.558 47.1161 86.2232C46.7812 85.933 46.692 85.5089 46.9152 85.308C47.1161 85.0625 47.5402 85.1071 47.875 85.442C48.1652 85.7321 48.2768 86.1786 48.0759 86.3571ZM46.0446 84.3259C45.8438 84.4598 45.4643 84.3259 45.2187 83.9911C44.9732 83.6562 44.9732 83.2768 45.2187 83.1205C45.4643 82.9196 45.8438 83.0759 46.0446 83.4107C46.2902 83.7455 46.2902 84.1473 46.0446 84.3259ZM44.5938 82.1607C44.3929 82.3616 44.058 82.25 43.8125 82.0268C43.567 81.7366 43.5223 81.4018 43.7232 81.2455C43.9241 81.0446 44.2589 81.1562 44.5045 81.3795C44.75 81.6696 44.7946 82.0045 44.5938 82.1607ZM43.0982 80.5089C43.0089 80.7098 42.7188 80.7545 42.4732 80.5982C42.183 80.4643 42.0491 80.2188 42.1384 80.0179C42.2277 79.8839 42.4732 79.817 42.7634 79.9286C43.0536 80.0848 43.1875 80.3304 43.0982 80.5089Z" fill="#558FFF"/>
<path d="M105.286 16H26.7143C20.7991 16 16 20.7991 16 26.7143V105.286C16 111.201 20.7991 116 26.7143 116H105.286C111.201 116 116 111.201 116 105.286V26.7143C116 20.7991 111.201 16 105.286 16ZM77.8973 101.647C76.0223 101.982 75.3304 100.821 75.3304 99.8616C75.3304 98.6562 75.375 92.4955 75.375 87.5179C75.375 84.0357 74.2143 81.8259 72.8527 80.6652C81.1116 79.75 89.817 78.6116 89.817 64.3482C89.817 60.2857 88.3661 58.2545 86 55.6429C86.3795 54.683 87.6518 50.7321 85.6205 45.5982C82.5179 44.6384 75.4196 49.5938 75.4196 49.5938C72.4732 48.7679 69.2812 48.3438 66.1339 48.3438C62.9866 48.3438 59.7946 48.7679 56.8482 49.5938C56.8482 49.5938 49.75 44.6384 46.6473 45.5982C44.6161 50.7098 45.8661 54.6607 46.2679 55.6429C43.9018 58.2545 42.7857 60.2857 42.7857 64.3482C42.7857 78.5446 51.1116 79.75 59.3705 80.6652C58.2991 81.625 57.3393 83.2768 57.0045 85.6429C54.8839 86.6027 49.4598 88.2545 46.2232 82.5402C44.192 79.0134 40.5312 78.7232 40.5312 78.7232C36.9152 78.6786 40.2857 81 40.2857 81C42.6964 82.1161 44.3929 86.4018 44.3929 86.4018C46.558 93.0312 56.9152 90.7991 56.9152 90.7991C56.9152 93.9018 56.9598 98.9464 56.9598 99.8616C56.9598 100.821 56.2902 101.982 54.3929 101.647C39.6607 96.7143 29.3482 82.6964 29.3482 66.3125C29.3482 45.8214 45.0179 30.2634 65.5089 30.2634C86 30.2634 102.607 45.8214 102.607 66.3125C102.629 82.6964 92.6295 96.7366 77.8973 101.647ZM56 88.0089C55.5759 88.0982 55.1741 87.9196 55.1295 87.6295C55.0848 87.2946 55.375 87.0045 55.7991 86.9152C56.2232 86.8705 56.625 87.0491 56.6696 87.3393C56.7366 87.6295 56.4464 87.9196 56 88.0089ZM53.8795 87.808C53.8795 88.0982 53.5446 88.3438 53.0982 88.3438C52.6071 88.3884 52.2723 88.1429 52.2723 87.808C52.2723 87.5179 52.6071 87.2723 53.0536 87.2723C53.4777 87.2277 53.8795 87.4732 53.8795 87.808ZM50.8214 87.5625C50.7321 87.8527 50.2857 87.9866 49.9062 87.8527C49.4821 87.7634 49.192 87.4286 49.2812 87.1384C49.3705 86.8482 49.817 86.7143 50.1964 86.8036C50.6429 86.9375 50.933 87.2723 50.8214 87.5625ZM48.0759 86.3571C47.875 86.6027 47.4509 86.558 47.1161 86.2232C46.7812 85.933 46.692 85.5089 46.9152 85.308C47.1161 85.0625 47.5402 85.1071 47.875 85.442C48.1652 85.7321 48.2768 86.1786 48.0759 86.3571ZM46.0446 84.3259C45.8438 84.4598 45.4643 84.3259 45.2187 83.9911C44.9732 83.6562 44.9732 83.2768 45.2187 83.1205C45.4643 82.9196 45.8438 83.0759 46.0446 83.4107C46.2902 83.7455 46.2902 84.1473 46.0446 84.3259ZM44.5938 82.1607C44.3929 82.3616 44.058 82.25 43.8125 82.0268C43.567 81.7366 43.5223 81.4018 43.7232 81.2455C43.9241 81.0446 44.2589 81.1562 44.5045 81.3795C44.75 81.6696 44.7946 82.0045 44.5938 82.1607ZM43.0982 80.5089C43.0089 80.7098 42.7188 80.7545 42.4732 80.5982C42.183 80.4643 42.0491 80.2188 42.1384 80.0179C42.2277 79.8839 42.4732 79.817 42.7634 79.9286C43.0536 80.0848 43.1875 80.3304 43.0982 80.5089Z" fill="url(#paint0_linear_33_1854)" fill-opacity="0.2"/>
<defs>
<linearGradient id="paint0_linear_33_1854" x1="114.365" y1="18.0936" x2="-0.951176" y2="88.0626" gradientUnits="userSpaceOnUse">
<stop stop-color="#FF0000"/>
<stop offset="0.515" stop-color="#BB004F"/>
<stop offset="0.67" stop-color="#2E079C"/>
<stop offset="1"/>
</linearGradient>
</defs>
</svg>
