<svg width="151" height="151" viewBox="0 0 151 151" fill="none" xmlns="http://www.w3.org/2000/svg">
<g clip-path="url(#clip0_33_1865)">
<rect x="0.5" y="0.875" width="150" height="150" rx="8" fill="black"/>
<path d="M135.286 -19.375H-3.78571C-14.2556 -19.375 -22.75 -10.8806 -22.75 -0.410713V138.661C-22.75 149.131 -14.2556 157.625 -3.78571 157.625H135.286C145.756 157.625 154.25 149.131 154.25 138.661V-0.410713C154.25 -10.8806 145.756 -19.375 135.286 -19.375ZM73.5728 118.669C73.5728 135.895 63.4585 143.757 48.7216 143.757C35.4071 143.757 27.7029 136.883 23.752 128.546L37.3036 120.368C39.9112 124.991 42.2817 128.902 48.0105 128.902C53.4627 128.902 56.9395 126.769 56.9395 118.432V61.8949H73.5728V118.669ZM112.924 143.757C97.4757 143.757 87.4799 136.409 82.6203 126.769L96.1719 118.946C99.7277 124.754 104.39 129.06 112.568 129.06C119.443 129.06 123.868 125.623 123.868 120.842C123.868 115.153 119.364 113.138 111.738 109.78L107.59 108.002C95.5792 102.905 87.6379 96.4652 87.6379 82.9136C87.6379 70.4288 97.1596 60.9467 111.975 60.9467C122.564 60.9467 130.15 64.621 135.602 74.2612L122.643 82.558C119.798 77.4614 116.717 75.4464 111.936 75.4464C107.076 75.4464 103.995 78.5281 103.995 82.558C103.995 87.5362 107.076 89.5511 114.227 92.6723L118.376 94.4502C132.52 100.495 140.461 106.698 140.461 120.605C140.461 135.54 128.688 143.757 112.924 143.757Z" fill="#558FFF"/>
<path d="M135.286 -19.375H-3.78571C-14.2556 -19.375 -22.75 -10.8806 -22.75 -0.410713V138.661C-22.75 149.131 -14.2556 157.625 -3.78571 157.625H135.286C145.756 157.625 154.25 149.131 154.25 138.661V-0.410713C154.25 -10.8806 145.756 -19.375 135.286 -19.375ZM73.5728 118.669C73.5728 135.895 63.4585 143.757 48.7216 143.757C35.4071 143.757 27.7029 136.883 23.752 128.546L37.3036 120.368C39.9112 124.991 42.2817 128.902 48.0105 128.902C53.4627 128.902 56.9395 126.769 56.9395 118.432V61.8949H73.5728V118.669ZM112.924 143.757C97.4757 143.757 87.4799 136.409 82.6203 126.769L96.1719 118.946C99.7277 124.754 104.39 129.06 112.568 129.06C119.443 129.06 123.868 125.623 123.868 120.842C123.868 115.153 119.364 113.138 111.738 109.78L107.59 108.002C95.5792 102.905 87.6379 96.4652 87.6379 82.9136C87.6379 70.4288 97.1596 60.9467 111.975 60.9467C122.564 60.9467 130.15 64.621 135.602 74.2612L122.643 82.558C119.798 77.4614 116.717 75.4464 111.936 75.4464C107.076 75.4464 103.995 78.5281 103.995 82.558C103.995 87.5362 107.076 89.5511 114.227 92.6723L118.376 94.4502C132.52 100.495 140.461 106.698 140.461 120.605C140.461 135.54 128.688 143.757 112.924 143.757Z" fill="url(#paint0_linear_33_1865)" fill-opacity="0.2"/>
</g>
<defs>
<linearGradient id="paint0_linear_33_1865" x1="151.357" y1="-15.6693" x2="-52.7536" y2="108.176" gradientUnits="userSpaceOnUse">
<stop stop-color="#FF0000"/>
<stop offset="0.515" stop-color="#BB004F"/>
<stop offset="0.67" stop-color="#2E079C"/>
<stop offset="1"/>
</linearGradient>
<clipPath id="clip0_33_1865">
<rect x="0.5" y="0.875" width="150" height="150" rx="8" fill="white"/>
</clipPath>
</defs>
</svg>
