<svg width="132" height="132" viewBox="0 0 132 132" fill="none" xmlns="http://www.w3.org/2000/svg">
<path d="M108.623 16.0004H23.377C21.4429 15.9807 19.5799 16.7291 18.1969 18.0814C16.8139 19.4337 16.0238 21.2794 16 23.2135V108.804C16.0281 110.735 16.8201 112.576 18.2026 113.925C19.5851 115.274 21.4457 116.02 23.377 116H108.623C110.557 116.016 112.419 115.265 113.801 113.912C115.184 112.559 115.974 110.713 116 108.779V23.1889C115.965 21.2604 115.171 19.4235 113.79 18.0775C112.408 16.7314 110.552 15.985 108.623 16.0004ZM45.6475 101.246H30.8033V53.484H45.6475V101.246ZM38.2705 46.9758C36.5679 46.9774 34.9031 46.474 33.4867 45.5293C32.0703 44.5846 30.9659 43.241 30.3132 41.6685C29.6606 40.096 29.489 38.3653 29.8201 36.6952C30.1513 35.0252 30.9703 33.4908 32.1736 32.2864C33.377 31.0819 34.9105 30.2614 36.5802 29.9287C38.25 29.5959 39.9809 29.7659 41.554 30.417C43.1271 31.0682 44.4717 32.1713 45.4178 33.5868C46.3639 35.0023 46.8689 36.6667 46.8689 38.3692C46.8667 39.5008 46.6414 40.6209 46.2059 41.6654C45.7704 42.7098 45.1331 43.6581 44.3307 44.456C43.5282 45.2539 42.5763 45.8857 41.5294 46.3153C40.4825 46.7448 39.3611 46.9637 38.2295 46.9594L38.2705 46.9758ZM101.246 101.246H86.4016V78.0086C86.4016 72.4758 86.3033 65.3528 78.6885 65.3528C71.0738 65.3528 69.7787 71.3856 69.7787 77.6479V101.246H54.959V53.484H69.1885V60.0414H69.3852C71.3688 56.2873 76.2049 52.3282 83.4262 52.3282C98.459 52.2955 101.246 62.1889 101.246 75.0168V101.246Z" fill="#558FFF"/>
<path d="M108.623 16.0004H23.377C21.4429 15.9807 19.5799 16.7291 18.1969 18.0814C16.8139 19.4337 16.0238 21.2794 16 23.2135V108.804C16.0281 110.735 16.8201 112.576 18.2026 113.925C19.5851 115.274 21.4457 116.02 23.377 116H108.623C110.557 116.016 112.419 115.265 113.801 113.912C115.184 112.559 115.974 110.713 116 108.779V23.1889C115.965 21.2604 115.171 19.4235 113.79 18.0775C112.408 16.7314 110.552 15.985 108.623 16.0004ZM45.6475 101.246H30.8033V53.484H45.6475V101.246ZM38.2705 46.9758C36.5679 46.9774 34.9031 46.474 33.4867 45.5293C32.0703 44.5846 30.9659 43.241 30.3132 41.6685C29.6606 40.096 29.489 38.3653 29.8201 36.6952C30.1513 35.0252 30.9703 33.4908 32.1736 32.2864C33.377 31.0819 34.9105 30.2614 36.5802 29.9287C38.25 29.5959 39.9809 29.7659 41.554 30.417C43.1271 31.0682 44.4717 32.1713 45.4178 33.5868C46.3639 35.0023 46.8689 36.6667 46.8689 38.3692C46.8667 39.5008 46.6414 40.6209 46.2059 41.6654C45.7704 42.7098 45.1331 43.6581 44.3307 44.456C43.5282 45.2539 42.5763 45.8857 41.5294 46.3153C40.4825 46.7448 39.3611 46.9637 38.2295 46.9594L38.2705 46.9758ZM101.246 101.246H86.4016V78.0086C86.4016 72.4758 86.3033 65.3528 78.6885 65.3528C71.0738 65.3528 69.7787 71.3856 69.7787 77.6479V101.246H54.959V53.484H69.1885V60.0414H69.3852C71.3688 56.2873 76.2049 52.3282 83.4262 52.3282C98.459 52.2955 101.246 62.1889 101.246 75.0168V101.246Z" fill="url(#paint0_linear_33_1856)" fill-opacity="0.2"/>
<defs>
<linearGradient id="paint0_linear_33_1856" x1="114.365" y1="18.0936" x2="-0.951645" y2="88.0624" gradientUnits="userSpaceOnUse">
<stop stop-color="#FF0000"/>
<stop offset="0.515" stop-color="#BB004F"/>
<stop offset="0.67" stop-color="#2E079C"/>
<stop offset="1"/>
</linearGradient>
</defs>
</svg>
