<svg width="323" height="249" viewBox="0 0 323 249" fill="none" xmlns="http://www.w3.org/2000/svg">
<path d="M125.92 246.204L125.935 246.19L125.949 246.176C127.96 244.165 128.984 241.732 128.984 238.93C128.984 236.251 127.948 233.893 125.949 231.894C123.889 229.834 121.078 228.859 117.648 228.859H67.18V150.379L105.105 118.399L203.797 228.859H171.016C167.586 228.859 164.775 229.834 162.715 231.894C160.716 233.893 159.68 236.251 159.68 238.93C159.68 241.732 160.704 244.165 162.715 246.176L162.729 246.19L162.744 246.204C164.814 248.115 167.691 249 171.227 249H259.398C262.807 249 265.608 248.108 267.67 246.204L267.685 246.19L267.699 246.176C269.71 244.165 270.734 241.732 270.734 238.93C270.734 236.257 269.703 233.904 267.714 231.909C265.785 229.829 263.026 228.859 259.609 228.859H231.162L122.207 105.474L213.597 20.3439H242.312C245.715 20.3439 248.469 19.453 250.402 17.52C252.414 15.508 253.438 13.0759 253.438 10.2729C253.438 7.47094 252.414 5.03794 250.402 3.02694C248.342 0.966939 245.531 -0.00805664 242.102 -0.00805664H165.742C162.33 -0.00805664 159.478 0.885954 157.287 2.76395L157.273 2.77595L157.259 2.78895C155.25 4.64295 154.195 6.86894 154.195 9.42994C154.195 11.8749 155.273 13.9689 157.292 15.6769C159.355 17.4229 162.144 18.2339 165.531 18.2339H184.305C185.613 18.2339 186.491 18.3409 187.009 18.5039C187.111 18.5359 187.186 18.5659 187.24 18.5899C187.213 18.6379 187.175 18.697 187.124 18.77C186.928 19.05 186.61 19.4199 186.147 19.8839L66.336 128.047V20.3439H106.047C109.45 20.3439 112.203 19.453 114.137 17.52C116.136 15.521 117.172 13.1629 117.172 10.4839C117.172 7.66794 116.067 5.23695 113.926 3.23795C111.873 1.04295 109.062 -0.00805664 105.625 -0.00805664H11.758C8.1978 -0.00805664 5.2596 0.960946 3.0617 3.00195L3.0482 3.01395L3.0351 3.02694C1.0239 5.03794 0 7.47094 0 10.2729C0 13.0759 1.0239 15.508 3.0351 17.52L3.0492 17.5339L3.0639 17.5469C5.1342 19.4579 8.0114 20.3439 11.547 20.3439H44.086V228.859H11.547C8.1145 228.859 5.2518 229.835 3.0617 231.869L3.0482 231.881L3.0351 231.894C1.0363 233.893 0 236.251 0 238.93C0 241.732 1.0239 244.165 3.0351 246.176L3.0622 246.203L3.0914 246.228C5.2902 248.113 8.2174 249 11.758 249H117.438C120.973 249 123.85 248.115 125.92 246.204ZM187.374 18.6739C187.372 18.6739 187.362 18.6669 187.351 18.6509C187.371 18.6649 187.376 18.6729 187.374 18.6739Z" fill="#558FFF"/>
<path d="M125.92 246.204L125.935 246.19L125.949 246.176C127.96 244.165 128.984 241.732 128.984 238.93C128.984 236.251 127.948 233.893 125.949 231.894C123.889 229.834 121.078 228.859 117.648 228.859H67.18V150.379L105.105 118.399L203.797 228.859H171.016C167.586 228.859 164.775 229.834 162.715 231.894C160.716 233.893 159.68 236.251 159.68 238.93C159.68 241.732 160.704 244.165 162.715 246.176L162.729 246.19L162.744 246.204C164.814 248.115 167.691 249 171.227 249H259.398C262.807 249 265.608 248.108 267.67 246.204L267.685 246.19L267.699 246.176C269.71 244.165 270.734 241.732 270.734 238.93C270.734 236.257 269.703 233.904 267.714 231.909C265.785 229.829 263.026 228.859 259.609 228.859H231.162L122.207 105.474L213.597 20.3439H242.312C245.715 20.3439 248.469 19.453 250.402 17.52C252.414 15.508 253.438 13.0759 253.438 10.2729C253.438 7.47094 252.414 5.03794 250.402 3.02694C248.342 0.966939 245.531 -0.00805664 242.102 -0.00805664H165.742C162.33 -0.00805664 159.478 0.885954 157.287 2.76395L157.273 2.77595L157.259 2.78895C155.25 4.64295 154.195 6.86894 154.195 9.42994C154.195 11.8749 155.273 13.9689 157.292 15.6769C159.355 17.4229 162.144 18.2339 165.531 18.2339H184.305C185.613 18.2339 186.491 18.3409 187.009 18.5039C187.111 18.5359 187.186 18.5659 187.24 18.5899C187.213 18.6379 187.175 18.697 187.124 18.77C186.928 19.05 186.61 19.4199 186.147 19.8839L66.336 128.047V20.3439H106.047C109.45 20.3439 112.203 19.453 114.137 17.52C116.136 15.521 117.172 13.1629 117.172 10.4839C117.172 7.66794 116.067 5.23695 113.926 3.23795C111.873 1.04295 109.062 -0.00805664 105.625 -0.00805664H11.758C8.1978 -0.00805664 5.2596 0.960946 3.0617 3.00195L3.0482 3.01395L3.0351 3.02694C1.0239 5.03794 0 7.47094 0 10.2729C0 13.0759 1.0239 15.508 3.0351 17.52L3.0492 17.5339L3.0639 17.5469C5.1342 19.4579 8.0114 20.3439 11.547 20.3439H44.086V228.859H11.547C8.1145 228.859 5.2518 229.835 3.0617 231.869L3.0482 231.881L3.0351 231.894C1.0363 233.893 0 236.251 0 238.93C0 241.732 1.0239 244.165 3.0351 246.176L3.0622 246.203L3.0914 246.228C5.2902 248.113 8.2174 249 11.758 249H117.438C120.973 249 123.85 248.115 125.92 246.204ZM187.374 18.6739C187.372 18.6739 187.362 18.6669 187.351 18.6509C187.371 18.6649 187.376 18.6729 187.374 18.6739Z" fill="url(#paint0_linear_55_7)" fill-opacity="0.2"/>
<path d="M316.527 213.404C320.614 217.36 322.658 222.303 322.658 228.236C322.658 234.169 320.614 239.112 316.527 243.068C312.572 247.023 307.628 249 301.696 249C295.631 249 290.621 247.089 286.666 243.265C282.711 239.31 280.734 234.3 280.734 228.236C280.734 222.172 282.711 217.162 286.666 213.207C290.753 209.252 295.763 207.274 301.696 207.274C307.628 207.274 312.572 209.318 316.527 213.404Z" fill="#558FFF"/>
<path d="M316.527 213.404C320.614 217.36 322.658 222.303 322.658 228.236C322.658 234.169 320.614 239.112 316.527 243.068C312.572 247.023 307.628 249 301.696 249C295.631 249 290.621 247.089 286.666 243.265C282.711 239.31 280.734 234.3 280.734 228.236C280.734 222.172 282.711 217.162 286.666 213.207C290.753 209.252 295.763 207.274 301.696 207.274C307.628 207.274 312.572 209.318 316.527 213.404Z" fill="url(#paint1_linear_55_7)" fill-opacity="0.2"/>
<defs>
<linearGradient id="paint0_linear_55_7" x1="266.309" y1="5.20515" x2="-31.3081" y2="201.542" gradientUnits="userSpaceOnUse">
<stop stop-color="#FF0000"/>
<stop offset="0.515" stop-color="#BB004F"/>
<stop offset="0.67" stop-color="#2E079C"/>
<stop offset="1"/>
</linearGradient>
<linearGradient id="paint1_linear_55_7" x1="321.973" y1="208.147" x2="273.751" y2="237.545" gradientUnits="userSpaceOnUse">
<stop stop-color="#FF0000"/>
<stop offset="0.515" stop-color="#BB004F"/>
<stop offset="0.67" stop-color="#2E079C"/>
<stop offset="1"/>
</linearGradient>
</defs>
</svg>
