<svg width="151" height="151" viewBox="0 0 151 151" fill="none" xmlns="http://www.w3.org/2000/svg">
<rect x="0.5" y="0.875" width="150" height="150" rx="7.8" fill="#558FFF"/>
<rect x="0.5" y="0.875" width="150" height="150" rx="7.8" fill="url(#paint0_linear_33_1880)" fill-opacity="0.2"/>
<g clip-path="url(#clip0_33_1880)">
<path d="M99.1611 61.3701C92.845 33.4876 77.9144 24.3233 76.3104 20.8205C74.9113 18.8517 73.6621 16.0535 72.6377 13.625C72.4578 16.0985 72.3629 17.0479 70.0243 19.5413C66.4116 22.3695 47.8482 37.9398 46.3392 69.61C44.93 99.1515 67.6758 116.755 70.7639 118.999L71.1136 119.249C71.7561 124.005 72.3058 128.773 72.7626 133.55H75.1661C75.7404 128.395 76.5911 123.274 77.7145 118.21C79.7982 116.73 80.7326 115.896 81.9619 114.747C87.7835 109.362 92.4101 102.815 95.5423 95.5298C98.6746 88.2444 100.243 80.3827 100.145 72.4532C100.195 68.3857 99.6308 64.1484 99.1611 61.3701ZM72.4978 102.319C72.4978 102.319 72.4978 60.8904 73.8719 60.8954C74.9363 60.8954 76.3204 114.337 76.3204 114.337C74.4166 114.112 72.4978 105.542 72.4978 102.319Z" fill="black"/>
</g>
<defs>
<linearGradient id="paint0_linear_33_1880" x1="148.048" y1="4.01539" x2="-24.9268" y2="108.969" gradientUnits="userSpaceOnUse">
<stop stop-color="#FF0000"/>
<stop offset="0.515" stop-color="#BB004F"/>
<stop offset="0.67" stop-color="#2E079C"/>
<stop offset="1"/>
</linearGradient>
<clipPath id="clip0_33_1880">
<rect width="119.925" height="119.925" fill="white" transform="translate(13.25 13.625)"/>
</clipPath>
</defs>
</svg>
