<svg width="38" height="38" viewBox="0 0 38 38" fill="none" xmlns="http://www.w3.org/2000/svg">
<path d="M33.4821 0H4.01786C1.79967 0 0 1.79967 0 4.01786V33.4821C0 35.7003 1.79967 37.5 4.01786 37.5H33.4821C35.7003 37.5 37.5 35.7003 37.5 33.4821V4.01786C37.5 1.79967 35.7003 0 33.4821 0ZM23.2115 32.1177C22.5084 32.2433 22.2489 31.808 22.2489 31.4481C22.2489 30.9961 22.2656 28.6858 22.2656 26.8192C22.2656 25.5134 21.8304 24.6847 21.3198 24.2494C24.4169 23.9063 27.6814 23.4794 27.6814 18.1306C27.6814 16.6071 27.1373 15.8454 26.25 14.8661C26.3923 14.5061 26.8694 13.0246 26.1077 11.0993C24.9442 10.7394 22.2824 12.5977 22.2824 12.5977C21.1775 12.2879 19.9805 12.1289 18.8002 12.1289C17.62 12.1289 16.423 12.2879 15.3181 12.5977C15.3181 12.5977 12.6562 10.7394 11.4927 11.0993C10.731 13.0162 11.1998 14.4978 11.3504 14.8661C10.4632 15.8454 10.0446 16.6071 10.0446 18.1306C10.0446 23.4542 13.1669 23.9063 16.264 24.2494C15.8622 24.6094 15.5022 25.2288 15.3767 26.1161C14.5815 26.476 12.5474 27.0954 11.3337 24.9526C10.572 23.63 9.19922 23.5212 9.19922 23.5212C7.84319 23.5045 9.10714 24.375 9.10714 24.375C10.0112 24.7935 10.6473 26.4007 10.6473 26.4007C11.4593 28.8867 15.3432 28.0497 15.3432 28.0497C15.3432 29.2132 15.3599 31.1049 15.3599 31.4481C15.3599 31.808 15.1088 32.2433 14.3973 32.1177C8.87277 30.2679 5.00558 25.0112 5.00558 18.8672C5.00558 11.183 10.8817 5.34877 18.5658 5.34877C26.25 5.34877 32.4777 11.183 32.4777 18.8672C32.486 25.0112 28.736 30.2762 23.2115 32.1177ZM15 27.0033C14.841 27.0368 14.6903 26.9699 14.6735 26.861C14.6568 26.7355 14.7656 26.6267 14.9247 26.5932C15.0837 26.5765 15.2344 26.6434 15.2511 26.7522C15.2762 26.861 15.1674 26.9699 15 27.0033ZM14.2048 26.928C14.2048 27.0368 14.0792 27.1289 13.9118 27.1289C13.7277 27.1456 13.6021 27.0536 13.6021 26.928C13.6021 26.8192 13.7277 26.7271 13.8951 26.7271C14.0541 26.7104 14.2048 26.8025 14.2048 26.928ZM13.058 26.8359C13.0246 26.9448 12.8571 26.995 12.7148 26.9448C12.5558 26.9113 12.447 26.7857 12.4805 26.6769C12.514 26.5681 12.6814 26.5179 12.8237 26.5513C12.9911 26.6016 13.0999 26.7271 13.058 26.8359ZM12.0285 26.3839C11.9531 26.476 11.7941 26.4593 11.6685 26.3337C11.543 26.2249 11.5095 26.0658 11.5932 25.9905C11.6685 25.8984 11.8276 25.9152 11.9531 26.0407C12.0619 26.1496 12.1038 26.317 12.0285 26.3839ZM11.2667 25.6222C11.1914 25.6724 11.0491 25.6222 10.957 25.4967C10.865 25.3711 10.865 25.2288 10.957 25.1702C11.0491 25.0949 11.1914 25.1535 11.2667 25.279C11.3588 25.4046 11.3588 25.5552 11.2667 25.6222ZM10.7227 24.8103C10.6473 24.8856 10.5218 24.8438 10.4297 24.76C10.3376 24.6512 10.3209 24.5257 10.3962 24.4671C10.4715 24.3917 10.5971 24.4336 10.6892 24.5173C10.7812 24.6261 10.798 24.7517 10.7227 24.8103ZM10.1618 24.1908C10.1283 24.2662 10.0195 24.2829 9.92745 24.2243C9.81864 24.1741 9.76842 24.082 9.8019 24.0067C9.83538 23.9565 9.92746 23.9314 10.0363 23.9732C10.1451 24.0318 10.1953 24.1239 10.1618 24.1908Z" fill="#558FFF"/>
<path d="M33.4821 0H4.01786C1.79967 0 0 1.79967 0 4.01786V33.4821C0 35.7003 1.79967 37.5 4.01786 37.5H33.4821C35.7003 37.5 37.5 35.7003 37.5 33.4821V4.01786C37.5 1.79967 35.7003 0 33.4821 0ZM23.2115 32.1177C22.5084 32.2433 22.2489 31.808 22.2489 31.4481C22.2489 30.9961 22.2656 28.6858 22.2656 26.8192C22.2656 25.5134 21.8304 24.6847 21.3198 24.2494C24.4169 23.9063 27.6814 23.4794 27.6814 18.1306C27.6814 16.6071 27.1373 15.8454 26.25 14.8661C26.3923 14.5061 26.8694 13.0246 26.1077 11.0993C24.9442 10.7394 22.2824 12.5977 22.2824 12.5977C21.1775 12.2879 19.9805 12.1289 18.8002 12.1289C17.62 12.1289 16.423 12.2879 15.3181 12.5977C15.3181 12.5977 12.6562 10.7394 11.4927 11.0993C10.731 13.0162 11.1998 14.4978 11.3504 14.8661C10.4632 15.8454 10.0446 16.6071 10.0446 18.1306C10.0446 23.4542 13.1669 23.9063 16.264 24.2494C15.8622 24.6094 15.5022 25.2288 15.3767 26.1161C14.5815 26.476 12.5474 27.0954 11.3337 24.9526C10.572 23.63 9.19922 23.5212 9.19922 23.5212C7.84319 23.5045 9.10714 24.375 9.10714 24.375C10.0112 24.7935 10.6473 26.4007 10.6473 26.4007C11.4593 28.8867 15.3432 28.0497 15.3432 28.0497C15.3432 29.2132 15.3599 31.1049 15.3599 31.4481C15.3599 31.808 15.1088 32.2433 14.3973 32.1177C8.87277 30.2679 5.00558 25.0112 5.00558 18.8672C5.00558 11.183 10.8817 5.34877 18.5658 5.34877C26.25 5.34877 32.4777 11.183 32.4777 18.8672C32.486 25.0112 28.736 30.2762 23.2115 32.1177ZM15 27.0033C14.841 27.0368 14.6903 26.9699 14.6735 26.861C14.6568 26.7355 14.7656 26.6267 14.9247 26.5932C15.0837 26.5765 15.2344 26.6434 15.2511 26.7522C15.2762 26.861 15.1674 26.9699 15 27.0033ZM14.2048 26.928C14.2048 27.0368 14.0792 27.1289 13.9118 27.1289C13.7277 27.1456 13.6021 27.0536 13.6021 26.928C13.6021 26.8192 13.7277 26.7271 13.8951 26.7271C14.0541 26.7104 14.2048 26.8025 14.2048 26.928ZM13.058 26.8359C13.0246 26.9448 12.8571 26.995 12.7148 26.9448C12.5558 26.9113 12.447 26.7857 12.4805 26.6769C12.514 26.5681 12.6814 26.5179 12.8237 26.5513C12.9911 26.6016 13.0999 26.7271 13.058 26.8359ZM12.0285 26.3839C11.9531 26.476 11.7941 26.4593 11.6685 26.3337C11.543 26.2249 11.5095 26.0658 11.5932 25.9905C11.6685 25.8984 11.8276 25.9152 11.9531 26.0407C12.0619 26.1496 12.1038 26.317 12.0285 26.3839ZM11.2667 25.6222C11.1914 25.6724 11.0491 25.6222 10.957 25.4967C10.865 25.3711 10.865 25.2288 10.957 25.1702C11.0491 25.0949 11.1914 25.1535 11.2667 25.279C11.3588 25.4046 11.3588 25.5552 11.2667 25.6222ZM10.7227 24.8103C10.6473 24.8856 10.5218 24.8438 10.4297 24.76C10.3376 24.6512 10.3209 24.5257 10.3962 24.4671C10.4715 24.3917 10.5971 24.4336 10.6892 24.5173C10.7812 24.6261 10.798 24.7517 10.7227 24.8103ZM10.1618 24.1908C10.1283 24.2662 10.0195 24.2829 9.92745 24.2243C9.81864 24.1741 9.76842 24.082 9.8019 24.0067C9.83538 23.9565 9.92746 23.9314 10.0363 23.9732C10.1451 24.0318 10.1953 24.1239 10.1618 24.1908Z" fill="url(#paint0_linear_33_1768)" fill-opacity="0.2"/>
<defs>
<linearGradient id="paint0_linear_33_1768" x1="36.887" y1="0.785097" x2="-6.35669" y2="27.0235" gradientUnits="userSpaceOnUse">
<stop stop-color="#FF0000"/>
<stop offset="0.515" stop-color="#BB004F"/>
<stop offset="0.67" stop-color="#2E079C"/>
<stop offset="1"/>
</linearGradient>
</defs>
</svg>
