<svg width="38" height="38" viewBox="0 0 38 38" fill="none" xmlns="http://www.w3.org/2000/svg">
<path d="M34.7336 0.000142008H2.76639C2.04108 -0.00723959 1.34246 0.273414 0.823828 0.78052C0.305197 1.28763 0.0089174 1.97976 0 2.70506V34.8014C0.0105301 35.5256 0.307519 36.2162 0.825974 36.7219C1.34443 37.2277 2.04213 37.5075 2.76639 37.5001H34.7336C35.459 37.5059 36.1571 37.2243 36.6755 36.7169C37.1938 36.2094 37.4903 35.5175 37.5 34.7922V2.69584C37.4871 1.97267 37.1892 1.28383 36.6712 0.779053C36.1532 0.274275 35.4569 -0.00564333 34.7336 0.000142008ZM11.1178 31.9674H5.55123V14.0565H11.1178V31.9674ZM8.35143 11.6159C7.71297 11.6165 7.08867 11.4278 6.55752 11.0735C6.02636 10.7192 5.61221 10.2154 5.36746 9.62569C5.12271 9.036 5.05836 8.38697 5.18254 7.7607C5.30673 7.13443 5.61387 6.55907 6.06511 6.10739C6.51636 5.65572 7.09143 5.34803 7.71758 5.22324C8.34373 5.09846 8.99282 5.1622 9.58274 5.40639C10.1727 5.65057 10.6769 6.06424 11.0317 6.59506C11.3865 7.12588 11.5758 7.75 11.5758 8.38846C11.575 8.81282 11.4905 9.23285 11.3272 9.62451C11.1639 10.0162 10.9249 10.3718 10.624 10.671C10.3231 10.9702 9.96611 11.2071 9.57352 11.3682C9.18092 11.5293 8.76042 11.6114 8.33607 11.6098L8.35143 11.6159ZM31.9672 31.9674H26.4006V23.2532C26.4006 21.1784 26.3637 18.5073 23.5082 18.5073C20.6527 18.5073 20.167 20.7696 20.167 23.118V31.9674H14.6096V14.0565H19.9457V16.5155H20.0195C20.7633 15.1077 22.5768 13.6231 25.2848 13.6231C30.9221 13.6108 31.9672 17.3208 31.9672 22.1313V31.9674Z" fill="#558FFF"/>
<path d="M34.7336 0.000142008H2.76639C2.04108 -0.00723959 1.34246 0.273414 0.823828 0.78052C0.305197 1.28763 0.0089174 1.97976 0 2.70506V34.8014C0.0105301 35.5256 0.307519 36.2162 0.825974 36.7219C1.34443 37.2277 2.04213 37.5075 2.76639 37.5001H34.7336C35.459 37.5059 36.1571 37.2243 36.6755 36.7169C37.1938 36.2094 37.4903 35.5175 37.5 34.7922V2.69584C37.4871 1.97267 37.1892 1.28383 36.6712 0.779053C36.1532 0.274275 35.4569 -0.00564333 34.7336 0.000142008ZM11.1178 31.9674H5.55123V14.0565H11.1178V31.9674ZM8.35143 11.6159C7.71297 11.6165 7.08867 11.4278 6.55752 11.0735C6.02636 10.7192 5.61221 10.2154 5.36746 9.62569C5.12271 9.036 5.05836 8.38697 5.18254 7.7607C5.30673 7.13443 5.61387 6.55907 6.06511 6.10739C6.51636 5.65572 7.09143 5.34803 7.71758 5.22324C8.34373 5.09846 8.99282 5.1622 9.58274 5.40639C10.1727 5.65057 10.6769 6.06424 11.0317 6.59506C11.3865 7.12588 11.5758 7.75 11.5758 8.38846C11.575 8.81282 11.4905 9.23285 11.3272 9.62451C11.1639 10.0162 10.9249 10.3718 10.624 10.671C10.3231 10.9702 9.96611 11.2071 9.57352 11.3682C9.18092 11.5293 8.76042 11.6114 8.33607 11.6098L8.35143 11.6159ZM31.9672 31.9674H26.4006V23.2532C26.4006 21.1784 26.3637 18.5073 23.5082 18.5073C20.6527 18.5073 20.167 20.7696 20.167 23.118V31.9674H14.6096V14.0565H19.9457V16.5155H20.0195C20.7633 15.1077 22.5768 13.6231 25.2848 13.6231C30.9221 13.6108 31.9672 17.3208 31.9672 22.1313V31.9674Z" fill="url(#paint0_linear_33_1770)" fill-opacity="0.2"/>
<defs>
<linearGradient id="paint0_linear_33_1770" x1="36.887" y1="0.785103" x2="-6.35687" y2="27.0234" gradientUnits="userSpaceOnUse">
<stop stop-color="#FF0000"/>
<stop offset="0.515" stop-color="#BB004F"/>
<stop offset="0.67" stop-color="#2E079C"/>
<stop offset="1"/>
</linearGradient>
</defs>
</svg>
