<svg width="151" height="151" viewBox="0 0 151 151" fill="none" xmlns="http://www.w3.org/2000/svg">
<rect x="0.75" y="0.875" width="150" height="150" rx="6" fill="#558FFF"/>
<rect x="0.75" y="0.875" width="150" height="150" rx="6" fill="url(#paint0_linear_33_1888)" fill-opacity="0.2"/>
<g clip-path="url(#clip0_33_1888)">
<path d="M96.4555 38.6812C96.3382 38.6799 96.2226 38.7096 96.1203 38.7671C96.0138 38.8297 95.9249 38.9184 95.8623 39.0249C95.7996 39.1313 95.7651 39.252 95.7621 39.3755V57.4552C95.7603 57.5442 95.7363 57.6313 95.6923 57.7087C95.6482 57.7861 95.5856 57.8513 95.51 57.8983C95.4336 57.9393 95.3483 57.9607 95.2617 57.9607C95.175 57.9607 95.0897 57.9393 95.0134 57.8983L92.0851 56.205C91.8701 56.0822 91.6269 56.0176 91.3793 56.0176C91.1317 56.0176 90.8885 56.0822 90.6735 56.205L78.9566 63.0185C78.7395 63.1407 78.5585 63.3182 78.432 63.5328C78.3056 63.7475 78.2381 63.9918 78.2365 64.241V77.8394C78.2365 78.3399 78.5144 78.8145 78.9566 79.0648L90.6754 85.8792C90.8901 86.0017 91.1331 86.0661 91.3802 86.0661C91.6274 86.0661 91.8704 86.0017 92.0851 85.8792L103.804 79.0648C104.246 78.8145 104.524 78.3399 104.524 77.8394V43.9379C104.524 43.4098 104.246 42.9351 103.804 42.6868L96.8127 38.7671C96.7019 38.7113 96.5796 38.6818 96.4555 38.6812ZM27.3213 55.6491C27.1016 55.6491 26.881 55.7312 26.688 55.8401L14.9692 62.6298C14.749 62.7551 14.5662 62.937 14.4398 63.1566C14.3133 63.3762 14.2478 63.6256 14.2501 63.879L14.2787 82.122C14.2787 82.3732 14.4143 82.6243 14.6359 82.7361C14.7387 82.8037 14.8591 82.8397 14.9821 82.8397C15.1052 82.8397 15.2255 82.8037 15.3283 82.7361L22.2956 78.7314C22.5123 78.6086 22.6927 78.4306 22.8185 78.2156C22.9443 78.0006 23.011 77.7561 23.0119 77.507V68.9696C23.0119 68.4691 23.2889 67.9944 23.7321 67.7442L26.688 66.0203C26.9043 65.889 27.1533 65.8218 27.4063 65.8264C27.6546 65.8264 27.9048 65.8809 28.0987 66.0203L31.0556 67.7442C31.4978 67.9944 31.7757 68.4691 31.7757 68.9696V77.508C31.7757 78.0065 32.0508 78.4822 32.492 78.7305L39.403 82.7361C39.5103 82.8044 39.6349 82.8407 39.7621 82.8407C39.8893 82.8407 40.0139 82.8044 40.1212 82.7361C40.2315 82.6763 40.3234 82.5875 40.3869 82.4792C40.4504 82.371 40.483 82.2474 40.4813 82.122V63.879C40.4813 63.3786 40.2043 62.9048 39.7611 62.6537L28.07 55.8401C27.8731 55.7356 27.6577 55.6704 27.4359 55.6482L27.3213 55.6491ZM123.469 55.8468V55.8487L123.467 55.8506C123.225 55.8506 122.985 55.9127 122.763 56.0388L111.043 62.8485C110.601 63.1006 110.327 63.5734 110.327 64.0748V77.6751C110.327 78.1756 110.601 78.6493 111.043 78.8986L122.679 85.5736C122.889 85.6967 123.127 85.7616 123.371 85.7616C123.614 85.7616 123.852 85.6967 124.062 85.5736L131.111 81.6263C131.221 81.5663 131.312 81.4773 131.375 81.3691C131.438 81.2609 131.471 81.1374 131.469 81.0122C131.47 80.8874 131.437 80.7645 131.374 80.6569C131.311 80.5492 131.22 80.4607 131.111 80.4009L119.337 73.5855C119.23 73.5223 119.14 73.4323 119.077 73.3244C119.015 73.2165 118.981 73.0943 118.979 72.9694V68.7146C118.978 68.5901 119.011 68.4677 119.074 68.3604C119.137 68.2531 119.228 68.1649 119.337 68.1052L123.018 65.9916C123.125 65.9233 123.25 65.887 123.377 65.887C123.504 65.887 123.629 65.9233 123.736 65.9916L127.409 68.1052C127.516 68.1676 127.605 68.2564 127.668 68.363C127.731 68.4697 127.766 68.5907 127.769 68.7146V72.0516C127.769 72.3028 127.906 72.553 128.127 72.6638C128.234 72.7325 128.359 72.7691 128.487 72.7691C128.615 72.7691 128.739 72.7325 128.847 72.6638L135.81 68.5761C136.024 68.4521 136.201 68.2736 136.323 68.0588C136.445 67.844 136.508 67.6006 136.505 67.3536V64.0442C136.505 63.5438 136.226 63.071 135.81 62.8198L124.177 56.0378C123.962 55.9137 123.718 55.8475 123.47 55.8459L123.469 55.8468ZM59.4377 55.8936C59.2092 55.8953 58.9849 55.9554 58.7863 56.0684L47.163 62.8179L51.2297 70.2771L59.5752 55.907C59.5298 55.9012 59.4843 55.8971 59.4386 55.8946H59.4367L59.4377 55.8936ZM59.9782 56.035L68.1986 70.1835L72.0619 63.0729C71.9905 62.9993 71.9103 62.9348 71.8231 62.881L65.8338 59.4016L60.068 56.0703C60.0387 56.0576 60.0088 56.0458 59.9782 56.035ZM59.7395 56.0923L51.3596 70.5178L59.6707 85.7656L59.7395 85.7522L68.0668 70.4261L59.7385 56.0932L59.7395 56.0923ZM46.9634 62.9421C46.7912 63.0625 46.6511 63.2232 46.5553 63.4101C46.4594 63.597 46.4106 63.8046 46.4133 64.0146V77.6732C46.4133 77.891 46.4725 78.103 46.5737 78.2911L51.0893 70.5139L46.9634 62.9421ZM72.2252 63.2687L68.3371 70.4223L72.4611 77.5223V64.0146C72.4611 63.7472 72.3732 63.4865 72.2242 63.2697L72.2252 63.2687ZM91.3802 66.005C91.4433 66.005 91.5038 66.0193 91.5617 66.048L95.5664 68.386C95.6771 68.4414 95.7335 68.578 95.7335 68.6897V73.3629C95.7335 73.5024 95.6762 73.6151 95.5664 73.6705L91.5588 76.0056C91.5028 76.033 91.4412 76.0472 91.3788 76.0472C91.3164 76.0472 91.2549 76.033 91.1988 76.0056L87.1922 73.6724C87.0814 73.617 87.0241 73.4766 87.0241 73.3649V68.6917C87.0241 68.5522 87.0824 68.4424 87.1922 68.386L91.1988 66.048C91.2548 66.0189 91.3171 66.0041 91.3802 66.005ZM123.428 67.8961C123.378 67.8966 123.33 67.9119 123.289 67.94L121.049 69.2475C121.007 69.2736 120.972 69.3102 120.948 69.3538C120.924 69.3973 120.912 69.4462 120.913 69.4958V72.1127C120.913 72.2235 120.966 72.3076 121.049 72.363L123.289 73.6705C123.33 73.6978 123.378 73.7124 123.427 73.7124C123.477 73.7124 123.525 73.6978 123.565 73.6705L125.804 72.362C125.846 72.3354 125.881 72.2986 125.905 72.255C125.929 72.2114 125.942 72.1625 125.942 72.1127V69.4977C125.942 69.448 125.93 69.3989 125.906 69.3554C125.882 69.3118 125.847 69.2753 125.804 69.2494L123.565 67.94C123.525 67.9131 123.477 67.8988 123.428 67.8989V67.8961ZM68.2062 70.6658L60.0766 85.6271L60.09 85.6204L71.825 78.804C72.1526 78.6187 72.3627 78.3017 72.4334 77.9416L68.2062 70.6658ZM51.2221 70.7565L46.7189 78.5089C46.8144 78.6264 46.9261 78.7286 47.0532 78.805L58.6612 85.5497L58.7853 85.6214H58.7882C58.8787 85.6725 58.9749 85.7129 59.0747 85.7417C59.1047 85.75 59.1339 85.757 59.1626 85.7627C59.2193 85.7755 59.2759 85.784 59.3326 85.7885C59.36 85.7904 59.3874 85.7911 59.4147 85.7904L51.2221 70.7565ZM74.631 83.5479C74.2232 83.5479 73.8164 83.6434 73.4706 83.8382L62.4395 90.2659C62.0856 90.4734 61.7921 90.7699 61.5884 91.1259C61.3846 91.482 61.2776 91.8852 61.2781 92.2955V105.113C61.2781 105.947 61.7203 106.726 62.4385 107.144L65.3429 108.812C66.7516 109.507 67.2483 109.503 67.8834 109.503C69.9559 109.503 71.146 108.225 71.146 106.029V93.3804C71.145 93.2927 71.1102 93.2087 71.0488 93.1461C70.9874 93.0834 70.9041 93.0469 70.8165 93.0442H69.4077C69.3189 93.0452 69.2339 93.081 69.1711 93.1438C69.1083 93.2066 69.0725 93.2916 69.0715 93.3804V106.033C69.0715 107.007 68.0534 107.981 66.4231 107.147L63.4089 105.395C63.2981 105.34 63.2427 105.198 63.2427 105.087V92.2649C63.2427 92.1541 63.2981 92.0137 63.4089 91.9593L74.4353 85.5641C74.5183 85.5087 74.6568 85.5087 74.7695 85.5641L85.795 91.9583C85.9048 92.0156 85.963 92.1264 85.963 92.2639V105.085C85.963 105.223 85.9057 105.338 85.795 105.393L74.7667 111.817C74.6836 111.873 74.5451 111.873 74.4324 111.817L71.6159 110.12C71.5318 110.065 71.421 110.038 71.3389 110.091C70.5653 110.538 70.4287 110.596 69.6818 110.846C69.5156 110.901 69.2396 111.01 69.7917 111.316L73.4706 113.515C73.8297 113.709 74.2156 113.819 74.631 113.819C75.0456 113.819 75.4581 113.709 75.7896 113.571L86.8169 107.147C87.1713 106.939 87.465 106.642 87.6686 106.285C87.8723 105.928 87.9787 105.524 87.9773 105.113V92.2955C87.9773 91.4607 87.5351 90.6852 86.8169 90.2678L75.7896 83.8401C75.4343 83.6465 75.0357 83.5453 74.631 83.5479ZM91.8482 89.4016C91.282 89.4038 90.7399 89.6309 90.341 90.0328C89.9422 90.4347 89.7192 90.9785 89.7213 91.5448C89.7198 92.1107 89.9429 92.654 90.3417 93.0555C90.7405 93.457 91.2823 93.6838 91.8482 93.686C93.0106 93.686 93.9781 92.7119 93.9781 91.5448C93.9753 90.9796 93.7505 90.4382 93.352 90.0374C92.9535 89.6366 92.4134 89.4085 91.8482 89.4025V89.4016ZM91.8196 89.7607H91.8224C92.0582 89.7578 92.2922 89.8018 92.5108 89.8903C92.7294 89.9787 92.9281 90.1098 93.0955 90.2758C93.2629 90.4419 93.3956 90.6396 93.4858 90.8575C93.576 91.0753 93.6219 91.309 93.6209 91.5448C93.6209 92.5189 92.8176 93.3499 91.8224 93.3499C90.8559 93.3499 90.0517 92.5457 90.0517 91.5448C90.0517 90.5438 90.8817 89.7626 91.8196 89.7607ZM91.046 90.3471V92.7921H91.5178V91.8246H91.9361C92.1023 91.8246 92.1558 91.88 92.1844 92.0185C92.1844 92.0471 92.2666 92.6574 92.2666 92.7682H92.7632C92.7059 92.6574 92.6801 92.3212 92.6524 92.1264C92.6257 91.8208 92.5989 91.6002 92.2666 91.5725C92.4327 91.5161 92.7059 91.434 92.7059 90.9889C92.7059 90.349 92.1519 90.349 91.8759 90.349L91.046 90.3471ZM91.4643 90.7368H91.8482C91.9877 90.7368 92.2102 90.7368 92.2102 91.071C92.2102 91.1818 92.1539 91.4053 91.8482 91.4053H91.4643V90.7368ZM77.6453 92.6565C74.4935 92.6565 72.6101 93.9926 72.6101 96.2457C72.6101 98.6658 74.4906 99.3287 77.5039 99.6343C81.1237 99.9972 81.4006 100.527 81.4006 101.25C81.4006 102.501 80.4054 103.028 78.0836 103.028C75.1535 103.028 74.5164 102.305 74.2949 100.832C74.2949 100.664 74.1611 100.555 73.995 100.555H72.5576C72.4689 100.555 72.3839 100.59 72.3212 100.653C72.2585 100.716 72.2233 100.801 72.2233 100.889C72.2233 102.78 73.2204 105.003 78.0588 105.003C81.5401 105.003 83.5553 103.612 83.5553 101.163C83.5553 98.7728 81.9508 98.1319 78.5526 97.6869C75.1239 97.2418 74.7657 96.9916 74.7657 96.1855C74.7657 95.5179 75.0713 94.6297 77.6118 94.6297C79.8801 94.6297 80.7369 95.1301 81.0692 96.6592C81.085 96.7285 81.1231 96.7906 81.1776 96.8362C81.2321 96.8817 81.3001 96.9081 81.371 96.9114H82.8361C82.9192 96.9114 83.0052 96.8569 83.0615 96.8015C83.1121 96.7269 83.1406 96.6395 83.1437 96.5494C82.923 93.8799 81.1838 92.6565 77.6453 92.6565Z" fill="black"/>
</g>
<defs>
<linearGradient id="paint0_linear_33_1888" x1="148.298" y1="4.01539" x2="-24.6768" y2="108.969" gradientUnits="userSpaceOnUse">
<stop stop-color="#FF0000"/>
<stop offset="0.515" stop-color="#BB004F"/>
<stop offset="0.67" stop-color="#2E079C"/>
<stop offset="1"/>
</linearGradient>
<clipPath id="clip0_33_1888">
<rect width="122.25" height="122.25" fill="white" transform="translate(14.25 15.125)"/>
</clipPath>
</defs>
</svg>
