<svg width="161" height="84" viewBox="0 0 161 84" fill="none" xmlns="http://www.w3.org/2000/svg">
<path d="M65.7463 82V42.5599C65.7463 39.4666 65.1866 33.5067 66.6799 31C67.5735 29.5 69.0668 28.4933 71.6801 27C74.2934 25.5067 79.6663 25.9999 82.8663 25.9999H103.746V37.2H84.5463C83.0529 37.2 81.7729 37.7333 80.7063 38.8C79.6929 39.8666 79.1863 41.1733 79.1863 42.7199V50.8H101.026V61.92H79.1863V82H65.7463Z" fill="#558FFF"/>
<path d="M65.7463 82V42.5599C65.7463 39.4666 65.1866 33.5067 66.6799 31C67.5735 29.5 69.0668 28.4933 71.6801 27C74.2934 25.5067 79.6663 25.9999 82.8663 25.9999H103.746V37.2H84.5463C83.0529 37.2 81.7729 37.7333 80.7063 38.8C79.6929 39.8666 79.1863 41.1733 79.1863 42.7199V50.8H101.026V61.92H79.1863V82H65.7463Z" fill="url(#paint0_linear_33_1812)" fill-opacity="0.2"/>
<path d="M29.68 83.04C25.2 83.04 21.1467 82.2933 17.52 80.8C13.8933 79.3066 10.7733 77.2266 8.16 74.56C5.54667 71.8933 3.52 68.8 2.08 65.28C0.693333 61.76 0 57.9733 0 53.92C0 49.8666 0.693333 46.08 2.08 42.56C3.52 39.04 5.52 35.9733 8.08 33.36C10.6933 30.6933 13.8133 28.64 17.44 27.2C21.12 25.7066 25.2 24.96 29.68 24.96C34.1067 24.96 38.1333 25.7066 41.76 27.2C45.44 28.64 48.56 30.6933 51.12 33.36C53.7333 35.9733 55.76 39.0666 57.2 42.64C58.64 46.16 59.36 49.92 59.36 53.92C59.36 57.9733 58.64 61.76 57.2 65.28C55.76 68.8 53.7333 71.8933 51.12 74.56C48.56 77.2266 45.44 79.3066 41.76 80.8C38.1333 82.2933 34.1067 83.04 29.68 83.04ZM29.68 71.6C32.0267 71.6 34.1867 71.1733 36.16 70.32C38.1867 69.4133 39.92 68.16 41.36 66.56C42.8 64.96 43.92 63.0933 44.72 60.96C45.52 58.7733 45.92 56.4266 45.92 53.92C45.92 51.4133 45.52 49.0933 44.72 46.96C43.92 44.8266 42.8 42.96 41.36 41.36C39.92 39.76 38.1867 38.5333 36.16 37.68C34.1867 36.7733 32.0267 36.32 29.68 36.32C27.28 36.32 25.0933 36.7733 23.12 37.68C21.1467 38.5333 19.4133 39.76 17.92 41.36C16.48 42.96 15.36 44.8533 14.56 47.04C13.8133 49.1733 13.44 51.4666 13.44 53.92C13.44 56.4266 13.8133 58.7733 14.56 60.96C15.36 63.0933 16.48 64.96 17.92 66.56C19.4133 68.16 21.1467 69.4133 23.12 70.32C25.0933 71.1733 27.28 71.6 29.68 71.6Z" fill="#558FFF"/>
<path d="M29.68 83.04C25.2 83.04 21.1467 82.2933 17.52 80.8C13.8933 79.3066 10.7733 77.2266 8.16 74.56C5.54667 71.8933 3.52 68.8 2.08 65.28C0.693333 61.76 0 57.9733 0 53.92C0 49.8666 0.693333 46.08 2.08 42.56C3.52 39.04 5.52 35.9733 8.08 33.36C10.6933 30.6933 13.8133 28.64 17.44 27.2C21.12 25.7066 25.2 24.96 29.68 24.96C34.1067 24.96 38.1333 25.7066 41.76 27.2C45.44 28.64 48.56 30.6933 51.12 33.36C53.7333 35.9733 55.76 39.0666 57.2 42.64C58.64 46.16 59.36 49.92 59.36 53.92C59.36 57.9733 58.64 61.76 57.2 65.28C55.76 68.8 53.7333 71.8933 51.12 74.56C48.56 77.2266 45.44 79.3066 41.76 80.8C38.1333 82.2933 34.1067 83.04 29.68 83.04ZM29.68 71.6C32.0267 71.6 34.1867 71.1733 36.16 70.32C38.1867 69.4133 39.92 68.16 41.36 66.56C42.8 64.96 43.92 63.0933 44.72 60.96C45.52 58.7733 45.92 56.4266 45.92 53.92C45.92 51.4133 45.52 49.0933 44.72 46.96C43.92 44.8266 42.8 42.96 41.36 41.36C39.92 39.76 38.1867 38.5333 36.16 37.68C34.1867 36.7733 32.0267 36.32 29.68 36.32C27.28 36.32 25.0933 36.7733 23.12 37.68C21.1467 38.5333 19.4133 39.76 17.92 41.36C16.48 42.96 15.36 44.8533 14.56 47.04C13.8133 49.1733 13.44 51.4666 13.44 53.92C13.44 56.4266 13.8133 58.7733 14.56 60.96C15.36 63.0933 16.48 64.96 17.92 66.56C19.4133 68.16 21.1467 69.4133 23.12 70.32C25.0933 71.1733 27.28 71.6 29.68 71.6Z" fill="url(#paint1_linear_33_1812)" fill-opacity="0.2"/>
<path fill-rule="evenodd" clip-rule="evenodd" d="M117.805 77.2656C121.373 77.2656 123.781 77.3438 125.031 77.5V44.3359L131.543 60H144.68V59H144.63L146.68 54.5L150.617 42.5V77.5C151.867 77.3438 154.276 77.2656 157.844 77.2656H160.969V30.4785C160.969 27.5944 158.534 25.2977 155.65 25.3109C155.421 25.312 155.189 25.3125 154.953 25.3125C152.61 25.3125 151.021 25.2083 150.188 25L137.571 47.3047L124.446 25C123.612 25.2083 122.193 25.3125 120.188 25.3125C118.183 25.3125 116.347 25.2604 114.68 25.1562V77.2656H117.805Z" fill="#558FFF"/>
<path fill-rule="evenodd" clip-rule="evenodd" d="M117.805 77.2656C121.373 77.2656 123.781 77.3438 125.031 77.5V44.3359L131.543 60H144.68V59H144.63L146.68 54.5L150.617 42.5V77.5C151.867 77.3438 154.276 77.2656 157.844 77.2656H160.969V30.4785C160.969 27.5944 158.534 25.2977 155.65 25.3109C155.421 25.312 155.189 25.3125 154.953 25.3125C152.61 25.3125 151.021 25.2083 150.188 25L137.571 47.3047L124.446 25C123.612 25.2083 122.193 25.3125 120.188 25.3125C118.183 25.3125 116.347 25.2604 114.68 25.1562V77.2656H117.805Z" fill="url(#paint2_linear_33_1812)" fill-opacity="0.2"/>
<path d="M81.9924 15.3203C80.3466 15.3203 79.0888 14.8724 78.219 13.9766C77.0523 12.8776 76.469 11.2943 76.469 9.22656C76.469 7.11719 77.0523 5.53385 78.219 4.47656C79.0888 3.58073 80.3466 3.13281 81.9924 3.13281C83.6383 3.13281 84.8961 3.58073 85.7659 4.47656C86.9273 5.53385 87.5081 7.11719 87.5081 9.22656C87.5081 11.2943 86.9273 12.8776 85.7659 13.9766C84.8961 14.8724 83.6383 15.3203 81.9924 15.3203ZM84.2659 12.2266C84.8232 11.5234 85.1018 10.5234 85.1018 9.22656C85.1018 7.9349 84.8206 6.9375 84.2581 6.23438C83.7008 5.52604 82.9456 5.17188 81.9924 5.17188C81.0393 5.17188 80.2789 5.52344 79.7112 6.22656C79.1435 6.92969 78.8596 7.92969 78.8596 9.22656C78.8596 10.5234 79.1435 11.5234 79.7112 12.2266C80.2789 12.9297 81.0393 13.2812 81.9924 13.2812C82.9456 13.2812 83.7034 12.9297 84.2659 12.2266ZM93.4843 3.41406V5.22656C93.3593 5.21094 93.1484 5.20052 92.8515 5.19531C92.5598 5.1849 92.3567 5.25 92.2421 5.39062C92.1327 5.52604 92.0781 5.67708 92.0781 5.84375V6.5625H93.539V8.13281H92.0781V15H89.8593V8.13281H88.6171V6.5625H89.8359V6.01562C89.8359 5.10417 89.9895 4.47656 90.2968 4.13281C90.6197 3.6224 91.3984 3.36719 92.6327 3.36719C92.7734 3.36719 92.901 3.3724 93.0156 3.38281C93.1301 3.38802 93.2864 3.39844 93.4843 3.41406ZM97.7809 15H95.5621V8.13281H94.3199V6.5625H95.5387V6.01562C95.5387 5.10938 95.7392 4.4349 96.1402 3.99219C96.4996 3.57552 97.2314 3.36719 98.3356 3.36719C98.471 3.36719 98.609 3.3724 98.7496 3.38281C98.8902 3.39323 99.0361 3.40365 99.1871 3.41406V5.22656C99.083 5.22135 98.9814 5.21875 98.8824 5.21875C98.7835 5.21354 98.6637 5.21094 98.5231 5.21094C98.1741 5.21094 97.9606 5.30729 97.8824 5.5C97.8043 5.69271 97.7705 5.99479 97.7809 6.40625V6.5625H99.2418V8.13281H97.7809V15ZM102.781 6.52344V15H100.562V6.52344H102.781ZM100.562 5.44531V3.41406H102.742V5.44531H100.562ZM112.609 9.53906H110.327C110.286 9.22135 110.179 8.9349 110.007 8.67969C109.757 8.33594 109.369 8.16406 108.843 8.16406C108.093 8.16406 107.58 8.53646 107.304 9.28125C107.158 9.67708 107.085 10.2031 107.085 10.8594C107.085 11.4844 107.158 11.987 107.304 12.3672C107.57 13.0755 108.07 13.4297 108.804 13.4297C109.325 13.4297 109.695 13.2891 109.913 13.0078C110.132 12.7266 110.265 12.362 110.312 11.9141H112.585C112.533 12.5911 112.288 13.2318 111.851 13.8359C111.153 14.8099 110.119 15.2969 108.749 15.2969C107.38 15.2969 106.372 14.8906 105.726 14.0781C105.08 13.2656 104.757 12.2109 104.757 10.9141C104.757 9.45052 105.114 8.3125 105.827 7.5C106.541 6.6875 107.525 6.28125 108.781 6.28125C109.848 6.28125 110.721 6.52083 111.398 7C112.08 7.47917 112.484 8.32552 112.609 9.53906ZM121.757 12.5C121.7 13.0052 121.436 13.5182 120.968 14.0391C120.239 14.8672 119.218 15.2812 117.905 15.2812C116.822 15.2812 115.866 14.9323 115.038 14.2344C114.21 13.5365 113.796 12.401 113.796 10.8281C113.796 9.35417 114.168 8.22396 114.913 7.4375C115.663 6.65104 116.634 6.25781 117.827 6.25781C118.535 6.25781 119.173 6.39062 119.741 6.65625C120.309 6.92188 120.778 7.34115 121.147 7.91406C121.481 8.41927 121.697 9.00521 121.796 9.67188C121.853 10.0625 121.877 10.625 121.866 11.3594H116.038C116.069 12.2135 116.338 12.8125 116.843 13.1562C117.15 13.3698 117.52 13.4766 117.952 13.4766C118.41 13.4766 118.783 13.3464 119.069 13.0859C119.226 12.9453 119.364 12.75 119.483 12.5H121.757ZM119.554 9.89062C119.517 9.30208 119.338 8.85677 119.015 8.55469C118.697 8.2474 118.301 8.09375 117.827 8.09375C117.311 8.09375 116.91 8.25521 116.624 8.57812C116.343 8.90104 116.166 9.33854 116.093 9.89062H119.554ZM130.561 15H128.225L128.108 5.33594C128.066 5.55469 128.004 5.86719 127.921 6.27344C127.842 6.67448 127.777 6.98698 127.725 7.21094L126.077 15H123.835L126.28 3.48438H129.78L129.944 12.5391L133.952 3.48438H137.413L134.967 15H132.725L134.374 7.21094C134.426 6.98698 134.496 6.67448 134.585 6.27344C134.678 5.86719 134.746 5.55469 134.788 5.33594L130.561 15ZM141.78 9.82031C142.207 9.76823 142.517 9.70312 142.709 9.625C143.053 9.48958 143.256 9.27865 143.319 8.99219C143.392 8.64323 143.321 8.40365 143.108 8.27344C142.894 8.13802 142.553 8.07031 142.084 8.07031C141.558 8.07031 141.157 8.20052 140.881 8.46094C140.688 8.65365 140.53 8.91406 140.405 9.24219H138.256C138.465 8.4974 138.803 7.88542 139.272 7.40625C140.022 6.65625 141.113 6.28125 142.545 6.28125C143.478 6.28125 144.267 6.46615 144.912 6.83594C145.558 7.20573 145.772 7.90365 145.553 8.92969L144.717 12.8359C144.66 13.1068 144.597 13.4349 144.53 13.8203C144.483 14.112 144.483 14.3099 144.53 14.4141C144.582 14.5182 144.673 14.6042 144.803 14.6719L144.741 15H142.319C142.287 14.8281 142.274 14.6667 142.28 14.5156C142.285 14.3646 142.3 14.1927 142.326 14C141.946 14.3333 141.532 14.6172 141.084 14.8516C140.543 15.1276 139.97 15.2656 139.366 15.2656C138.595 15.2656 138.004 15.0469 137.592 14.6094C137.186 14.1667 137.069 13.5417 137.241 12.7344C137.465 11.6875 138.03 10.9297 138.936 10.4609C139.431 10.2057 140.121 10.0234 141.006 9.91406L141.78 9.82031ZM141.819 11.2266L141.303 11.3203C140.813 11.4036 140.454 11.5052 140.225 11.625C139.84 11.8281 139.603 12.1432 139.514 12.5703C139.431 12.9505 139.475 13.2266 139.647 13.3984C139.824 13.5651 140.063 13.6484 140.366 13.6484C140.845 13.6484 141.316 13.5078 141.78 13.2266C142.243 12.9453 142.563 12.4323 142.741 11.6875L142.912 10.8594C142.756 10.9479 142.6 11.0208 142.444 11.0781C142.287 11.1302 142.079 11.1797 141.819 11.2266ZM149.576 12.6484C149.503 12.9974 149.501 13.2161 149.568 13.3047C149.641 13.388 149.904 13.4297 150.357 13.4297C150.425 13.4297 150.495 13.4297 150.568 13.4297C150.646 13.4245 150.725 13.4193 150.803 13.4141L150.443 15.0781L149.381 15.1172C148.324 15.1536 147.644 14.9714 147.342 14.5703C147.149 14.3151 147.107 13.9219 147.217 13.3906L148.334 8.14844H147.146L147.482 6.5625H148.67L149.178 4.1875H151.381L150.873 6.5625H152.256L151.92 8.14844H150.537L149.576 12.6484ZM157.224 13.0859C157.407 12.9453 157.586 12.75 157.763 12.5H160.037C159.87 13.0052 159.498 13.5182 158.92 14.0391C158.013 14.8672 156.904 15.2812 155.591 15.2812C154.508 15.2812 153.625 14.9323 152.943 14.2344C152.266 13.5365 152.094 12.401 152.427 10.8281C152.74 9.35417 153.352 8.22396 154.263 7.4375C155.18 6.65104 156.235 6.25781 157.427 6.25781C158.136 6.25781 158.745 6.39062 159.256 6.65625C159.771 6.92188 160.151 7.34115 160.396 7.91406C160.625 8.41927 160.716 9.00521 160.67 9.67188C160.649 10.0625 160.555 10.625 160.388 11.3594H154.56C154.409 12.2135 154.55 12.8125 154.982 13.1562C155.243 13.3698 155.589 13.4766 156.021 13.4766C156.48 13.4766 156.881 13.3464 157.224 13.0859ZM157.037 8.09375C156.521 8.09375 156.086 8.25521 155.732 8.57812C155.383 8.90104 155.115 9.33854 154.927 9.89062H158.388C158.477 9.30208 158.391 8.85677 158.131 8.55469C157.875 8.2474 157.511 8.09375 157.037 8.09375Z" fill="#558FFF"/>
<path d="M81.9924 15.3203C80.3466 15.3203 79.0888 14.8724 78.219 13.9766C77.0523 12.8776 76.469 11.2943 76.469 9.22656C76.469 7.11719 77.0523 5.53385 78.219 4.47656C79.0888 3.58073 80.3466 3.13281 81.9924 3.13281C83.6383 3.13281 84.8961 3.58073 85.7659 4.47656C86.9273 5.53385 87.5081 7.11719 87.5081 9.22656C87.5081 11.2943 86.9273 12.8776 85.7659 13.9766C84.8961 14.8724 83.6383 15.3203 81.9924 15.3203ZM84.2659 12.2266C84.8232 11.5234 85.1018 10.5234 85.1018 9.22656C85.1018 7.9349 84.8206 6.9375 84.2581 6.23438C83.7008 5.52604 82.9456 5.17188 81.9924 5.17188C81.0393 5.17188 80.2789 5.52344 79.7112 6.22656C79.1435 6.92969 78.8596 7.92969 78.8596 9.22656C78.8596 10.5234 79.1435 11.5234 79.7112 12.2266C80.2789 12.9297 81.0393 13.2812 81.9924 13.2812C82.9456 13.2812 83.7034 12.9297 84.2659 12.2266ZM93.4843 3.41406V5.22656C93.3593 5.21094 93.1484 5.20052 92.8515 5.19531C92.5598 5.1849 92.3567 5.25 92.2421 5.39062C92.1327 5.52604 92.0781 5.67708 92.0781 5.84375V6.5625H93.539V8.13281H92.0781V15H89.8593V8.13281H88.6171V6.5625H89.8359V6.01562C89.8359 5.10417 89.9895 4.47656 90.2968 4.13281C90.6197 3.6224 91.3984 3.36719 92.6327 3.36719C92.7734 3.36719 92.901 3.3724 93.0156 3.38281C93.1301 3.38802 93.2864 3.39844 93.4843 3.41406ZM97.7809 15H95.5621V8.13281H94.3199V6.5625H95.5387V6.01562C95.5387 5.10938 95.7392 4.4349 96.1402 3.99219C96.4996 3.57552 97.2314 3.36719 98.3356 3.36719C98.471 3.36719 98.609 3.3724 98.7496 3.38281C98.8902 3.39323 99.0361 3.40365 99.1871 3.41406V5.22656C99.083 5.22135 98.9814 5.21875 98.8824 5.21875C98.7835 5.21354 98.6637 5.21094 98.5231 5.21094C98.1741 5.21094 97.9606 5.30729 97.8824 5.5C97.8043 5.69271 97.7705 5.99479 97.7809 6.40625V6.5625H99.2418V8.13281H97.7809V15ZM102.781 6.52344V15H100.562V6.52344H102.781ZM100.562 5.44531V3.41406H102.742V5.44531H100.562ZM112.609 9.53906H110.327C110.286 9.22135 110.179 8.9349 110.007 8.67969C109.757 8.33594 109.369 8.16406 108.843 8.16406C108.093 8.16406 107.58 8.53646 107.304 9.28125C107.158 9.67708 107.085 10.2031 107.085 10.8594C107.085 11.4844 107.158 11.987 107.304 12.3672C107.57 13.0755 108.07 13.4297 108.804 13.4297C109.325 13.4297 109.695 13.2891 109.913 13.0078C110.132 12.7266 110.265 12.362 110.312 11.9141H112.585C112.533 12.5911 112.288 13.2318 111.851 13.8359C111.153 14.8099 110.119 15.2969 108.749 15.2969C107.38 15.2969 106.372 14.8906 105.726 14.0781C105.08 13.2656 104.757 12.2109 104.757 10.9141C104.757 9.45052 105.114 8.3125 105.827 7.5C106.541 6.6875 107.525 6.28125 108.781 6.28125C109.848 6.28125 110.721 6.52083 111.398 7C112.08 7.47917 112.484 8.32552 112.609 9.53906ZM121.757 12.5C121.7 13.0052 121.436 13.5182 120.968 14.0391C120.239 14.8672 119.218 15.2812 117.905 15.2812C116.822 15.2812 115.866 14.9323 115.038 14.2344C114.21 13.5365 113.796 12.401 113.796 10.8281C113.796 9.35417 114.168 8.22396 114.913 7.4375C115.663 6.65104 116.634 6.25781 117.827 6.25781C118.535 6.25781 119.173 6.39062 119.741 6.65625C120.309 6.92188 120.778 7.34115 121.147 7.91406C121.481 8.41927 121.697 9.00521 121.796 9.67188C121.853 10.0625 121.877 10.625 121.866 11.3594H116.038C116.069 12.2135 116.338 12.8125 116.843 13.1562C117.15 13.3698 117.52 13.4766 117.952 13.4766C118.41 13.4766 118.783 13.3464 119.069 13.0859C119.226 12.9453 119.364 12.75 119.483 12.5H121.757ZM119.554 9.89062C119.517 9.30208 119.338 8.85677 119.015 8.55469C118.697 8.2474 118.301 8.09375 117.827 8.09375C117.311 8.09375 116.91 8.25521 116.624 8.57812C116.343 8.90104 116.166 9.33854 116.093 9.89062H119.554ZM130.561 15H128.225L128.108 5.33594C128.066 5.55469 128.004 5.86719 127.921 6.27344C127.842 6.67448 127.777 6.98698 127.725 7.21094L126.077 15H123.835L126.28 3.48438H129.78L129.944 12.5391L133.952 3.48438H137.413L134.967 15H132.725L134.374 7.21094C134.426 6.98698 134.496 6.67448 134.585 6.27344C134.678 5.86719 134.746 5.55469 134.788 5.33594L130.561 15ZM141.78 9.82031C142.207 9.76823 142.517 9.70312 142.709 9.625C143.053 9.48958 143.256 9.27865 143.319 8.99219C143.392 8.64323 143.321 8.40365 143.108 8.27344C142.894 8.13802 142.553 8.07031 142.084 8.07031C141.558 8.07031 141.157 8.20052 140.881 8.46094C140.688 8.65365 140.53 8.91406 140.405 9.24219H138.256C138.465 8.4974 138.803 7.88542 139.272 7.40625C140.022 6.65625 141.113 6.28125 142.545 6.28125C143.478 6.28125 144.267 6.46615 144.912 6.83594C145.558 7.20573 145.772 7.90365 145.553 8.92969L144.717 12.8359C144.66 13.1068 144.597 13.4349 144.53 13.8203C144.483 14.112 144.483 14.3099 144.53 14.4141C144.582 14.5182 144.673 14.6042 144.803 14.6719L144.741 15H142.319C142.287 14.8281 142.274 14.6667 142.28 14.5156C142.285 14.3646 142.3 14.1927 142.326 14C141.946 14.3333 141.532 14.6172 141.084 14.8516C140.543 15.1276 139.97 15.2656 139.366 15.2656C138.595 15.2656 138.004 15.0469 137.592 14.6094C137.186 14.1667 137.069 13.5417 137.241 12.7344C137.465 11.6875 138.03 10.9297 138.936 10.4609C139.431 10.2057 140.121 10.0234 141.006 9.91406L141.78 9.82031ZM141.819 11.2266L141.303 11.3203C140.813 11.4036 140.454 11.5052 140.225 11.625C139.84 11.8281 139.603 12.1432 139.514 12.5703C139.431 12.9505 139.475 13.2266 139.647 13.3984C139.824 13.5651 140.063 13.6484 140.366 13.6484C140.845 13.6484 141.316 13.5078 141.78 13.2266C142.243 12.9453 142.563 12.4323 142.741 11.6875L142.912 10.8594C142.756 10.9479 142.6 11.0208 142.444 11.0781C142.287 11.1302 142.079 11.1797 141.819 11.2266ZM149.576 12.6484C149.503 12.9974 149.501 13.2161 149.568 13.3047C149.641 13.388 149.904 13.4297 150.357 13.4297C150.425 13.4297 150.495 13.4297 150.568 13.4297C150.646 13.4245 150.725 13.4193 150.803 13.4141L150.443 15.0781L149.381 15.1172C148.324 15.1536 147.644 14.9714 147.342 14.5703C147.149 14.3151 147.107 13.9219 147.217 13.3906L148.334 8.14844H147.146L147.482 6.5625H148.67L149.178 4.1875H151.381L150.873 6.5625H152.256L151.92 8.14844H150.537L149.576 12.6484ZM157.224 13.0859C157.407 12.9453 157.586 12.75 157.763 12.5H160.037C159.87 13.0052 159.498 13.5182 158.92 14.0391C158.013 14.8672 156.904 15.2812 155.591 15.2812C154.508 15.2812 153.625 14.9323 152.943 14.2344C152.266 13.5365 152.094 12.401 152.427 10.8281C152.74 9.35417 153.352 8.22396 154.263 7.4375C155.18 6.65104 156.235 6.25781 157.427 6.25781C158.136 6.25781 158.745 6.39062 159.256 6.65625C159.771 6.92188 160.151 7.34115 160.396 7.91406C160.625 8.41927 160.716 9.00521 160.67 9.67188C160.649 10.0625 160.555 10.625 160.388 11.3594H154.56C154.409 12.2135 154.55 12.8125 154.982 13.1562C155.243 13.3698 155.589 13.4766 156.021 13.4766C156.48 13.4766 156.881 13.3464 157.224 13.0859ZM157.037 8.09375C156.521 8.09375 156.086 8.25521 155.732 8.57812C155.383 8.90104 155.115 9.33854 154.927 9.89062H158.388C158.477 9.30208 158.391 8.85677 158.131 8.55469C157.875 8.2474 157.511 8.09375 157.037 8.09375Z" fill="url(#paint3_linear_33_1812)" fill-opacity="0.2"/>
<defs>
<linearGradient id="paint0_linear_33_1812" x1="103.123" y1="27.0959" x2="51.7415" y2="48.2789" gradientUnits="userSpaceOnUse">
<stop stop-color="#FF0000"/>
<stop offset="0.515" stop-color="#BB004F"/>
<stop offset="0.67" stop-color="#2E079C"/>
<stop offset="1"/>
</linearGradient>
<linearGradient id="paint1_linear_33_1812" x1="58.3897" y1="26.1759" x2="-9.25112" y2="68.1219" gradientUnits="userSpaceOnUse">
<stop stop-color="#FF0000"/>
<stop offset="0.515" stop-color="#BB004F"/>
<stop offset="0.67" stop-color="#2E079C"/>
<stop offset="1"/>
</linearGradient>
<linearGradient id="paint2_linear_33_1812" x1="160.212" y1="26.0991" x2="103.432" y2="56.4751" gradientUnits="userSpaceOnUse">
<stop stop-color="#FF0000"/>
<stop offset="0.515" stop-color="#BB004F"/>
<stop offset="0.67" stop-color="#2E079C"/>
<stop offset="1"/>
</linearGradient>
<linearGradient id="paint3_linear_33_1812" x1="159.291" y1="0.376847" x2="144.729" y2="42.0989" gradientUnits="userSpaceOnUse">
<stop stop-color="#FF0000"/>
<stop offset="0.515" stop-color="#BB004F"/>
<stop offset="0.67" stop-color="#2E079C"/>
<stop offset="1"/>
</linearGradient>
</defs>
</svg>
