<svg width="325" height="85" viewBox="0 0 325 85" fill="none" xmlns="http://www.w3.org/2000/svg">
<path d="M1 59.4999C1.83333 60.9999 5.4 63.9999 13 63.9999M15 17.9999C17.6667 24.174 21 39.0179 13 48.9999C7.66667 48.4999 -1.9 41.9999 2.5 19.9999C6 11.3332 18 -3.40012 38 6.99988C44.5 3.83325 59.9 0 69.5 10C72.5 12.6667 78.5 20 78.5 28C78.5 38 83 49.5 42 70.5C36.5 67.6667 24.7 60.5 21.5 54.5M42 52C38.6667 52 32.4 49.6 34 40L26 38L30.5 28C30.6667 22 32.4 10 38 10C43.6 10 46.3333 15.3332 47 17.9999C47.7943 20.3332 52.3064 26 64 30C65 35.6749 64.1 47.4196 52.5 48.9999M38 30C39.3333 27.3333 42.5 23.6 44.5 30M80 9C82.3333 11.3333 86.6 17.2 85 22M80 1C83 2.33337 88.9 6.3001 88.5 11.5" stroke="#558FFF" stroke-width="2" stroke-linecap="round" stroke-linejoin="round"/>
<path d="M1 59.4999C1.83333 60.9999 5.4 63.9999 13 63.9999M15 17.9999C17.6667 24.174 21 39.0179 13 48.9999C7.66667 48.4999 -1.9 41.9999 2.5 19.9999C6 11.3332 18 -3.40012 38 6.99988C44.5 3.83325 59.9 0 69.5 10C72.5 12.6667 78.5 20 78.5 28C78.5 38 83 49.5 42 70.5C36.5 67.6667 24.7 60.5 21.5 54.5M42 52C38.6667 52 32.4 49.6 34 40L26 38L30.5 28C30.6667 22 32.4 10 38 10C43.6 10 46.3333 15.3332 47 17.9999C47.7943 20.3332 52.3064 26 64 30C65 35.6749 64.1 47.4196 52.5 48.9999M38 30C39.3333 27.3333 42.5 23.6 44.5 30M80 9C82.3333 11.3333 86.6 17.2 85 22M80 1C83 2.33337 88.9 6.3001 88.5 11.5" stroke="url(#paint0_linear_33_1823)" stroke-opacity="0.2" stroke-width="2" stroke-linecap="round" stroke-linejoin="round"/>
<path d="M132.704 14.04C133.92 15.16 134.816 16.504 135.392 18.072C135.968 19.608 136.192 21.144 136.064 22.68C135.936 24.152 135.472 25.512 134.672 26.76C133.872 27.976 132.656 28.904 131.024 29.544C129.744 30.088 128.48 30.472 127.232 30.696C125.984 30.92 124.608 31.096 123.104 31.224C122.432 31.288 121.856 31.336 121.376 31.368C120.928 31.368 120.4 31.384 119.792 31.416C119.664 31.416 119.44 31.416 119.12 31.416C118.832 31.416 118.624 31.432 118.496 31.464V41.4C118.4 42.008 118.272 42.632 118.112 43.272C117.984 43.912 117.616 44.408 117.008 44.76C116.656 44.952 116.224 45.064 115.712 45.096C115.2 45.128 114.736 45.112 114.32 45.048C113.872 44.984 113.488 44.872 113.168 44.712C112.88 44.52 112.64 44.2 112.448 43.752C112.32 43.464 112.192 43.144 112.064 42.792C111.968 42.408 111.92 41.944 111.92 41.4V14.856C111.92 14.632 111.936 14.424 111.968 14.232C112 14.04 112.032 13.848 112.064 13.656C112.128 13.496 112.176 13.32 112.208 13.128C112.24 12.936 112.288 12.76 112.352 12.6C112.416 12.44 112.48 12.296 112.544 12.168C112.64 12.04 112.752 11.928 112.88 11.832C113.04 11.672 113.28 11.528 113.6 11.4C113.952 11.272 114.464 11.208 115.136 11.208H115.232C116.224 11.144 117.328 11.096 118.544 11.064C119.76 11 120.768 11.016 121.568 11.112C122.016 11.176 122.432 11.224 122.816 11.256C123.2 11.256 123.568 11.272 123.92 11.304C124.304 11.336 124.688 11.368 125.072 11.4C125.456 11.432 125.84 11.48 126.224 11.544C126.544 11.608 126.832 11.656 127.088 11.688C127.376 11.72 127.664 11.768 127.952 11.832C128.208 11.896 128.48 11.96 128.768 12.024C129.088 12.088 129.376 12.2 129.632 12.36C130.304 12.552 130.864 12.792 131.312 13.08C131.76 13.368 132.224 13.688 132.704 14.04ZM129.824 21.96C129.856 21.192 129.696 20.52 129.344 19.944C129.024 19.368 128.56 18.888 127.952 18.504C127.344 18.12 126.656 17.816 125.888 17.592C125.12 17.368 124.352 17.208 123.584 17.112C123.392 17.112 123.12 17.112 122.768 17.112C122.448 17.08 122.096 17.064 121.712 17.064C121.328 17.032 120.96 17.016 120.608 17.016C120.288 16.984 120.032 16.968 119.84 16.968C119.68 16.936 119.488 16.92 119.264 16.92C119.04 16.92 118.784 16.92 118.496 16.92C118.528 17.912 118.544 18.872 118.544 19.8C118.544 20.696 118.544 21.672 118.544 22.728C118.512 23.304 118.496 23.88 118.496 24.456C118.496 25.032 118.496 25.592 118.496 26.136L121.472 26.088C122.24 26.088 123.088 26.04 124.016 25.944C124.944 25.848 125.824 25.656 126.656 25.368C127.488 25.08 128.192 24.664 128.768 24.12C129.376 23.576 129.728 22.856 129.824 21.96ZM147.534 16.776L147.438 24.312H149.358C150.67 24.28 151.838 24.264 152.862 24.264C153.886 24.264 155.022 24.28 156.27 24.312H156.51C156.894 24.312 157.262 24.328 157.614 24.36C157.998 24.36 158.366 24.36 158.718 24.36C159.102 24.392 159.47 24.456 159.822 24.552C160.174 24.616 160.526 24.696 160.878 24.792C161.422 24.984 161.87 25.272 162.222 25.656C162.542 26.072 162.702 26.536 162.702 27.048C162.702 27.208 162.702 27.4 162.702 27.624C162.702 27.816 162.67 27.992 162.606 28.152C162.542 28.504 162.334 28.824 161.982 29.112C161.822 29.336 161.518 29.496 161.07 29.592C160.654 29.72 160.238 29.8 159.822 29.832C159.374 29.928 158.926 29.976 158.478 29.976H156.222L147.342 30.024L147.246 39.432L156.798 39.528H159.054C159.31 39.528 159.55 39.528 159.774 39.528C159.998 39.528 160.206 39.544 160.398 39.576C160.654 39.64 160.878 39.688 161.07 39.72C161.294 39.72 161.502 39.752 161.694 39.816C162.078 39.944 162.398 40.12 162.654 40.344C162.974 40.664 163.182 41 163.278 41.352C163.31 41.512 163.326 41.688 163.326 41.88C163.358 42.04 163.358 42.216 163.326 42.408C163.326 42.92 163.166 43.384 162.846 43.8C162.462 44.248 162.014 44.536 161.502 44.664C160.83 44.952 160.094 45.096 159.294 45.096C158.942 45.128 158.574 45.144 158.19 45.144C157.806 45.144 157.438 45.16 157.086 45.192H156.798C154.302 45.256 151.71 45.256 149.022 45.192C148.382 45.192 147.87 45.176 147.486 45.144C147.102 45.144 146.75 45.144 146.43 45.144C146.142 45.144 145.838 45.144 145.518 45.144C145.198 45.144 144.782 45.144 144.27 45.144C143.534 45.208 142.926 45.08 142.446 44.76C142.094 44.536 141.822 44.232 141.63 43.848C141.534 43.752 141.486 43.656 141.486 43.56C141.454 43.496 141.422 43.448 141.39 43.416C141.358 43.384 141.326 43.336 141.294 43.272C141.23 43.112 141.182 42.952 141.15 42.792C141.118 42.6 141.102 42.424 141.102 42.264C141.07 42.104 141.038 41.944 141.006 41.784C141.006 41.624 140.99 41.464 140.958 41.304V40.536C140.958 40.408 140.958 40.28 140.958 40.152C140.99 40.024 141.006 39.896 141.006 39.768V36.024L141.102 29.112V22.728C141.102 21.576 141.102 20.552 141.102 19.656C141.134 18.76 141.166 17.784 141.198 16.728V16.488C141.23 16.136 141.246 15.816 141.246 15.528C141.278 15.208 141.294 14.888 141.294 14.568C141.326 13.928 141.502 13.304 141.822 12.696C141.95 12.44 142.078 12.216 142.206 12.024C142.366 11.832 142.574 11.672 142.83 11.544C143.31 11.256 143.806 11.112 144.318 11.112C144.574 11.112 144.766 11.128 144.894 11.16V11.112C145.47 11.112 145.934 11.112 146.286 11.112C146.638 11.112 146.974 11.112 147.294 11.112C147.646 11.112 148.014 11.112 148.398 11.112C148.782 11.08 149.31 11.064 149.982 11.064C151.262 11.032 152.478 11.016 153.63 11.016C154.782 11.016 155.966 11.032 157.182 11.064H157.374C157.726 11.096 158.094 11.112 158.478 11.112C158.862 11.112 159.23 11.128 159.582 11.16C159.934 11.16 160.286 11.208 160.638 11.304C160.99 11.368 161.342 11.464 161.694 11.592C162.238 11.752 162.686 12.024 163.038 12.408C163.326 12.856 163.47 13.304 163.47 13.752C163.47 13.944 163.47 14.136 163.47 14.328C163.47 14.488 163.438 14.648 163.374 14.808C163.342 15.128 163.15 15.464 162.798 15.816C162.67 15.88 162.526 15.96 162.366 16.056C162.238 16.152 162.078 16.232 161.886 16.296C161.694 16.36 161.486 16.408 161.262 16.44C161.07 16.44 160.878 16.456 160.686 16.488C160.43 16.552 160.19 16.584 159.966 16.584C159.774 16.584 159.55 16.584 159.294 16.584H157.134L147.534 16.632V16.776ZM193.82 12.504C194.172 12.92 194.348 13.352 194.348 13.8C194.348 13.992 194.332 14.2 194.3 14.424C194.3 14.616 194.284 14.792 194.252 14.952C194.156 15.304 193.948 15.64 193.628 15.96C193.372 16.152 193.02 16.296 192.572 16.392C192.348 16.456 192.124 16.504 191.9 16.536C191.676 16.568 191.436 16.616 191.18 16.68C190.956 16.712 190.732 16.728 190.508 16.728C190.284 16.728 190.044 16.728 189.788 16.728H187.34C186.764 16.76 186.188 16.776 185.612 16.776C185.068 16.776 184.524 16.776 183.98 16.776C184.012 17.768 184.028 18.84 184.028 19.992C184.028 21.112 184.012 22.424 183.98 23.928C183.98 25.432 183.964 27.176 183.932 29.16C183.932 31.144 183.932 33.448 183.932 36.072V39.72C183.932 40.04 183.948 40.28 183.98 40.44C183.98 40.568 183.98 40.696 183.98 40.824C183.98 40.92 183.964 41.048 183.932 41.208C183.868 41.496 183.82 41.832 183.788 42.216C183.788 42.376 183.772 42.536 183.74 42.696C183.708 42.824 183.66 42.968 183.596 43.128C183.468 43.256 183.404 43.352 183.404 43.416L183.26 43.704C183.1 44.024 182.796 44.328 182.348 44.616C181.644 44.968 180.86 45.048 179.996 44.856C179.452 44.792 179.036 44.648 178.748 44.424C178.46 44.136 178.252 43.848 178.124 43.56C177.932 43.208 177.82 42.872 177.788 42.552C177.692 42.264 177.644 41.96 177.644 41.64V16.968C177.452 16.968 177.052 16.968 176.444 16.968C175.836 16.968 175.18 16.968 174.476 16.968C173.804 16.936 173.164 16.904 172.556 16.872C171.948 16.84 171.532 16.808 171.308 16.776C171.116 16.744 170.812 16.696 170.396 16.632C170.012 16.568 169.692 16.504 169.436 16.44C168.764 16.248 168.236 15.944 167.852 15.528C167.5 15.112 167.324 14.648 167.324 14.136C167.324 13.944 167.324 13.752 167.324 13.56C167.324 13.368 167.356 13.192 167.42 13.032C167.516 12.648 167.772 12.328 168.188 12.072C168.316 11.976 168.508 11.864 168.764 11.736C169.052 11.576 169.324 11.464 169.58 11.4C169.964 11.272 170.444 11.176 171.02 11.112C171.276 11.08 171.532 11.064 171.788 11.064C172.044 11.064 172.316 11.064 172.604 11.064C173.724 11.064 174.78 11.064 175.772 11.064C176.796 11.064 177.868 11.048 178.988 11.016C180.844 10.984 182.684 10.984 184.508 11.016C186.364 11.016 188.204 11.048 190.028 11.112C190.444 11.144 190.844 11.192 191.228 11.256C191.612 11.32 191.996 11.432 192.38 11.592C192.668 11.688 192.94 11.816 193.196 11.976C193.452 12.104 193.66 12.28 193.82 12.504ZM211.213 21.96C211.501 20.84 211.869 19.624 212.317 18.312C212.765 17 213.245 15.688 213.757 14.376C214.301 13.064 214.829 11.848 215.341 10.728H218.461C218.173 11.944 217.869 13.256 217.549 14.664C217.229 16.04 216.941 17.416 216.685 18.792C216.429 20.136 216.221 21.368 216.061 22.488H211.501L211.213 21.96ZM248.02 41.352C247.988 41.896 247.908 42.472 247.78 43.08C247.684 43.688 247.38 44.184 246.868 44.568C246.484 44.888 246.052 45.08 245.572 45.144C245.092 45.208 244.612 45.176 244.132 45.048C243.684 44.952 243.252 44.792 242.836 44.568C242.42 44.312 242.084 44.008 241.828 43.656C240.74 42.312 239.732 40.936 238.804 39.528C237.908 38.088 236.996 36.648 236.068 35.208L232.036 29.112C231.492 28.248 230.916 27.288 230.308 26.232C229.7 25.144 229.076 24.136 228.436 23.208L228.292 41.544V41.976C228.292 42.488 228.196 43 228.004 43.512C227.844 43.992 227.556 44.408 227.14 44.76C226.82 45.016 226.404 45.192 225.892 45.288C225.092 45.448 224.42 45.4 223.876 45.144C223.364 44.888 222.948 44.536 222.628 44.088C222.34 43.64 222.132 43.128 222.004 42.552C221.908 41.944 221.892 41.352 221.956 40.776V39.96L222.052 36.216L222.1 29.256C222.132 28.232 222.148 27.192 222.148 26.136C222.148 25.048 222.148 23.944 222.148 22.824C222.116 21.448 222.116 19.992 222.148 18.456C222.212 16.92 222.276 15.48 222.34 14.136C222.404 13.4 222.58 12.776 222.868 12.264C222.996 11.816 223.332 11.432 223.876 11.112C224.228 10.888 224.676 10.744 225.22 10.68C225.796 10.616 226.292 10.632 226.708 10.728C226.868 10.792 227.028 10.872 227.188 10.968C227.348 11.032 227.508 11.112 227.668 11.208C227.828 11.336 227.972 11.464 228.1 11.592C228.26 11.72 228.404 11.864 228.532 12.024C228.692 12.184 228.836 12.36 228.964 12.552C229.092 12.712 229.22 12.872 229.348 13.032C229.444 13.224 229.54 13.4 229.636 13.56C229.732 13.72 229.844 13.88 229.972 14.04L230.5 14.808L241.588 32.28V29.112C241.588 28.088 241.572 27.048 241.54 25.992C241.54 24.904 241.524 23.784 241.492 22.632C241.492 21.288 241.492 19.848 241.492 18.312C241.524 16.776 241.572 15.336 241.636 13.992C241.636 13.448 241.796 12.824 242.116 12.12C242.276 11.704 242.548 11.368 242.932 11.112C243.316 10.856 243.748 10.68 244.228 10.584C244.708 10.488 245.188 10.488 245.668 10.584C246.148 10.68 246.564 10.872 246.916 11.16C247.012 11.256 247.108 11.368 247.204 11.496C247.3 11.624 247.38 11.768 247.444 11.928C247.604 12.344 247.7 12.712 247.732 13.032C247.828 13.48 247.876 13.88 247.876 14.232C247.876 18.232 247.876 22.312 247.876 26.472C247.908 30.632 247.94 34.712 247.972 38.712C247.972 39.16 247.988 39.608 248.02 40.056C248.052 40.472 248.052 40.904 248.02 41.352ZM295.528 41.544C295.496 41.928 295.448 42.328 295.384 42.744C295.32 43.16 295.208 43.544 295.048 43.896C294.888 44.28 294.68 44.568 294.424 44.76C294.072 45.08 293.656 45.256 293.176 45.288C292.728 45.448 292.296 45.496 291.88 45.432C291.464 45.368 291.08 45.256 290.728 45.096C290.28 44.808 289.944 44.472 289.72 44.088C289.528 43.672 289.384 43.24 289.288 42.792C289.192 42.344 289.144 41.88 289.144 41.4C289.144 40.92 289.144 40.472 289.144 40.056V36.312L289.096 28.968C289.096 28.456 289.096 28.056 289.096 27.768C289.096 27.48 289.096 27.224 289.096 27C289.096 26.744 289.08 26.472 289.048 26.184C289.048 25.864 289.048 25.416 289.048 24.84C289.048 24.744 289.048 24.584 289.048 24.36C289.08 24.104 289.064 23.448 289 22.392C287.752 24.472 286.712 26.152 285.88 27.432C285.08 28.68 284.392 29.656 283.816 30.36C283.272 31.032 282.792 31.496 282.376 31.752C281.96 31.976 281.528 32.104 281.08 32.136C280.824 32.168 280.568 32.12 280.312 31.992C280.056 31.864 279.8 31.704 279.544 31.512C279.32 31.32 279.096 31.128 278.872 30.936C278.68 30.712 278.52 30.504 278.392 30.312C277.624 29.352 276.76 28.2 275.8 26.856C274.84 25.512 273.848 23.88 272.824 21.96C272.824 21.992 272.808 22.52 272.776 23.544C272.776 24.568 272.776 25.848 272.776 27.384C272.776 28.888 272.76 30.52 272.728 32.28C272.728 34.008 272.712 35.624 272.68 37.128C272.68 38.632 272.664 39.896 272.632 40.92C272.6 41.912 272.568 42.408 272.536 42.408C272.536 42.952 272.408 43.464 272.152 43.944C271.896 44.392 271.544 44.76 271.096 45.048C270.68 45.336 270.184 45.496 269.608 45.528C269.032 45.56 268.408 45.4 267.736 45.048C267.32 44.792 267 44.424 266.776 43.944C266.584 43.464 266.456 43.016 266.392 42.6C266.36 42.152 266.328 41.72 266.296 41.304C266.296 40.888 266.296 40.456 266.296 40.008L266.344 36.264L266.392 28.872V22.44C266.392 19.656 266.488 16.92 266.68 14.232C266.68 13.88 266.712 13.56 266.776 13.272C266.872 12.952 266.984 12.648 267.112 12.36C267.368 11.848 267.704 11.464 268.12 11.208C268.6 10.92 269.112 10.776 269.656 10.776C269.88 10.776 270.088 10.792 270.28 10.824C270.504 10.824 270.712 10.84 270.904 10.872C271.544 11 272.088 11.384 272.536 12.024C273.016 12.632 273.464 13.16 273.88 13.608C274.136 13.896 274.408 14.248 274.696 14.664C274.984 15.08 275.272 15.512 275.56 15.96C275.848 16.408 276.12 16.84 276.376 17.256C276.632 17.672 276.856 18.04 277.048 18.36C277.88 19.704 278.616 20.936 279.256 22.056C279.928 23.176 280.552 24.136 281.128 24.936C281.224 24.84 281.336 24.712 281.464 24.552C281.592 24.36 281.72 24.168 281.848 23.976C282.008 23.752 282.136 23.544 282.232 23.352C282.36 23.16 282.456 23 282.52 22.872C282.84 22.36 283.16 21.864 283.48 21.384C283.8 20.872 284.136 20.344 284.488 19.8C284.872 19.224 285.256 18.6 285.64 17.928C286.056 17.256 286.536 16.488 287.08 15.624C287.304 15.24 287.592 14.776 287.944 14.232C288.296 13.688 288.696 13.16 289.144 12.648C289.592 12.136 290.056 11.704 290.536 11.352C291.048 10.968 291.56 10.776 292.072 10.776C292.328 10.776 292.552 10.792 292.744 10.824C292.936 10.824 293.128 10.84 293.32 10.872C293.704 10.904 294.072 11.08 294.424 11.4C294.68 11.656 294.872 11.928 295 12.216C295.128 12.632 295.208 12.984 295.24 13.272C295.272 13.496 295.288 13.704 295.288 13.896C295.32 14.088 295.336 14.28 295.336 14.472C295.336 16.264 295.352 18.04 295.384 19.8C295.416 21.56 295.432 23.336 295.432 25.128C295.432 27.304 295.432 29.544 295.432 31.848C295.464 34.152 295.48 36.392 295.48 38.568C295.48 39.016 295.496 39.496 295.528 40.008C295.56 40.52 295.56 41.032 295.528 41.544ZM306.973 16.776L306.877 24.312H308.797C310.109 24.28 311.277 24.264 312.301 24.264C313.325 24.264 314.461 24.28 315.709 24.312H315.949C316.333 24.312 316.701 24.328 317.053 24.36C317.437 24.36 317.805 24.36 318.157 24.36C318.541 24.392 318.909 24.456 319.261 24.552C319.613 24.616 319.965 24.696 320.317 24.792C320.861 24.984 321.309 25.272 321.661 25.656C321.981 26.072 322.141 26.536 322.141 27.048C322.141 27.208 322.141 27.4 322.141 27.624C322.141 27.816 322.109 27.992 322.045 28.152C321.981 28.504 321.773 28.824 321.421 29.112C321.261 29.336 320.957 29.496 320.509 29.592C320.093 29.72 319.677 29.8 319.261 29.832C318.813 29.928 318.365 29.976 317.917 29.976H315.661L306.781 30.024L306.685 39.432L316.237 39.528H318.493C318.749 39.528 318.989 39.528 319.213 39.528C319.437 39.528 319.645 39.544 319.837 39.576C320.093 39.64 320.317 39.688 320.509 39.72C320.733 39.72 320.941 39.752 321.133 39.816C321.517 39.944 321.837 40.12 322.093 40.344C322.413 40.664 322.621 41 322.717 41.352C322.749 41.512 322.765 41.688 322.765 41.88C322.797 42.04 322.797 42.216 322.765 42.408C322.765 42.92 322.605 43.384 322.285 43.8C321.901 44.248 321.453 44.536 320.941 44.664C320.269 44.952 319.533 45.096 318.733 45.096C318.381 45.128 318.013 45.144 317.629 45.144C317.245 45.144 316.877 45.16 316.525 45.192H316.237C313.741 45.256 311.149 45.256 308.461 45.192C307.821 45.192 307.309 45.176 306.925 45.144C306.541 45.144 306.189 45.144 305.869 45.144C305.581 45.144 305.277 45.144 304.957 45.144C304.637 45.144 304.221 45.144 303.709 45.144C302.973 45.208 302.365 45.08 301.885 44.76C301.533 44.536 301.261 44.232 301.069 43.848C300.973 43.752 300.925 43.656 300.925 43.56C300.893 43.496 300.861 43.448 300.829 43.416C300.797 43.384 300.765 43.336 300.733 43.272C300.669 43.112 300.621 42.952 300.589 42.792C300.557 42.6 300.541 42.424 300.541 42.264C300.509 42.104 300.477 41.944 300.445 41.784C300.445 41.624 300.429 41.464 300.397 41.304V40.536C300.397 40.408 300.397 40.28 300.397 40.152C300.429 40.024 300.445 39.896 300.445 39.768V36.024L300.541 29.112V22.728C300.541 21.576 300.541 20.552 300.541 19.656C300.573 18.76 300.605 17.784 300.637 16.728V16.488C300.669 16.136 300.685 15.816 300.685 15.528C300.717 15.208 300.733 14.888 300.733 14.568C300.765 13.928 300.941 13.304 301.261 12.696C301.389 12.44 301.517 12.216 301.645 12.024C301.805 11.832 302.013 11.672 302.269 11.544C302.749 11.256 303.245 11.112 303.757 11.112C304.013 11.112 304.205 11.128 304.333 11.16V11.112C304.909 11.112 305.373 11.112 305.725 11.112C306.077 11.112 306.413 11.112 306.733 11.112C307.085 11.112 307.453 11.112 307.837 11.112C308.221 11.08 308.749 11.064 309.421 11.064C310.701 11.032 311.917 11.016 313.069 11.016C314.221 11.016 315.405 11.032 316.621 11.064H316.813C317.165 11.096 317.533 11.112 317.917 11.112C318.301 11.112 318.669 11.128 319.021 11.16C319.373 11.16 319.725 11.208 320.077 11.304C320.429 11.368 320.781 11.464 321.133 11.592C321.677 11.752 322.125 12.024 322.477 12.408C322.765 12.856 322.909 13.304 322.909 13.752C322.909 13.944 322.909 14.136 322.909 14.328C322.909 14.488 322.877 14.648 322.813 14.808C322.781 15.128 322.589 15.464 322.237 15.816C322.109 15.88 321.965 15.96 321.805 16.056C321.677 16.152 321.517 16.232 321.325 16.296C321.133 16.36 320.925 16.408 320.701 16.44C320.509 16.44 320.317 16.456 320.125 16.488C319.869 16.552 319.629 16.584 319.405 16.584C319.213 16.584 318.989 16.584 318.733 16.584H316.573L306.973 16.632V16.776Z" fill="#558FFF"/>
<path d="M132.704 14.04C133.92 15.16 134.816 16.504 135.392 18.072C135.968 19.608 136.192 21.144 136.064 22.68C135.936 24.152 135.472 25.512 134.672 26.76C133.872 27.976 132.656 28.904 131.024 29.544C129.744 30.088 128.48 30.472 127.232 30.696C125.984 30.92 124.608 31.096 123.104 31.224C122.432 31.288 121.856 31.336 121.376 31.368C120.928 31.368 120.4 31.384 119.792 31.416C119.664 31.416 119.44 31.416 119.12 31.416C118.832 31.416 118.624 31.432 118.496 31.464V41.4C118.4 42.008 118.272 42.632 118.112 43.272C117.984 43.912 117.616 44.408 117.008 44.76C116.656 44.952 116.224 45.064 115.712 45.096C115.2 45.128 114.736 45.112 114.32 45.048C113.872 44.984 113.488 44.872 113.168 44.712C112.88 44.52 112.64 44.2 112.448 43.752C112.32 43.464 112.192 43.144 112.064 42.792C111.968 42.408 111.92 41.944 111.92 41.4V14.856C111.92 14.632 111.936 14.424 111.968 14.232C112 14.04 112.032 13.848 112.064 13.656C112.128 13.496 112.176 13.32 112.208 13.128C112.24 12.936 112.288 12.76 112.352 12.6C112.416 12.44 112.48 12.296 112.544 12.168C112.64 12.04 112.752 11.928 112.88 11.832C113.04 11.672 113.28 11.528 113.6 11.4C113.952 11.272 114.464 11.208 115.136 11.208H115.232C116.224 11.144 117.328 11.096 118.544 11.064C119.76 11 120.768 11.016 121.568 11.112C122.016 11.176 122.432 11.224 122.816 11.256C123.2 11.256 123.568 11.272 123.92 11.304C124.304 11.336 124.688 11.368 125.072 11.4C125.456 11.432 125.84 11.48 126.224 11.544C126.544 11.608 126.832 11.656 127.088 11.688C127.376 11.72 127.664 11.768 127.952 11.832C128.208 11.896 128.48 11.96 128.768 12.024C129.088 12.088 129.376 12.2 129.632 12.36C130.304 12.552 130.864 12.792 131.312 13.08C131.76 13.368 132.224 13.688 132.704 14.04ZM129.824 21.96C129.856 21.192 129.696 20.52 129.344 19.944C129.024 19.368 128.56 18.888 127.952 18.504C127.344 18.12 126.656 17.816 125.888 17.592C125.12 17.368 124.352 17.208 123.584 17.112C123.392 17.112 123.12 17.112 122.768 17.112C122.448 17.08 122.096 17.064 121.712 17.064C121.328 17.032 120.96 17.016 120.608 17.016C120.288 16.984 120.032 16.968 119.84 16.968C119.68 16.936 119.488 16.92 119.264 16.92C119.04 16.92 118.784 16.92 118.496 16.92C118.528 17.912 118.544 18.872 118.544 19.8C118.544 20.696 118.544 21.672 118.544 22.728C118.512 23.304 118.496 23.88 118.496 24.456C118.496 25.032 118.496 25.592 118.496 26.136L121.472 26.088C122.24 26.088 123.088 26.04 124.016 25.944C124.944 25.848 125.824 25.656 126.656 25.368C127.488 25.08 128.192 24.664 128.768 24.12C129.376 23.576 129.728 22.856 129.824 21.96ZM147.534 16.776L147.438 24.312H149.358C150.67 24.28 151.838 24.264 152.862 24.264C153.886 24.264 155.022 24.28 156.27 24.312H156.51C156.894 24.312 157.262 24.328 157.614 24.36C157.998 24.36 158.366 24.36 158.718 24.36C159.102 24.392 159.47 24.456 159.822 24.552C160.174 24.616 160.526 24.696 160.878 24.792C161.422 24.984 161.87 25.272 162.222 25.656C162.542 26.072 162.702 26.536 162.702 27.048C162.702 27.208 162.702 27.4 162.702 27.624C162.702 27.816 162.67 27.992 162.606 28.152C162.542 28.504 162.334 28.824 161.982 29.112C161.822 29.336 161.518 29.496 161.07 29.592C160.654 29.72 160.238 29.8 159.822 29.832C159.374 29.928 158.926 29.976 158.478 29.976H156.222L147.342 30.024L147.246 39.432L156.798 39.528H159.054C159.31 39.528 159.55 39.528 159.774 39.528C159.998 39.528 160.206 39.544 160.398 39.576C160.654 39.64 160.878 39.688 161.07 39.72C161.294 39.72 161.502 39.752 161.694 39.816C162.078 39.944 162.398 40.12 162.654 40.344C162.974 40.664 163.182 41 163.278 41.352C163.31 41.512 163.326 41.688 163.326 41.88C163.358 42.04 163.358 42.216 163.326 42.408C163.326 42.92 163.166 43.384 162.846 43.8C162.462 44.248 162.014 44.536 161.502 44.664C160.83 44.952 160.094 45.096 159.294 45.096C158.942 45.128 158.574 45.144 158.19 45.144C157.806 45.144 157.438 45.16 157.086 45.192H156.798C154.302 45.256 151.71 45.256 149.022 45.192C148.382 45.192 147.87 45.176 147.486 45.144C147.102 45.144 146.75 45.144 146.43 45.144C146.142 45.144 145.838 45.144 145.518 45.144C145.198 45.144 144.782 45.144 144.27 45.144C143.534 45.208 142.926 45.08 142.446 44.76C142.094 44.536 141.822 44.232 141.63 43.848C141.534 43.752 141.486 43.656 141.486 43.56C141.454 43.496 141.422 43.448 141.39 43.416C141.358 43.384 141.326 43.336 141.294 43.272C141.23 43.112 141.182 42.952 141.15 42.792C141.118 42.6 141.102 42.424 141.102 42.264C141.07 42.104 141.038 41.944 141.006 41.784C141.006 41.624 140.99 41.464 140.958 41.304V40.536C140.958 40.408 140.958 40.28 140.958 40.152C140.99 40.024 141.006 39.896 141.006 39.768V36.024L141.102 29.112V22.728C141.102 21.576 141.102 20.552 141.102 19.656C141.134 18.76 141.166 17.784 141.198 16.728V16.488C141.23 16.136 141.246 15.816 141.246 15.528C141.278 15.208 141.294 14.888 141.294 14.568C141.326 13.928 141.502 13.304 141.822 12.696C141.95 12.44 142.078 12.216 142.206 12.024C142.366 11.832 142.574 11.672 142.83 11.544C143.31 11.256 143.806 11.112 144.318 11.112C144.574 11.112 144.766 11.128 144.894 11.16V11.112C145.47 11.112 145.934 11.112 146.286 11.112C146.638 11.112 146.974 11.112 147.294 11.112C147.646 11.112 148.014 11.112 148.398 11.112C148.782 11.08 149.31 11.064 149.982 11.064C151.262 11.032 152.478 11.016 153.63 11.016C154.782 11.016 155.966 11.032 157.182 11.064H157.374C157.726 11.096 158.094 11.112 158.478 11.112C158.862 11.112 159.23 11.128 159.582 11.16C159.934 11.16 160.286 11.208 160.638 11.304C160.99 11.368 161.342 11.464 161.694 11.592C162.238 11.752 162.686 12.024 163.038 12.408C163.326 12.856 163.47 13.304 163.47 13.752C163.47 13.944 163.47 14.136 163.47 14.328C163.47 14.488 163.438 14.648 163.374 14.808C163.342 15.128 163.15 15.464 162.798 15.816C162.67 15.88 162.526 15.96 162.366 16.056C162.238 16.152 162.078 16.232 161.886 16.296C161.694 16.36 161.486 16.408 161.262 16.44C161.07 16.44 160.878 16.456 160.686 16.488C160.43 16.552 160.19 16.584 159.966 16.584C159.774 16.584 159.55 16.584 159.294 16.584H157.134L147.534 16.632V16.776ZM193.82 12.504C194.172 12.92 194.348 13.352 194.348 13.8C194.348 13.992 194.332 14.2 194.3 14.424C194.3 14.616 194.284 14.792 194.252 14.952C194.156 15.304 193.948 15.64 193.628 15.96C193.372 16.152 193.02 16.296 192.572 16.392C192.348 16.456 192.124 16.504 191.9 16.536C191.676 16.568 191.436 16.616 191.18 16.68C190.956 16.712 190.732 16.728 190.508 16.728C190.284 16.728 190.044 16.728 189.788 16.728H187.34C186.764 16.76 186.188 16.776 185.612 16.776C185.068 16.776 184.524 16.776 183.98 16.776C184.012 17.768 184.028 18.84 184.028 19.992C184.028 21.112 184.012 22.424 183.98 23.928C183.98 25.432 183.964 27.176 183.932 29.16C183.932 31.144 183.932 33.448 183.932 36.072V39.72C183.932 40.04 183.948 40.28 183.98 40.44C183.98 40.568 183.98 40.696 183.98 40.824C183.98 40.92 183.964 41.048 183.932 41.208C183.868 41.496 183.82 41.832 183.788 42.216C183.788 42.376 183.772 42.536 183.74 42.696C183.708 42.824 183.66 42.968 183.596 43.128C183.468 43.256 183.404 43.352 183.404 43.416L183.26 43.704C183.1 44.024 182.796 44.328 182.348 44.616C181.644 44.968 180.86 45.048 179.996 44.856C179.452 44.792 179.036 44.648 178.748 44.424C178.46 44.136 178.252 43.848 178.124 43.56C177.932 43.208 177.82 42.872 177.788 42.552C177.692 42.264 177.644 41.96 177.644 41.64V16.968C177.452 16.968 177.052 16.968 176.444 16.968C175.836 16.968 175.18 16.968 174.476 16.968C173.804 16.936 173.164 16.904 172.556 16.872C171.948 16.84 171.532 16.808 171.308 16.776C171.116 16.744 170.812 16.696 170.396 16.632C170.012 16.568 169.692 16.504 169.436 16.44C168.764 16.248 168.236 15.944 167.852 15.528C167.5 15.112 167.324 14.648 167.324 14.136C167.324 13.944 167.324 13.752 167.324 13.56C167.324 13.368 167.356 13.192 167.42 13.032C167.516 12.648 167.772 12.328 168.188 12.072C168.316 11.976 168.508 11.864 168.764 11.736C169.052 11.576 169.324 11.464 169.58 11.4C169.964 11.272 170.444 11.176 171.02 11.112C171.276 11.08 171.532 11.064 171.788 11.064C172.044 11.064 172.316 11.064 172.604 11.064C173.724 11.064 174.78 11.064 175.772 11.064C176.796 11.064 177.868 11.048 178.988 11.016C180.844 10.984 182.684 10.984 184.508 11.016C186.364 11.016 188.204 11.048 190.028 11.112C190.444 11.144 190.844 11.192 191.228 11.256C191.612 11.32 191.996 11.432 192.38 11.592C192.668 11.688 192.94 11.816 193.196 11.976C193.452 12.104 193.66 12.28 193.82 12.504ZM211.213 21.96C211.501 20.84 211.869 19.624 212.317 18.312C212.765 17 213.245 15.688 213.757 14.376C214.301 13.064 214.829 11.848 215.341 10.728H218.461C218.173 11.944 217.869 13.256 217.549 14.664C217.229 16.04 216.941 17.416 216.685 18.792C216.429 20.136 216.221 21.368 216.061 22.488H211.501L211.213 21.96ZM248.02 41.352C247.988 41.896 247.908 42.472 247.78 43.08C247.684 43.688 247.38 44.184 246.868 44.568C246.484 44.888 246.052 45.08 245.572 45.144C245.092 45.208 244.612 45.176 244.132 45.048C243.684 44.952 243.252 44.792 242.836 44.568C242.42 44.312 242.084 44.008 241.828 43.656C240.74 42.312 239.732 40.936 238.804 39.528C237.908 38.088 236.996 36.648 236.068 35.208L232.036 29.112C231.492 28.248 230.916 27.288 230.308 26.232C229.7 25.144 229.076 24.136 228.436 23.208L228.292 41.544V41.976C228.292 42.488 228.196 43 228.004 43.512C227.844 43.992 227.556 44.408 227.14 44.76C226.82 45.016 226.404 45.192 225.892 45.288C225.092 45.448 224.42 45.4 223.876 45.144C223.364 44.888 222.948 44.536 222.628 44.088C222.34 43.64 222.132 43.128 222.004 42.552C221.908 41.944 221.892 41.352 221.956 40.776V39.96L222.052 36.216L222.1 29.256C222.132 28.232 222.148 27.192 222.148 26.136C222.148 25.048 222.148 23.944 222.148 22.824C222.116 21.448 222.116 19.992 222.148 18.456C222.212 16.92 222.276 15.48 222.34 14.136C222.404 13.4 222.58 12.776 222.868 12.264C222.996 11.816 223.332 11.432 223.876 11.112C224.228 10.888 224.676 10.744 225.22 10.68C225.796 10.616 226.292 10.632 226.708 10.728C226.868 10.792 227.028 10.872 227.188 10.968C227.348 11.032 227.508 11.112 227.668 11.208C227.828 11.336 227.972 11.464 228.1 11.592C228.26 11.72 228.404 11.864 228.532 12.024C228.692 12.184 228.836 12.36 228.964 12.552C229.092 12.712 229.22 12.872 229.348 13.032C229.444 13.224 229.54 13.4 229.636 13.56C229.732 13.72 229.844 13.88 229.972 14.04L230.5 14.808L241.588 32.28V29.112C241.588 28.088 241.572 27.048 241.54 25.992C241.54 24.904 241.524 23.784 241.492 22.632C241.492 21.288 241.492 19.848 241.492 18.312C241.524 16.776 241.572 15.336 241.636 13.992C241.636 13.448 241.796 12.824 242.116 12.12C242.276 11.704 242.548 11.368 242.932 11.112C243.316 10.856 243.748 10.68 244.228 10.584C244.708 10.488 245.188 10.488 245.668 10.584C246.148 10.68 246.564 10.872 246.916 11.16C247.012 11.256 247.108 11.368 247.204 11.496C247.3 11.624 247.38 11.768 247.444 11.928C247.604 12.344 247.7 12.712 247.732 13.032C247.828 13.48 247.876 13.88 247.876 14.232C247.876 18.232 247.876 22.312 247.876 26.472C247.908 30.632 247.94 34.712 247.972 38.712C247.972 39.16 247.988 39.608 248.02 40.056C248.052 40.472 248.052 40.904 248.02 41.352ZM295.528 41.544C295.496 41.928 295.448 42.328 295.384 42.744C295.32 43.16 295.208 43.544 295.048 43.896C294.888 44.28 294.68 44.568 294.424 44.76C294.072 45.08 293.656 45.256 293.176 45.288C292.728 45.448 292.296 45.496 291.88 45.432C291.464 45.368 291.08 45.256 290.728 45.096C290.28 44.808 289.944 44.472 289.72 44.088C289.528 43.672 289.384 43.24 289.288 42.792C289.192 42.344 289.144 41.88 289.144 41.4C289.144 40.92 289.144 40.472 289.144 40.056V36.312L289.096 28.968C289.096 28.456 289.096 28.056 289.096 27.768C289.096 27.48 289.096 27.224 289.096 27C289.096 26.744 289.08 26.472 289.048 26.184C289.048 25.864 289.048 25.416 289.048 24.84C289.048 24.744 289.048 24.584 289.048 24.36C289.08 24.104 289.064 23.448 289 22.392C287.752 24.472 286.712 26.152 285.88 27.432C285.08 28.68 284.392 29.656 283.816 30.36C283.272 31.032 282.792 31.496 282.376 31.752C281.96 31.976 281.528 32.104 281.08 32.136C280.824 32.168 280.568 32.12 280.312 31.992C280.056 31.864 279.8 31.704 279.544 31.512C279.32 31.32 279.096 31.128 278.872 30.936C278.68 30.712 278.52 30.504 278.392 30.312C277.624 29.352 276.76 28.2 275.8 26.856C274.84 25.512 273.848 23.88 272.824 21.96C272.824 21.992 272.808 22.52 272.776 23.544C272.776 24.568 272.776 25.848 272.776 27.384C272.776 28.888 272.76 30.52 272.728 32.28C272.728 34.008 272.712 35.624 272.68 37.128C272.68 38.632 272.664 39.896 272.632 40.92C272.6 41.912 272.568 42.408 272.536 42.408C272.536 42.952 272.408 43.464 272.152 43.944C271.896 44.392 271.544 44.76 271.096 45.048C270.68 45.336 270.184 45.496 269.608 45.528C269.032 45.56 268.408 45.4 267.736 45.048C267.32 44.792 267 44.424 266.776 43.944C266.584 43.464 266.456 43.016 266.392 42.6C266.36 42.152 266.328 41.72 266.296 41.304C266.296 40.888 266.296 40.456 266.296 40.008L266.344 36.264L266.392 28.872V22.44C266.392 19.656 266.488 16.92 266.68 14.232C266.68 13.88 266.712 13.56 266.776 13.272C266.872 12.952 266.984 12.648 267.112 12.36C267.368 11.848 267.704 11.464 268.12 11.208C268.6 10.92 269.112 10.776 269.656 10.776C269.88 10.776 270.088 10.792 270.28 10.824C270.504 10.824 270.712 10.84 270.904 10.872C271.544 11 272.088 11.384 272.536 12.024C273.016 12.632 273.464 13.16 273.88 13.608C274.136 13.896 274.408 14.248 274.696 14.664C274.984 15.08 275.272 15.512 275.56 15.96C275.848 16.408 276.12 16.84 276.376 17.256C276.632 17.672 276.856 18.04 277.048 18.36C277.88 19.704 278.616 20.936 279.256 22.056C279.928 23.176 280.552 24.136 281.128 24.936C281.224 24.84 281.336 24.712 281.464 24.552C281.592 24.36 281.72 24.168 281.848 23.976C282.008 23.752 282.136 23.544 282.232 23.352C282.36 23.16 282.456 23 282.52 22.872C282.84 22.36 283.16 21.864 283.48 21.384C283.8 20.872 284.136 20.344 284.488 19.8C284.872 19.224 285.256 18.6 285.64 17.928C286.056 17.256 286.536 16.488 287.08 15.624C287.304 15.24 287.592 14.776 287.944 14.232C288.296 13.688 288.696 13.16 289.144 12.648C289.592 12.136 290.056 11.704 290.536 11.352C291.048 10.968 291.56 10.776 292.072 10.776C292.328 10.776 292.552 10.792 292.744 10.824C292.936 10.824 293.128 10.84 293.32 10.872C293.704 10.904 294.072 11.08 294.424 11.4C294.68 11.656 294.872 11.928 295 12.216C295.128 12.632 295.208 12.984 295.24 13.272C295.272 13.496 295.288 13.704 295.288 13.896C295.32 14.088 295.336 14.28 295.336 14.472C295.336 16.264 295.352 18.04 295.384 19.8C295.416 21.56 295.432 23.336 295.432 25.128C295.432 27.304 295.432 29.544 295.432 31.848C295.464 34.152 295.48 36.392 295.48 38.568C295.48 39.016 295.496 39.496 295.528 40.008C295.56 40.52 295.56 41.032 295.528 41.544ZM306.973 16.776L306.877 24.312H308.797C310.109 24.28 311.277 24.264 312.301 24.264C313.325 24.264 314.461 24.28 315.709 24.312H315.949C316.333 24.312 316.701 24.328 317.053 24.36C317.437 24.36 317.805 24.36 318.157 24.36C318.541 24.392 318.909 24.456 319.261 24.552C319.613 24.616 319.965 24.696 320.317 24.792C320.861 24.984 321.309 25.272 321.661 25.656C321.981 26.072 322.141 26.536 322.141 27.048C322.141 27.208 322.141 27.4 322.141 27.624C322.141 27.816 322.109 27.992 322.045 28.152C321.981 28.504 321.773 28.824 321.421 29.112C321.261 29.336 320.957 29.496 320.509 29.592C320.093 29.72 319.677 29.8 319.261 29.832C318.813 29.928 318.365 29.976 317.917 29.976H315.661L306.781 30.024L306.685 39.432L316.237 39.528H318.493C318.749 39.528 318.989 39.528 319.213 39.528C319.437 39.528 319.645 39.544 319.837 39.576C320.093 39.64 320.317 39.688 320.509 39.72C320.733 39.72 320.941 39.752 321.133 39.816C321.517 39.944 321.837 40.12 322.093 40.344C322.413 40.664 322.621 41 322.717 41.352C322.749 41.512 322.765 41.688 322.765 41.88C322.797 42.04 322.797 42.216 322.765 42.408C322.765 42.92 322.605 43.384 322.285 43.8C321.901 44.248 321.453 44.536 320.941 44.664C320.269 44.952 319.533 45.096 318.733 45.096C318.381 45.128 318.013 45.144 317.629 45.144C317.245 45.144 316.877 45.16 316.525 45.192H316.237C313.741 45.256 311.149 45.256 308.461 45.192C307.821 45.192 307.309 45.176 306.925 45.144C306.541 45.144 306.189 45.144 305.869 45.144C305.581 45.144 305.277 45.144 304.957 45.144C304.637 45.144 304.221 45.144 303.709 45.144C302.973 45.208 302.365 45.08 301.885 44.76C301.533 44.536 301.261 44.232 301.069 43.848C300.973 43.752 300.925 43.656 300.925 43.56C300.893 43.496 300.861 43.448 300.829 43.416C300.797 43.384 300.765 43.336 300.733 43.272C300.669 43.112 300.621 42.952 300.589 42.792C300.557 42.6 300.541 42.424 300.541 42.264C300.509 42.104 300.477 41.944 300.445 41.784C300.445 41.624 300.429 41.464 300.397 41.304V40.536C300.397 40.408 300.397 40.28 300.397 40.152C300.429 40.024 300.445 39.896 300.445 39.768V36.024L300.541 29.112V22.728C300.541 21.576 300.541 20.552 300.541 19.656C300.573 18.76 300.605 17.784 300.637 16.728V16.488C300.669 16.136 300.685 15.816 300.685 15.528C300.717 15.208 300.733 14.888 300.733 14.568C300.765 13.928 300.941 13.304 301.261 12.696C301.389 12.44 301.517 12.216 301.645 12.024C301.805 11.832 302.013 11.672 302.269 11.544C302.749 11.256 303.245 11.112 303.757 11.112C304.013 11.112 304.205 11.128 304.333 11.16V11.112C304.909 11.112 305.373 11.112 305.725 11.112C306.077 11.112 306.413 11.112 306.733 11.112C307.085 11.112 307.453 11.112 307.837 11.112C308.221 11.08 308.749 11.064 309.421 11.064C310.701 11.032 311.917 11.016 313.069 11.016C314.221 11.016 315.405 11.032 316.621 11.064H316.813C317.165 11.096 317.533 11.112 317.917 11.112C318.301 11.112 318.669 11.128 319.021 11.16C319.373 11.16 319.725 11.208 320.077 11.304C320.429 11.368 320.781 11.464 321.133 11.592C321.677 11.752 322.125 12.024 322.477 12.408C322.765 12.856 322.909 13.304 322.909 13.752C322.909 13.944 322.909 14.136 322.909 14.328C322.909 14.488 322.877 14.648 322.813 14.808C322.781 15.128 322.589 15.464 322.237 15.816C322.109 15.88 321.965 15.96 321.805 16.056C321.677 16.152 321.517 16.232 321.325 16.296C321.133 16.36 320.925 16.408 320.701 16.44C320.509 16.44 320.317 16.456 320.125 16.488C319.869 16.552 319.629 16.584 319.405 16.584C319.213 16.584 318.989 16.584 318.733 16.584H316.573L306.973 16.632V16.776Z" fill="url(#paint1_linear_33_1823)" fill-opacity="0.2"/>
<path d="M314.764 84.2001C314.582 84.2001 314.416 84.0864 314.264 83.859C314.097 83.6467 314.014 83.442 314.014 83.2448C314.014 83.0477 314.271 81.9256 314.787 79.8786C316.318 73.7677 317.084 69.8101 317.084 68.0056C317.084 67.7478 317.107 67.5735 317.152 67.4825C317.198 67.3763 317.312 67.3233 317.494 67.3233C317.676 67.3233 317.896 67.4976 318.153 67.8464C318.426 68.18 318.563 68.506 318.563 68.8244C318.563 69.1429 318.434 69.848 318.176 70.9397C318.889 69.757 319.647 68.8472 320.451 68.2103C321.254 67.5735 322.02 67.255 322.748 67.255C323.476 67.255 324.029 67.6265 324.408 68.3695C324.802 69.1126 325 70.0224 325 71.099C325 72.1604 324.575 73.2825 323.726 74.4652C322.877 75.648 321.876 76.5957 320.723 77.3084C319.571 78.0211 318.532 78.3774 317.607 78.3774C317.122 78.3774 316.735 78.294 316.447 78.1272C316.281 78.7944 316.144 79.3858 316.038 79.9013C315.932 80.432 315.826 80.9097 315.72 81.3343C315.629 81.774 315.522 82.2289 315.401 82.699C315.143 83.6998 314.931 84.2001 314.764 84.2001ZM317.403 77.0582C318.206 77.0582 319.078 76.7928 320.018 76.2621C320.958 75.7314 321.785 74.9808 322.498 74.0103C323.21 73.0399 323.567 72.0163 323.567 70.9397C323.567 69.4082 323.233 68.6425 322.566 68.6425C321.914 68.6425 321.027 69.249 319.905 70.4621C318.783 71.66 317.918 73.0171 317.312 74.5335L316.698 76.9899C316.91 77.0354 317.145 77.0582 317.403 77.0582Z" fill="#558FFF"/>
<path d="M314.764 84.2001C314.582 84.2001 314.416 84.0864 314.264 83.859C314.097 83.6467 314.014 83.442 314.014 83.2448C314.014 83.0477 314.271 81.9256 314.787 79.8786C316.318 73.7677 317.084 69.8101 317.084 68.0056C317.084 67.7478 317.107 67.5735 317.152 67.4825C317.198 67.3763 317.312 67.3233 317.494 67.3233C317.676 67.3233 317.896 67.4976 318.153 67.8464C318.426 68.18 318.563 68.506 318.563 68.8244C318.563 69.1429 318.434 69.848 318.176 70.9397C318.889 69.757 319.647 68.8472 320.451 68.2103C321.254 67.5735 322.02 67.255 322.748 67.255C323.476 67.255 324.029 67.6265 324.408 68.3695C324.802 69.1126 325 70.0224 325 71.099C325 72.1604 324.575 73.2825 323.726 74.4652C322.877 75.648 321.876 76.5957 320.723 77.3084C319.571 78.0211 318.532 78.3774 317.607 78.3774C317.122 78.3774 316.735 78.294 316.447 78.1272C316.281 78.7944 316.144 79.3858 316.038 79.9013C315.932 80.432 315.826 80.9097 315.72 81.3343C315.629 81.774 315.522 82.2289 315.401 82.699C315.143 83.6998 314.931 84.2001 314.764 84.2001ZM317.403 77.0582C318.206 77.0582 319.078 76.7928 320.018 76.2621C320.958 75.7314 321.785 74.9808 322.498 74.0103C323.21 73.0399 323.567 72.0163 323.567 70.9397C323.567 69.4082 323.233 68.6425 322.566 68.6425C321.914 68.6425 321.027 69.249 319.905 70.4621C318.783 71.66 317.918 73.0171 317.312 74.5335L316.698 76.9899C316.91 77.0354 317.145 77.0582 317.403 77.0582Z" fill="url(#paint2_linear_33_1823)" fill-opacity="0.2"/>
<path d="M310.144 76.0575C310.842 75.3297 311.365 74.5109 311.713 73.6011C312.077 72.6913 312.259 71.8876 312.259 71.1901C312.259 70.4926 312.138 69.9012 311.895 69.416C311.668 68.9156 311.357 68.5744 310.963 68.3924C309.704 68.6351 308.673 69.4463 307.87 70.8262C307.066 72.206 306.664 73.6466 306.664 75.1477C306.664 76.285 307.051 76.9901 307.824 77.263C308.673 77.1721 309.447 76.7702 310.144 76.0575ZM306.05 71.3948C306.55 70.2424 307.233 69.2871 308.097 68.5289C308.976 67.7556 309.856 67.3689 310.735 67.3689C311.63 67.3689 312.328 67.748 312.828 68.5062C313.344 69.2492 313.601 70.1211 313.601 71.1219C313.601 72.9111 313.018 74.5715 311.85 76.103C310.682 77.6345 309.333 78.4003 307.801 78.4003C307.043 78.4003 306.437 78.0591 305.982 77.3768C305.527 76.6944 305.299 75.8149 305.299 74.7383C305.299 73.6466 305.55 72.5321 306.05 71.3948Z" fill="#558FFF"/>
<path d="M310.144 76.0575C310.842 75.3297 311.365 74.5109 311.713 73.6011C312.077 72.6913 312.259 71.8876 312.259 71.1901C312.259 70.4926 312.138 69.9012 311.895 69.416C311.668 68.9156 311.357 68.5744 310.963 68.3924C309.704 68.6351 308.673 69.4463 307.87 70.8262C307.066 72.206 306.664 73.6466 306.664 75.1477C306.664 76.285 307.051 76.9901 307.824 77.263C308.673 77.1721 309.447 76.7702 310.144 76.0575ZM306.05 71.3948C306.55 70.2424 307.233 69.2871 308.097 68.5289C308.976 67.7556 309.856 67.3689 310.735 67.3689C311.63 67.3689 312.328 67.748 312.828 68.5062C313.344 69.2492 313.601 70.1211 313.601 71.1219C313.601 72.9111 313.018 74.5715 311.85 76.103C310.682 77.6345 309.333 78.4003 307.801 78.4003C307.043 78.4003 306.437 78.0591 305.982 77.3768C305.527 76.6944 305.299 75.8149 305.299 74.7383C305.299 73.6466 305.55 72.5321 306.05 71.3948Z" fill="url(#paint3_linear_33_1823)" fill-opacity="0.2"/>
<path d="M295.304 61.8416C295.304 61.508 295.334 61.2881 295.395 61.182C295.455 61.0607 295.584 61 295.781 61C295.978 61 296.183 61.1668 296.395 61.5004C296.608 61.834 296.714 62.1827 296.714 62.5467C296.714 63.7597 296.494 65.6173 296.054 68.1192C295.63 70.606 294.963 73.1307 294.053 75.6933C295.857 72.5394 297.252 70.3634 298.238 69.1655C299.223 67.9676 300.073 67.3686 300.785 67.3686C301.149 67.3686 301.566 67.6719 302.036 68.2784C302.521 68.8698 302.764 69.5294 302.764 70.2573C302.764 70.9851 302.521 72.1148 302.036 73.6463C301.551 75.1626 301.119 76.3378 300.74 77.1718C300.376 77.9906 300.027 78.4 299.694 78.4C299.451 78.4 299.33 78.2711 299.33 78.0133C299.33 77.7404 299.398 77.3916 299.534 76.9671C299.671 76.5273 299.868 75.9511 300.126 75.2384C300.99 72.8881 301.422 71.2126 301.422 70.2118C301.422 69.8782 301.316 69.5977 301.104 69.3702C300.907 69.1276 300.717 69.0063 300.535 69.0063C300.095 69.0063 299.595 69.3475 299.034 70.0298C298.488 70.7122 297.912 71.5158 297.305 72.4408C296.699 73.3506 296.365 73.8434 296.305 73.9192C296.259 73.995 296.198 74.0936 296.123 74.2149C296.047 74.3362 295.91 74.5485 295.713 74.8518C295.516 75.1399 295.198 75.6403 294.758 76.353C293.909 77.7177 293.439 78.4 293.348 78.4C293.196 78.4 293.022 78.2939 292.824 78.0816C292.627 77.8541 292.529 77.6494 292.529 77.4675C292.529 77.2703 292.62 76.8306 292.802 76.1482C293.545 73.5401 294.06 71.4931 294.348 70.0071C294.985 66.7773 295.304 64.0554 295.304 61.8416Z" fill="#558FFF"/>
<path d="M295.304 61.8416C295.304 61.508 295.334 61.2881 295.395 61.182C295.455 61.0607 295.584 61 295.781 61C295.978 61 296.183 61.1668 296.395 61.5004C296.608 61.834 296.714 62.1827 296.714 62.5467C296.714 63.7597 296.494 65.6173 296.054 68.1192C295.63 70.606 294.963 73.1307 294.053 75.6933C295.857 72.5394 297.252 70.3634 298.238 69.1655C299.223 67.9676 300.073 67.3686 300.785 67.3686C301.149 67.3686 301.566 67.6719 302.036 68.2784C302.521 68.8698 302.764 69.5294 302.764 70.2573C302.764 70.9851 302.521 72.1148 302.036 73.6463C301.551 75.1626 301.119 76.3378 300.74 77.1718C300.376 77.9906 300.027 78.4 299.694 78.4C299.451 78.4 299.33 78.2711 299.33 78.0133C299.33 77.7404 299.398 77.3916 299.534 76.9671C299.671 76.5273 299.868 75.9511 300.126 75.2384C300.99 72.8881 301.422 71.2126 301.422 70.2118C301.422 69.8782 301.316 69.5977 301.104 69.3702C300.907 69.1276 300.717 69.0063 300.535 69.0063C300.095 69.0063 299.595 69.3475 299.034 70.0298C298.488 70.7122 297.912 71.5158 297.305 72.4408C296.699 73.3506 296.365 73.8434 296.305 73.9192C296.259 73.995 296.198 74.0936 296.123 74.2149C296.047 74.3362 295.91 74.5485 295.713 74.8518C295.516 75.1399 295.198 75.6403 294.758 76.353C293.909 77.7177 293.439 78.4 293.348 78.4C293.196 78.4 293.022 78.2939 292.824 78.0816C292.627 77.8541 292.529 77.6494 292.529 77.4675C292.529 77.2703 292.62 76.8306 292.802 76.1482C293.545 73.5401 294.06 71.4931 294.348 70.0071C294.985 66.7773 295.304 64.0554 295.304 61.8416Z" fill="url(#paint4_linear_33_1823)" fill-opacity="0.2"/>
<path d="M289.156 67.3689C289.641 67.3689 290.081 67.6267 290.475 68.1422C290.885 68.6426 291.089 69.0369 291.089 69.325C291.089 69.5979 290.998 69.7344 290.816 69.7344C290.634 69.7344 290.369 69.5676 290.02 69.234C289.672 68.9004 289.308 68.7336 288.929 68.7336C288.549 68.7336 287.95 68.999 287.132 69.5297C286.313 70.0453 285.903 70.5608 285.903 71.0764C285.903 71.4403 286.411 71.9483 287.427 72.6003C287.852 72.8732 288.276 73.1689 288.701 73.4873C289.717 74.2455 290.225 74.9885 290.225 75.7164C290.225 76.4442 289.838 77.0735 289.065 77.6042C288.292 78.1349 287.389 78.4003 286.358 78.4003C285.327 78.4003 284.402 78.1425 283.583 77.627C282.78 77.1114 282.378 76.6489 282.378 76.2395C282.378 76.103 282.416 75.9893 282.492 75.8983C282.583 75.8073 282.681 75.7619 282.787 75.7619C282.909 75.7619 283.106 75.8756 283.379 76.103C284.243 76.7702 285.138 77.1038 286.063 77.1038C287.852 77.1038 288.747 76.6338 288.747 75.6936C288.747 75.2842 288.519 74.8824 288.064 74.4881C287.624 74.0787 287.139 73.73 286.609 73.4419C286.078 73.1538 285.585 72.7898 285.13 72.3501C284.69 71.9104 284.47 71.463 284.47 71.0081C284.47 70.2196 285.039 69.416 286.176 68.5971C287.329 67.7783 288.322 67.3689 289.156 67.3689Z" fill="#558FFF"/>
<path d="M289.156 67.3689C289.641 67.3689 290.081 67.6267 290.475 68.1422C290.885 68.6426 291.089 69.0369 291.089 69.325C291.089 69.5979 290.998 69.7344 290.816 69.7344C290.634 69.7344 290.369 69.5676 290.02 69.234C289.672 68.9004 289.308 68.7336 288.929 68.7336C288.549 68.7336 287.95 68.999 287.132 69.5297C286.313 70.0453 285.903 70.5608 285.903 71.0764C285.903 71.4403 286.411 71.9483 287.427 72.6003C287.852 72.8732 288.276 73.1689 288.701 73.4873C289.717 74.2455 290.225 74.9885 290.225 75.7164C290.225 76.4442 289.838 77.0735 289.065 77.6042C288.292 78.1349 287.389 78.4003 286.358 78.4003C285.327 78.4003 284.402 78.1425 283.583 77.627C282.78 77.1114 282.378 76.6489 282.378 76.2395C282.378 76.103 282.416 75.9893 282.492 75.8983C282.583 75.8073 282.681 75.7619 282.787 75.7619C282.909 75.7619 283.106 75.8756 283.379 76.103C284.243 76.7702 285.138 77.1038 286.063 77.1038C287.852 77.1038 288.747 76.6338 288.747 75.6936C288.747 75.2842 288.519 74.8824 288.064 74.4881C287.624 74.0787 287.139 73.73 286.609 73.4419C286.078 73.1538 285.585 72.7898 285.13 72.3501C284.69 71.9104 284.47 71.463 284.47 71.0081C284.47 70.2196 285.039 69.416 286.176 68.5971C287.329 67.7783 288.322 67.3689 289.156 67.3689Z" fill="url(#paint5_linear_33_1823)" fill-opacity="0.2"/>
<path d="M268.532 69.1201C268.199 70.4545 267.789 71.9026 267.304 73.4644C266.834 75.0111 266.599 75.9891 266.599 76.3986C266.599 76.808 266.804 77.0127 267.213 77.0127C267.941 77.0127 268.684 76.861 269.442 76.5578C270.2 76.2393 270.61 76.0801 270.67 76.0801C270.883 76.0801 270.989 76.1711 270.989 76.3531C270.989 76.717 270.564 77.1491 269.715 77.6495C268.881 78.1499 268.115 78.4001 267.418 78.4001C266.735 78.4001 266.197 78.2409 265.803 77.9225C265.409 77.5889 265.212 77.2098 265.212 76.7852C265.212 76.3606 265.31 75.7844 265.507 75.0566C265.704 74.3287 265.977 73.3962 266.326 72.2589C266.69 71.1065 266.971 70.1512 267.168 69.3931C266.334 69.5447 265.826 69.6205 265.644 69.6205C265.477 69.6205 265.303 69.5371 265.121 69.3703C264.939 69.2035 264.848 69.0519 264.848 68.9154C264.848 68.6425 265.735 68.3316 267.509 67.9829C267.767 66.7243 267.896 65.6629 267.896 64.7985C267.896 64.3436 268.009 64.1162 268.237 64.1162C268.419 64.1162 268.631 64.2451 268.874 64.5029C269.131 64.7455 269.26 65.026 269.26 65.3444C269.26 65.6477 269.124 66.4589 268.851 67.7782C269.912 67.6265 270.663 67.5507 271.103 67.5507C271.891 67.5507 272.285 67.7099 272.285 68.0284C272.285 68.2103 272.103 68.3544 271.739 68.4605L268.532 69.1201Z" fill="#558FFF"/>
<path d="M268.532 69.1201C268.199 70.4545 267.789 71.9026 267.304 73.4644C266.834 75.0111 266.599 75.9891 266.599 76.3986C266.599 76.808 266.804 77.0127 267.213 77.0127C267.941 77.0127 268.684 76.861 269.442 76.5578C270.2 76.2393 270.61 76.0801 270.67 76.0801C270.883 76.0801 270.989 76.1711 270.989 76.3531C270.989 76.717 270.564 77.1491 269.715 77.6495C268.881 78.1499 268.115 78.4001 267.418 78.4001C266.735 78.4001 266.197 78.2409 265.803 77.9225C265.409 77.5889 265.212 77.2098 265.212 76.7852C265.212 76.3606 265.31 75.7844 265.507 75.0566C265.704 74.3287 265.977 73.3962 266.326 72.2589C266.69 71.1065 266.971 70.1512 267.168 69.3931C266.334 69.5447 265.826 69.6205 265.644 69.6205C265.477 69.6205 265.303 69.5371 265.121 69.3703C264.939 69.2035 264.848 69.0519 264.848 68.9154C264.848 68.6425 265.735 68.3316 267.509 67.9829C267.767 66.7243 267.896 65.6629 267.896 64.7985C267.896 64.3436 268.009 64.1162 268.237 64.1162C268.419 64.1162 268.631 64.2451 268.874 64.5029C269.131 64.7455 269.26 65.026 269.26 65.3444C269.26 65.6477 269.124 66.4589 268.851 67.7782C269.912 67.6265 270.663 67.5507 271.103 67.5507C271.891 67.5507 272.285 67.7099 272.285 68.0284C272.285 68.2103 272.103 68.3544 271.739 68.4605L268.532 69.1201Z" fill="url(#paint6_linear_33_1823)" fill-opacity="0.2"/>
<path d="M263.103 70.9626C263.103 71.7511 262.701 72.3804 261.897 72.8505C261.093 73.3054 260.168 73.5328 259.122 73.5328C258.076 73.5328 256.977 73.3888 255.824 73.1007C255.582 73.874 255.46 74.5639 255.46 75.1705C255.46 75.777 255.673 76.2547 256.097 76.6034C256.522 76.937 257.083 77.1038 257.78 77.1038C258.478 77.1038 259.221 76.9598 260.009 76.6717C260.798 76.3836 261.245 76.2395 261.351 76.2395C261.624 76.2395 261.761 76.3608 261.761 76.6034C261.761 76.9067 261.313 77.2858 260.419 77.7407C259.524 78.1804 258.705 78.4003 257.962 78.4003C256.916 78.4003 256.021 78.0743 255.278 77.4223C254.55 76.7551 254.187 75.8983 254.187 74.8521C254.187 73.7906 254.459 72.6761 255.005 71.5085C255.551 70.3409 256.264 69.3629 257.143 68.5744C258.023 67.7707 258.887 67.3689 259.736 67.3689C260.601 67.3689 261.374 67.7707 262.056 68.5744C262.754 69.3629 263.103 70.159 263.103 70.9626ZM259.918 68.6426C259.236 68.6426 258.554 68.9762 257.871 69.6434C257.204 70.3106 256.651 71.1446 256.211 72.1454C257.09 72.3577 257.962 72.4638 258.827 72.4638C259.706 72.4638 260.419 72.3198 260.965 72.0317C261.526 71.7284 261.806 71.3417 261.806 70.8717C261.806 70.3864 261.601 69.8936 261.192 69.3932C260.783 68.8928 260.358 68.6426 259.918 68.6426Z" fill="#558FFF"/>
<path d="M263.103 70.9626C263.103 71.7511 262.701 72.3804 261.897 72.8505C261.093 73.3054 260.168 73.5328 259.122 73.5328C258.076 73.5328 256.977 73.3888 255.824 73.1007C255.582 73.874 255.46 74.5639 255.46 75.1705C255.46 75.777 255.673 76.2547 256.097 76.6034C256.522 76.937 257.083 77.1038 257.78 77.1038C258.478 77.1038 259.221 76.9598 260.009 76.6717C260.798 76.3836 261.245 76.2395 261.351 76.2395C261.624 76.2395 261.761 76.3608 261.761 76.6034C261.761 76.9067 261.313 77.2858 260.419 77.7407C259.524 78.1804 258.705 78.4003 257.962 78.4003C256.916 78.4003 256.021 78.0743 255.278 77.4223C254.55 76.7551 254.187 75.8983 254.187 74.8521C254.187 73.7906 254.459 72.6761 255.005 71.5085C255.551 70.3409 256.264 69.3629 257.143 68.5744C258.023 67.7707 258.887 67.3689 259.736 67.3689C260.601 67.3689 261.374 67.7707 262.056 68.5744C262.754 69.3629 263.103 70.159 263.103 70.9626ZM259.918 68.6426C259.236 68.6426 258.554 68.9762 257.871 69.6434C257.204 70.3106 256.651 71.1446 256.211 72.1454C257.09 72.3577 257.962 72.4638 258.827 72.4638C259.706 72.4638 260.419 72.3198 260.965 72.0317C261.526 71.7284 261.806 71.3417 261.806 70.8717C261.806 70.3864 261.601 69.8936 261.192 69.3932C260.783 68.8928 260.358 68.6426 259.918 68.6426Z" fill="url(#paint7_linear_33_1823)" fill-opacity="0.2"/>
<path d="M242.989 84.2001C242.807 84.2001 242.641 84.0864 242.489 83.859C242.322 83.6467 242.239 83.442 242.239 83.2448C242.239 83.0477 242.497 81.9256 243.012 79.8786C244.544 73.7677 245.309 69.8101 245.309 68.0056C245.309 67.7478 245.332 67.5735 245.378 67.4825C245.423 67.3763 245.537 67.3233 245.719 67.3233C245.901 67.3233 246.121 67.4976 246.378 67.8464C246.651 68.18 246.788 68.506 246.788 68.8244C246.788 69.1429 246.659 69.848 246.401 70.9397C247.114 69.757 247.872 68.8472 248.676 68.2103C249.479 67.5735 250.245 67.255 250.973 67.255C251.701 67.255 252.254 67.6265 252.633 68.3695C253.028 69.1126 253.225 70.0224 253.225 71.099C253.225 72.1604 252.8 73.2825 251.951 74.4652C251.102 75.648 250.101 76.5957 248.949 77.3084C247.796 78.0211 246.757 78.3774 245.832 78.3774C245.347 78.3774 244.961 78.294 244.673 78.1272C244.506 78.7944 244.369 79.3858 244.263 79.9013C244.157 80.432 244.051 80.9097 243.945 81.3343C243.854 81.774 243.748 82.2289 243.626 82.699C243.368 83.6998 243.156 84.2001 242.989 84.2001ZM245.628 77.0582C246.431 77.0582 247.303 76.7928 248.243 76.2621C249.184 75.7314 250.01 74.9808 250.723 74.0103C251.435 73.0399 251.792 72.0163 251.792 70.9397C251.792 69.4082 251.458 68.6425 250.791 68.6425C250.139 68.6425 249.252 69.249 248.13 70.4621C247.008 71.66 246.143 73.0171 245.537 74.5335L244.923 76.9899C245.135 77.0354 245.37 77.0582 245.628 77.0582Z" fill="#558FFF"/>
<path d="M242.989 84.2001C242.807 84.2001 242.641 84.0864 242.489 83.859C242.322 83.6467 242.239 83.442 242.239 83.2448C242.239 83.0477 242.497 81.9256 243.012 79.8786C244.544 73.7677 245.309 69.8101 245.309 68.0056C245.309 67.7478 245.332 67.5735 245.378 67.4825C245.423 67.3763 245.537 67.3233 245.719 67.3233C245.901 67.3233 246.121 67.4976 246.378 67.8464C246.651 68.18 246.788 68.506 246.788 68.8244C246.788 69.1429 246.659 69.848 246.401 70.9397C247.114 69.757 247.872 68.8472 248.676 68.2103C249.479 67.5735 250.245 67.255 250.973 67.255C251.701 67.255 252.254 67.6265 252.633 68.3695C253.028 69.1126 253.225 70.0224 253.225 71.099C253.225 72.1604 252.8 73.2825 251.951 74.4652C251.102 75.648 250.101 76.5957 248.949 77.3084C247.796 78.0211 246.757 78.3774 245.832 78.3774C245.347 78.3774 244.961 78.294 244.673 78.1272C244.506 78.7944 244.369 79.3858 244.263 79.9013C244.157 80.432 244.051 80.9097 243.945 81.3343C243.854 81.774 243.748 82.2289 243.626 82.699C243.368 83.6998 243.156 84.2001 242.989 84.2001ZM245.628 77.0582C246.431 77.0582 247.303 76.7928 248.243 76.2621C249.184 75.7314 250.01 74.9808 250.723 74.0103C251.435 73.0399 251.792 72.0163 251.792 70.9397C251.792 69.4082 251.458 68.6425 250.791 68.6425C250.139 68.6425 249.252 69.249 248.13 70.4621C247.008 71.66 246.143 73.0171 245.537 74.5335L244.923 76.9899C245.135 77.0354 245.37 77.0582 245.628 77.0582Z" fill="url(#paint8_linear_33_1823)" fill-opacity="0.2"/>
<path d="M232.507 70.9626C232.507 71.7511 232.105 72.3804 231.301 72.8505C230.498 73.3054 229.573 73.5328 228.527 73.5328C227.48 73.5328 226.381 73.3888 225.228 73.1007C224.986 73.874 224.865 74.5639 224.865 75.1705C224.865 75.777 225.077 76.2547 225.501 76.6034C225.926 76.937 226.487 77.1038 227.185 77.1038C227.882 77.1038 228.625 76.9598 229.414 76.6717C230.202 76.3836 230.649 76.2395 230.756 76.2395C231.028 76.2395 231.165 76.3608 231.165 76.6034C231.165 76.9067 230.718 77.2858 229.823 77.7407C228.928 78.1804 228.11 78.4003 227.367 78.4003C226.32 78.4003 225.426 78.0743 224.683 77.4223C223.955 76.7551 223.591 75.8983 223.591 74.8521C223.591 73.7906 223.864 72.6761 224.41 71.5085C224.956 70.3409 225.668 69.3629 226.548 68.5744C227.427 67.7707 228.291 67.3689 229.141 67.3689C230.005 67.3689 230.778 67.7707 231.461 68.5744C232.158 69.3629 232.507 70.159 232.507 70.9626ZM229.323 68.6426C228.64 68.6426 227.958 68.9762 227.276 69.6434C226.608 70.3106 226.055 71.1446 225.615 72.1454C226.495 72.3577 227.367 72.4638 228.231 72.4638C229.11 72.4638 229.823 72.3198 230.369 72.0317C230.93 71.7284 231.21 71.3417 231.21 70.8717C231.21 70.3864 231.006 69.8936 230.596 69.3932C230.187 68.8928 229.762 68.6426 229.323 68.6426Z" fill="#558FFF"/>
<path d="M232.507 70.9626C232.507 71.7511 232.105 72.3804 231.301 72.8505C230.498 73.3054 229.573 73.5328 228.527 73.5328C227.48 73.5328 226.381 73.3888 225.228 73.1007C224.986 73.874 224.865 74.5639 224.865 75.1705C224.865 75.777 225.077 76.2547 225.501 76.6034C225.926 76.937 226.487 77.1038 227.185 77.1038C227.882 77.1038 228.625 76.9598 229.414 76.6717C230.202 76.3836 230.649 76.2395 230.756 76.2395C231.028 76.2395 231.165 76.3608 231.165 76.6034C231.165 76.9067 230.718 77.2858 229.823 77.7407C228.928 78.1804 228.11 78.4003 227.367 78.4003C226.32 78.4003 225.426 78.0743 224.683 77.4223C223.955 76.7551 223.591 75.8983 223.591 74.8521C223.591 73.7906 223.864 72.6761 224.41 71.5085C224.956 70.3409 225.668 69.3629 226.548 68.5744C227.427 67.7707 228.291 67.3689 229.141 67.3689C230.005 67.3689 230.778 67.7707 231.461 68.5744C232.158 69.3629 232.507 70.159 232.507 70.9626ZM229.323 68.6426C228.64 68.6426 227.958 68.9762 227.276 69.6434C226.608 70.3106 226.055 71.1446 225.615 72.1454C226.495 72.3577 227.367 72.4638 228.231 72.4638C229.11 72.4638 229.823 72.3198 230.369 72.0317C230.93 71.7284 231.21 71.3417 231.21 70.8717C231.21 70.3864 231.006 69.8936 230.596 69.3932C230.187 68.8928 229.762 68.6426 229.323 68.6426Z" fill="url(#paint9_linear_33_1823)" fill-opacity="0.2"/>
<path d="M219.279 69.1201C218.946 70.4545 218.536 71.9026 218.051 73.4644C217.581 75.0111 217.346 75.9891 217.346 76.3986C217.346 76.808 217.551 77.0127 217.96 77.0127C218.688 77.0127 219.431 76.861 220.189 76.5578C220.947 76.2393 221.357 76.0801 221.417 76.0801C221.63 76.0801 221.736 76.1711 221.736 76.3531C221.736 76.717 221.311 77.1491 220.462 77.6495C219.628 78.1499 218.862 78.4001 218.165 78.4001C217.483 78.4001 216.944 78.2409 216.55 77.9225C216.156 77.5889 215.959 77.2098 215.959 76.7852C215.959 76.3606 216.057 75.7844 216.254 75.0566C216.451 74.3287 216.724 73.3962 217.073 72.2589C217.437 71.1065 217.718 70.1512 217.915 69.3931C217.081 69.5447 216.573 69.6205 216.391 69.6205C216.224 69.6205 216.05 69.5371 215.868 69.3703C215.686 69.2035 215.595 69.0519 215.595 68.9154C215.595 68.6425 216.482 68.3316 218.256 67.9829C218.514 66.7243 218.643 65.6629 218.643 64.7985C218.643 64.3436 218.756 64.1162 218.984 64.1162C219.166 64.1162 219.378 64.2451 219.621 64.5029C219.878 64.7455 220.007 65.026 220.007 65.3444C220.007 65.6477 219.871 66.4589 219.598 67.7782C220.659 67.6265 221.41 67.5507 221.85 67.5507C222.638 67.5507 223.032 67.7099 223.032 68.0284C223.032 68.2103 222.85 68.3544 222.486 68.4605L219.279 69.1201Z" fill="#558FFF"/>
<path d="M219.279 69.1201C218.946 70.4545 218.536 71.9026 218.051 73.4644C217.581 75.0111 217.346 75.9891 217.346 76.3986C217.346 76.808 217.551 77.0127 217.96 77.0127C218.688 77.0127 219.431 76.861 220.189 76.5578C220.947 76.2393 221.357 76.0801 221.417 76.0801C221.63 76.0801 221.736 76.1711 221.736 76.3531C221.736 76.717 221.311 77.1491 220.462 77.6495C219.628 78.1499 218.862 78.4001 218.165 78.4001C217.483 78.4001 216.944 78.2409 216.55 77.9225C216.156 77.5889 215.959 77.2098 215.959 76.7852C215.959 76.3606 216.057 75.7844 216.254 75.0566C216.451 74.3287 216.724 73.3962 217.073 72.2589C217.437 71.1065 217.718 70.1512 217.915 69.3931C217.081 69.5447 216.573 69.6205 216.391 69.6205C216.224 69.6205 216.05 69.5371 215.868 69.3703C215.686 69.2035 215.595 69.0519 215.595 68.9154C215.595 68.6425 216.482 68.3316 218.256 67.9829C218.514 66.7243 218.643 65.6629 218.643 64.7985C218.643 64.3436 218.756 64.1162 218.984 64.1162C219.166 64.1162 219.378 64.2451 219.621 64.5029C219.878 64.7455 220.007 65.026 220.007 65.3444C220.007 65.6477 219.871 66.4589 219.598 67.7782C220.659 67.6265 221.41 67.5507 221.85 67.5507C222.638 67.5507 223.032 67.7099 223.032 68.0284C223.032 68.2103 222.85 68.3544 222.486 68.4605L219.279 69.1201Z" fill="url(#paint10_linear_33_1823)" fill-opacity="0.2"/>
<path d="M213.284 63.9342C213.284 63.6764 213.368 63.449 213.534 63.2518C213.716 63.0547 213.914 62.9562 214.126 62.9562C214.338 62.9562 214.581 63.2139 214.854 63.7295C215.127 64.2451 215.263 64.6166 215.263 64.844C215.263 65.2231 215.134 65.4126 214.876 65.4126C214.558 65.4126 214.209 65.2307 213.83 64.8668C213.466 64.5028 213.284 64.192 213.284 63.9342ZM212.306 68.3922C212.412 68.0132 212.511 67.7478 212.602 67.5962C212.708 67.4445 212.829 67.3687 212.966 67.3687C213.102 67.3687 213.254 67.4749 213.421 67.6871C213.588 67.8843 213.671 68.0814 213.671 68.2785C213.671 69.2945 212.898 72.2437 211.351 77.1264C211.063 77.9755 210.767 78.4001 210.464 78.4001C210.312 78.4001 210.183 78.3394 210.077 78.2181C209.971 78.0817 209.918 77.9224 209.918 77.7405C209.918 77.5434 209.986 77.1946 210.123 76.6942C210.274 76.1787 210.464 75.5342 210.691 74.7609C210.919 73.9724 211.093 73.3279 211.214 72.8275C211.351 72.312 211.495 71.7206 211.647 71.0534C211.813 70.3711 211.935 69.8479 212.011 69.484C212.101 69.1201 212.2 68.7562 212.306 68.3922Z" fill="#558FFF"/>
<path d="M213.284 63.9342C213.284 63.6764 213.368 63.449 213.534 63.2518C213.716 63.0547 213.914 62.9562 214.126 62.9562C214.338 62.9562 214.581 63.2139 214.854 63.7295C215.127 64.2451 215.263 64.6166 215.263 64.844C215.263 65.2231 215.134 65.4126 214.876 65.4126C214.558 65.4126 214.209 65.2307 213.83 64.8668C213.466 64.5028 213.284 64.192 213.284 63.9342ZM212.306 68.3922C212.412 68.0132 212.511 67.7478 212.602 67.5962C212.708 67.4445 212.829 67.3687 212.966 67.3687C213.102 67.3687 213.254 67.4749 213.421 67.6871C213.588 67.8843 213.671 68.0814 213.671 68.2785C213.671 69.2945 212.898 72.2437 211.351 77.1264C211.063 77.9755 210.767 78.4001 210.464 78.4001C210.312 78.4001 210.183 78.3394 210.077 78.2181C209.971 78.0817 209.918 77.9224 209.918 77.7405C209.918 77.5434 209.986 77.1946 210.123 76.6942C210.274 76.1787 210.464 75.5342 210.691 74.7609C210.919 73.9724 211.093 73.3279 211.214 72.8275C211.351 72.312 211.495 71.7206 211.647 71.0534C211.813 70.3711 211.935 69.8479 212.011 69.484C212.101 69.1201 212.2 68.7562 212.306 68.3922Z" fill="url(#paint11_linear_33_1823)" fill-opacity="0.2"/>
<path d="M203.812 69.5752L203.766 68.347C203.766 67.8314 203.804 67.5433 203.88 67.4826C203.956 67.4068 204.032 67.3689 204.107 67.3689C204.32 67.3689 204.532 67.5281 204.744 67.8466C204.957 68.165 205.063 68.5062 205.063 68.8701C205.063 69.8405 204.979 70.811 204.813 71.7815C205.267 70.8262 205.753 70.0073 206.268 69.325C206.784 68.6275 207.261 68.1422 207.701 67.8693C208.141 67.5964 208.535 67.4599 208.884 67.4599C209.551 67.4599 209.885 67.5964 209.885 67.8693C209.885 68.0664 209.65 68.2636 209.18 68.4607C208.285 68.8094 207.565 69.3553 207.019 70.0983C206.473 70.8262 205.935 71.7739 205.404 72.9415C204.873 74.0939 204.464 75.125 204.176 76.0348C203.903 76.9446 203.698 77.5815 203.562 77.9454C203.425 78.3093 203.251 78.4913 203.038 78.4913C202.872 78.4913 202.728 78.3851 202.606 78.1728C202.485 77.9606 202.424 77.7558 202.424 77.5587C202.424 77.3464 202.47 77.0735 202.561 76.7399C202.985 75.3449 203.296 74.1545 203.493 73.1689C203.706 72.1681 203.812 70.9702 203.812 69.5752Z" fill="#558FFF"/>
<path d="M203.812 69.5752L203.766 68.347C203.766 67.8314 203.804 67.5433 203.88 67.4826C203.956 67.4068 204.032 67.3689 204.107 67.3689C204.32 67.3689 204.532 67.5281 204.744 67.8466C204.957 68.165 205.063 68.5062 205.063 68.8701C205.063 69.8405 204.979 70.811 204.813 71.7815C205.267 70.8262 205.753 70.0073 206.268 69.325C206.784 68.6275 207.261 68.1422 207.701 67.8693C208.141 67.5964 208.535 67.4599 208.884 67.4599C209.551 67.4599 209.885 67.5964 209.885 67.8693C209.885 68.0664 209.65 68.2636 209.18 68.4607C208.285 68.8094 207.565 69.3553 207.019 70.0983C206.473 70.8262 205.935 71.7739 205.404 72.9415C204.873 74.0939 204.464 75.125 204.176 76.0348C203.903 76.9446 203.698 77.5815 203.562 77.9454C203.425 78.3093 203.251 78.4913 203.038 78.4913C202.872 78.4913 202.728 78.3851 202.606 78.1728C202.485 77.9606 202.424 77.7558 202.424 77.5587C202.424 77.3464 202.47 77.0735 202.561 76.7399C202.985 75.3449 203.296 74.1545 203.493 73.1689C203.706 72.1681 203.812 70.9702 203.812 69.5752Z" fill="url(#paint12_linear_33_1823)" fill-opacity="0.2"/>
<path d="M199.205 67.7328C199.205 67.4902 199.319 67.3689 199.547 67.3689C199.729 67.3689 199.918 67.513 200.115 67.8011C200.312 68.074 200.411 68.3621 200.411 68.6654C200.411 68.7564 199.584 71.6829 197.932 77.445C197.75 78.0819 197.537 78.4003 197.295 78.4003C196.961 78.4003 196.794 78.1501 196.794 77.6497C196.794 77.1493 197.045 76.1106 197.545 74.5336C196.923 75.7315 196.211 76.6792 195.407 77.3768C194.618 78.0591 193.875 78.4003 193.178 78.4003C192.48 78.4003 191.889 78.1349 191.404 77.6042C190.934 77.0583 190.699 76.467 190.699 75.8301C190.699 74.89 190.903 73.7375 191.313 72.3728C191.737 70.993 192.207 69.8178 192.723 68.8473C193.254 67.8617 193.671 67.3689 193.974 67.3689C194.141 67.3689 194.285 67.4599 194.406 67.6419C194.543 67.8087 194.611 67.983 194.611 68.165C194.611 68.3318 194.399 68.8322 193.974 69.6662C193.565 70.5002 193.148 71.5085 192.723 72.6913C192.298 73.874 192.086 74.9582 192.086 75.9438C192.086 76.2926 192.192 76.5883 192.405 76.8309C192.632 77.0583 192.905 77.1721 193.223 77.1721C193.982 77.1721 194.8 76.5883 195.68 75.4207C196.575 74.2379 197.318 72.9642 197.909 71.5995C198.5 70.2651 198.925 69.0217 199.183 67.8693C199.198 67.8087 199.205 67.7632 199.205 67.7328Z" fill="#558FFF"/>
<path d="M199.205 67.7328C199.205 67.4902 199.319 67.3689 199.547 67.3689C199.729 67.3689 199.918 67.513 200.115 67.8011C200.312 68.074 200.411 68.3621 200.411 68.6654C200.411 68.7564 199.584 71.6829 197.932 77.445C197.75 78.0819 197.537 78.4003 197.295 78.4003C196.961 78.4003 196.794 78.1501 196.794 77.6497C196.794 77.1493 197.045 76.1106 197.545 74.5336C196.923 75.7315 196.211 76.6792 195.407 77.3768C194.618 78.0591 193.875 78.4003 193.178 78.4003C192.48 78.4003 191.889 78.1349 191.404 77.6042C190.934 77.0583 190.699 76.467 190.699 75.8301C190.699 74.89 190.903 73.7375 191.313 72.3728C191.737 70.993 192.207 69.8178 192.723 68.8473C193.254 67.8617 193.671 67.3689 193.974 67.3689C194.141 67.3689 194.285 67.4599 194.406 67.6419C194.543 67.8087 194.611 67.983 194.611 68.165C194.611 68.3318 194.399 68.8322 193.974 69.6662C193.565 70.5002 193.148 71.5085 192.723 72.6913C192.298 73.874 192.086 74.9582 192.086 75.9438C192.086 76.2926 192.192 76.5883 192.405 76.8309C192.632 77.0583 192.905 77.1721 193.223 77.1721C193.982 77.1721 194.8 76.5883 195.68 75.4207C196.575 74.2379 197.318 72.9642 197.909 71.5995C198.5 70.2651 198.925 69.0217 199.183 67.8693C199.198 67.8087 199.205 67.7632 199.205 67.7328Z" fill="url(#paint13_linear_33_1823)" fill-opacity="0.2"/>
<path d="M185.396 76.0575C186.093 75.3297 186.617 74.5109 186.965 73.6011C187.329 72.6913 187.511 71.8876 187.511 71.1901C187.511 70.4926 187.39 69.9012 187.147 69.416C186.92 68.9156 186.609 68.5744 186.215 68.3924C184.956 68.6351 183.925 69.4463 183.121 70.8262C182.318 72.206 181.916 73.6466 181.916 75.1477C181.916 76.285 182.303 76.9901 183.076 77.263C183.925 77.1721 184.698 76.7702 185.396 76.0575ZM181.302 71.3948C181.802 70.2424 182.485 69.2871 183.349 68.5289C184.228 67.7556 185.108 67.3689 185.987 67.3689C186.882 67.3689 187.58 67.748 188.08 68.5062C188.595 69.2492 188.853 70.1211 188.853 71.1219C188.853 72.9111 188.269 74.5715 187.102 76.103C185.934 77.6345 184.585 78.4003 183.053 78.4003C182.295 78.4003 181.689 78.0591 181.234 77.3768C180.779 76.6944 180.551 75.8149 180.551 74.7383C180.551 73.6466 180.801 72.5321 181.302 71.3948Z" fill="#558FFF"/>
<path d="M185.396 76.0575C186.093 75.3297 186.617 74.5109 186.965 73.6011C187.329 72.6913 187.511 71.8876 187.511 71.1901C187.511 70.4926 187.39 69.9012 187.147 69.416C186.92 68.9156 186.609 68.5744 186.215 68.3924C184.956 68.6351 183.925 69.4463 183.121 70.8262C182.318 72.206 181.916 73.6466 181.916 75.1477C181.916 76.285 182.303 76.9901 183.076 77.263C183.925 77.1721 184.698 76.7702 185.396 76.0575ZM181.302 71.3948C181.802 70.2424 182.485 69.2871 183.349 68.5289C184.228 67.7556 185.108 67.3689 185.987 67.3689C186.882 67.3689 187.58 67.748 188.08 68.5062C188.595 69.2492 188.853 70.1211 188.853 71.1219C188.853 72.9111 188.269 74.5715 187.102 76.103C185.934 77.6345 184.585 78.4003 183.053 78.4003C182.295 78.4003 181.689 78.0591 181.234 77.3768C180.779 76.6944 180.551 75.8149 180.551 74.7383C180.551 73.6466 180.801 72.5321 181.302 71.3948Z" fill="url(#paint14_linear_33_1823)" fill-opacity="0.2"/>
<path d="M178.029 67.3689C178.196 67.3689 178.371 67.4447 178.553 67.5964C178.75 67.7328 178.848 67.8921 178.848 68.074C178.848 68.4228 178.515 69.3326 177.847 70.8034C177.18 72.2591 176.528 73.6921 175.891 75.1023C175.27 76.4973 174.838 77.4147 174.595 77.8544C174.352 78.279 174.102 78.4913 173.844 78.4913C173.101 78.4913 172.298 76.5428 171.433 72.6458C170.978 70.6594 170.751 69.09 170.751 67.9375C170.751 67.5585 170.85 67.3689 171.047 67.3689C171.259 67.3689 171.494 67.4751 171.752 67.6873C172.025 67.8996 172.176 68.1498 172.207 68.4379C172.404 72.1378 172.98 74.943 173.935 76.8536C174.254 76.0803 174.792 74.7383 175.55 72.8277C176.308 70.902 176.877 69.5145 177.256 68.6654C177.635 67.8011 177.893 67.3689 178.029 67.3689Z" fill="#558FFF"/>
<path d="M178.029 67.3689C178.196 67.3689 178.371 67.4447 178.553 67.5964C178.75 67.7328 178.848 67.8921 178.848 68.074C178.848 68.4228 178.515 69.3326 177.847 70.8034C177.18 72.2591 176.528 73.6921 175.891 75.1023C175.27 76.4973 174.838 77.4147 174.595 77.8544C174.352 78.279 174.102 78.4913 173.844 78.4913C173.101 78.4913 172.298 76.5428 171.433 72.6458C170.978 70.6594 170.751 69.09 170.751 67.9375C170.751 67.5585 170.85 67.3689 171.047 67.3689C171.259 67.3689 171.494 67.4751 171.752 67.6873C172.025 67.8996 172.176 68.1498 172.207 68.4379C172.404 72.1378 172.98 74.943 173.935 76.8536C174.254 76.0803 174.792 74.7383 175.55 72.8277C176.308 70.902 176.877 69.5145 177.256 68.6654C177.635 67.8011 177.893 67.3689 178.029 67.3689Z" fill="url(#paint15_linear_33_1823)" fill-opacity="0.2"/>
<path d="M165.104 67.3689C165.893 67.3689 166.499 67.6949 166.924 68.347C167.363 68.999 167.583 69.5904 167.583 70.1211C167.583 70.6366 167.416 71.1219 167.083 71.5768C167.219 71.7284 167.288 71.9255 167.288 72.1681C167.288 73.1386 167.204 74.056 167.037 74.9203C166.886 75.7846 166.787 76.4745 166.742 76.9901C166.696 77.5056 166.643 77.8696 166.582 78.0819C166.537 78.2941 166.446 78.4003 166.31 78.4003C166.052 78.4003 165.885 78.1577 165.809 77.6724C165.733 77.1721 165.695 76.4063 165.695 75.3752C165.225 76.2092 164.626 76.9219 163.899 77.5132C163.186 78.1046 162.481 78.4003 161.783 78.4003C161.101 78.4003 160.441 78.1349 159.804 77.6042C159.168 77.0735 158.849 76.4897 158.849 75.8528C158.849 74.8824 159.183 73.73 159.85 72.3956C160.532 71.046 161.381 69.8709 162.397 68.8701C163.413 67.8693 164.316 67.3689 165.104 67.3689ZM166.401 71.3038C166.385 71.1977 166.378 70.9475 166.378 70.5532C166.378 70.1438 166.287 69.7344 166.105 69.325C165.938 68.9156 165.68 68.7109 165.331 68.7109C164.755 68.7109 164.058 69.1506 163.239 70.0301C162.435 70.8944 161.738 71.9028 161.146 73.0552C160.555 74.1924 160.259 75.1326 160.259 75.8756C160.259 76.2092 160.411 76.4897 160.714 76.7172C161.033 76.9446 161.366 77.0583 161.715 77.0583C162.504 77.0583 163.307 76.5504 164.126 75.5344C164.945 74.5185 165.567 73.2675 165.991 71.7815C166.037 71.5237 166.173 71.3645 166.401 71.3038Z" fill="#558FFF"/>
<path d="M165.104 67.3689C165.893 67.3689 166.499 67.6949 166.924 68.347C167.363 68.999 167.583 69.5904 167.583 70.1211C167.583 70.6366 167.416 71.1219 167.083 71.5768C167.219 71.7284 167.288 71.9255 167.288 72.1681C167.288 73.1386 167.204 74.056 167.037 74.9203C166.886 75.7846 166.787 76.4745 166.742 76.9901C166.696 77.5056 166.643 77.8696 166.582 78.0819C166.537 78.2941 166.446 78.4003 166.31 78.4003C166.052 78.4003 165.885 78.1577 165.809 77.6724C165.733 77.1721 165.695 76.4063 165.695 75.3752C165.225 76.2092 164.626 76.9219 163.899 77.5132C163.186 78.1046 162.481 78.4003 161.783 78.4003C161.101 78.4003 160.441 78.1349 159.804 77.6042C159.168 77.0735 158.849 76.4897 158.849 75.8528C158.849 74.8824 159.183 73.73 159.85 72.3956C160.532 71.046 161.381 69.8709 162.397 68.8701C163.413 67.8693 164.316 67.3689 165.104 67.3689ZM166.401 71.3038C166.385 71.1977 166.378 70.9475 166.378 70.5532C166.378 70.1438 166.287 69.7344 166.105 69.325C165.938 68.9156 165.68 68.7109 165.331 68.7109C164.755 68.7109 164.058 69.1506 163.239 70.0301C162.435 70.8944 161.738 71.9028 161.146 73.0552C160.555 74.1924 160.259 75.1326 160.259 75.8756C160.259 76.2092 160.411 76.4897 160.714 76.7172C161.033 76.9446 161.366 77.0583 161.715 77.0583C162.504 77.0583 163.307 76.5504 164.126 75.5344C164.945 74.5185 165.567 73.2675 165.991 71.7815C166.037 71.5237 166.173 71.3645 166.401 71.3038Z" fill="url(#paint16_linear_33_1823)" fill-opacity="0.2"/>
<path d="M152.35 78.4911C152.213 78.4911 152.069 78.4001 151.917 78.2182C151.766 78.0211 151.69 77.8467 151.69 77.695C151.69 77.5434 151.773 77.1492 151.94 76.5123C152.122 75.8603 152.395 74.8747 152.759 73.5554C153.123 72.2211 153.457 70.917 153.76 69.6433C153.077 69.7797 152.63 69.848 152.418 69.848C152.206 69.848 152.001 69.7722 151.804 69.6205C151.622 69.4689 151.531 69.3173 151.531 69.1656C151.531 68.923 152.213 68.6577 153.578 68.3695C153.805 68.3241 153.972 68.2861 154.078 68.2558C154.351 67.1489 154.609 66.0041 154.852 64.8213C155.367 62.3042 156.413 61.0456 157.99 61.0456C158.779 61.0456 159.385 61.3186 159.81 61.8644C160.235 62.4103 160.447 63.0017 160.447 63.6386C160.447 64.2603 160.326 64.5711 160.083 64.5711C159.886 64.5711 159.719 64.3816 159.583 64.0025C159.446 63.6082 159.264 63.2216 159.037 62.8425C158.824 62.4634 158.521 62.2739 158.127 62.2739C157.717 62.2739 157.391 62.4407 157.149 62.7743C156.876 63.1533 156.679 63.5703 156.557 64.0252C156.315 64.8137 155.974 66.1405 155.534 68.0056C156.08 67.9298 156.573 67.8919 157.012 67.8919C157.816 67.8919 158.218 68.0587 158.218 68.3923C158.218 68.5743 158.066 68.7107 157.763 68.8017C157.278 68.9382 156.421 69.1201 155.193 69.3476C153.722 75.4433 152.774 78.4911 152.35 78.4911Z" fill="#558FFF"/>
<path d="M152.35 78.4911C152.213 78.4911 152.069 78.4001 151.917 78.2182C151.766 78.0211 151.69 77.8467 151.69 77.695C151.69 77.5434 151.773 77.1492 151.94 76.5123C152.122 75.8603 152.395 74.8747 152.759 73.5554C153.123 72.2211 153.457 70.917 153.76 69.6433C153.077 69.7797 152.63 69.848 152.418 69.848C152.206 69.848 152.001 69.7722 151.804 69.6205C151.622 69.4689 151.531 69.3173 151.531 69.1656C151.531 68.923 152.213 68.6577 153.578 68.3695C153.805 68.3241 153.972 68.2861 154.078 68.2558C154.351 67.1489 154.609 66.0041 154.852 64.8213C155.367 62.3042 156.413 61.0456 157.99 61.0456C158.779 61.0456 159.385 61.3186 159.81 61.8644C160.235 62.4103 160.447 63.0017 160.447 63.6386C160.447 64.2603 160.326 64.5711 160.083 64.5711C159.886 64.5711 159.719 64.3816 159.583 64.0025C159.446 63.6082 159.264 63.2216 159.037 62.8425C158.824 62.4634 158.521 62.2739 158.127 62.2739C157.717 62.2739 157.391 62.4407 157.149 62.7743C156.876 63.1533 156.679 63.5703 156.557 64.0252C156.315 64.8137 155.974 66.1405 155.534 68.0056C156.08 67.9298 156.573 67.8919 157.012 67.8919C157.816 67.8919 158.218 68.0587 158.218 68.3923C158.218 68.5743 158.066 68.7107 157.763 68.8017C157.278 68.9382 156.421 69.1201 155.193 69.3476C153.722 75.4433 152.774 78.4911 152.35 78.4911Z" fill="url(#paint17_linear_33_1823)" fill-opacity="0.2"/>
<path d="M139.714 67.3689C139.911 67.3689 140.108 67.5054 140.305 67.7783C140.502 68.0361 140.601 68.2787 140.601 68.5062C140.601 68.7185 140.533 69.0445 140.396 69.4842C140.26 69.9088 140.025 70.5911 139.691 71.5313C139.373 72.4562 139.077 73.2978 138.804 74.056C138.531 74.8141 138.114 75.959 137.553 77.4905C137.007 79.0068 136.568 80.2502 136.234 81.2207C135.521 83.2223 134.528 84.223 133.254 84.223C132.481 84.223 131.715 83.9728 130.957 83.4724C130.199 82.9872 129.82 82.4641 129.82 81.903C129.82 81.7666 129.88 81.6149 130.002 81.4481C130.123 81.2813 130.229 81.1979 130.32 81.1979C130.411 81.1979 130.593 81.3572 130.866 81.6756C131.67 82.646 132.451 83.1313 133.209 83.1313C133.497 83.1313 133.77 83.0024 134.028 82.7446C134.301 82.4868 134.581 82.0243 134.869 81.3572C135.294 80.417 135.931 78.6732 136.78 76.1258C135.749 77.6421 134.634 78.4003 133.436 78.4003C132.739 78.4003 132.155 78.1349 131.685 77.6042C131.215 77.0583 130.98 76.3836 130.98 75.5799C130.98 74.7762 131.185 73.6921 131.594 72.3273C132.019 70.9626 132.489 69.7951 133.004 68.8246C133.52 67.8541 133.929 67.3689 134.232 67.3689C134.384 67.3689 134.528 67.4599 134.665 67.6419C134.816 67.8087 134.892 67.9906 134.892 68.1877C134.892 68.3697 134.68 68.8777 134.255 69.7117C133.846 70.5456 133.429 71.554 133.004 72.7368C132.58 73.9043 132.367 74.9734 132.367 75.9438C132.367 76.2926 132.473 76.5883 132.686 76.8309C132.913 77.0583 133.186 77.1721 133.505 77.1721C134.066 77.1721 134.649 76.8612 135.256 76.2395C135.878 75.6178 136.446 74.8141 136.962 73.8285C137.887 72.0089 138.668 70.0832 139.305 68.0513C139.38 67.6419 139.449 67.4296 139.509 67.4144C139.585 67.3841 139.653 67.3689 139.714 67.3689Z" fill="#558FFF"/>
<path d="M139.714 67.3689C139.911 67.3689 140.108 67.5054 140.305 67.7783C140.502 68.0361 140.601 68.2787 140.601 68.5062C140.601 68.7185 140.533 69.0445 140.396 69.4842C140.26 69.9088 140.025 70.5911 139.691 71.5313C139.373 72.4562 139.077 73.2978 138.804 74.056C138.531 74.8141 138.114 75.959 137.553 77.4905C137.007 79.0068 136.568 80.2502 136.234 81.2207C135.521 83.2223 134.528 84.223 133.254 84.223C132.481 84.223 131.715 83.9728 130.957 83.4724C130.199 82.9872 129.82 82.4641 129.82 81.903C129.82 81.7666 129.88 81.6149 130.002 81.4481C130.123 81.2813 130.229 81.1979 130.32 81.1979C130.411 81.1979 130.593 81.3572 130.866 81.6756C131.67 82.646 132.451 83.1313 133.209 83.1313C133.497 83.1313 133.77 83.0024 134.028 82.7446C134.301 82.4868 134.581 82.0243 134.869 81.3572C135.294 80.417 135.931 78.6732 136.78 76.1258C135.749 77.6421 134.634 78.4003 133.436 78.4003C132.739 78.4003 132.155 78.1349 131.685 77.6042C131.215 77.0583 130.98 76.3836 130.98 75.5799C130.98 74.7762 131.185 73.6921 131.594 72.3273C132.019 70.9626 132.489 69.7951 133.004 68.8246C133.52 67.8541 133.929 67.3689 134.232 67.3689C134.384 67.3689 134.528 67.4599 134.665 67.6419C134.816 67.8087 134.892 67.9906 134.892 68.1877C134.892 68.3697 134.68 68.8777 134.255 69.7117C133.846 70.5456 133.429 71.554 133.004 72.7368C132.58 73.9043 132.367 74.9734 132.367 75.9438C132.367 76.2926 132.473 76.5883 132.686 76.8309C132.913 77.0583 133.186 77.1721 133.505 77.1721C134.066 77.1721 134.649 76.8612 135.256 76.2395C135.878 75.6178 136.446 74.8141 136.962 73.8285C137.887 72.0089 138.668 70.0832 139.305 68.0513C139.38 67.6419 139.449 67.4296 139.509 67.4144C139.585 67.3841 139.653 67.3689 139.714 67.3689Z" fill="url(#paint18_linear_33_1823)" fill-opacity="0.2"/>
<path d="M119.046 73.8268C118.878 74.3207 118.593 74.7848 118.343 75.2394C118.226 75.4522 118.038 75.6426 117.879 75.8428C117.818 75.9331 117.756 76.0232 117.695 76.1137C117.675 76.153 117.656 76.1932 117.641 76.2343C117.604 76.3319 117.325 76.6823 117.499 76.411C117.564 76.311 117.629 76.2122 117.695 76.1137C117.745 76.0197 117.809 75.9303 117.879 75.8428C118.06 75.5753 118.239 75.3065 118.398 75.0223C118.619 74.6281 118.835 74.2291 119.046 73.8268Z" fill="#558FFF"/>
<path d="M119.046 73.8268C118.878 74.3207 118.593 74.7848 118.343 75.2394C118.226 75.4522 118.038 75.6426 117.879 75.8428C117.818 75.9331 117.756 76.0232 117.695 76.1137C117.675 76.153 117.656 76.1932 117.641 76.2343C117.604 76.3319 117.325 76.6823 117.499 76.411C117.564 76.311 117.629 76.2122 117.695 76.1137C117.745 76.0197 117.809 75.9303 117.879 75.8428C118.06 75.5753 118.239 75.3065 118.398 75.0223C118.619 74.6281 118.835 74.2291 119.046 73.8268Z" fill="url(#paint19_linear_33_1823)" fill-opacity="0.2"/>
<path d="M110 77.8756C110 76.1644 110.571 74.3548 111.091 72.7447C111.582 71.2243 112.173 69.7307 112.798 68.2603C113.317 67.0394 113.907 65.8763 114.686 64.8061C114.921 64.4837 115.179 64.1808 115.404 63.8567C115.661 63.4843 116.122 63.2584 116.525 63.0891C116.94 62.9145 116.728 63.0879 118.223 62.3404C118.223 62.3404 118.734 62.1118 119.019 61.9781C119.385 61.8066 119.361 62.4684 119.423 62.7558C119.902 64.9635 120.026 67.213 119.999 69.4723C119.983 70.8384 119.469 72.4854 119.07 73.7547C118.906 74.2757 118.605 74.7627 118.343 75.2394C118.153 75.5841 117.777 75.8701 117.641 76.2343C117.604 76.3319 117.325 76.6823 117.499 76.411C117.798 75.9467 118.126 75.5068 118.398 75.0223C119.353 73.3195 120.205 71.5276 121.054 69.7703C122.013 67.7872 123.216 65.7557 124.483 63.9577C124.905 63.3603 125.298 62.86 125.807 62.3518C126.072 62.0861 126.38 61.8436 126.685 61.6246C126.877 61.4867 126.87 61.8337 126.913 61.968C127.095 62.5474 127.291 63.1213 127.458 63.7052C128.052 65.7855 127.782 68.2445 127.493 70.351C127.281 71.8975 127.067 73.5156 126.438 74.9617C125.856 76.2977 125.013 78.1084 123.726 78.9664" stroke="#558FFF" stroke-width="1.49513" stroke-linecap="round"/>
<path d="M110 77.8756C110 76.1644 110.571 74.3548 111.091 72.7447C111.582 71.2243 112.173 69.7307 112.798 68.2603C113.317 67.0394 113.907 65.8763 114.686 64.8061C114.921 64.4837 115.179 64.1808 115.404 63.8567C115.661 63.4843 116.122 63.2584 116.525 63.0891C116.94 62.9145 116.728 63.0879 118.223 62.3404C118.223 62.3404 118.734 62.1118 119.019 61.9781C119.385 61.8066 119.361 62.4684 119.423 62.7558C119.902 64.9635 120.026 67.213 119.999 69.4723C119.983 70.8384 119.469 72.4854 119.07 73.7547C118.906 74.2757 118.605 74.7627 118.343 75.2394C118.153 75.5841 117.777 75.8701 117.641 76.2343C117.604 76.3319 117.325 76.6823 117.499 76.411C117.798 75.9467 118.126 75.5068 118.398 75.0223C119.353 73.3195 120.205 71.5276 121.054 69.7703C122.013 67.7872 123.216 65.7557 124.483 63.9577C124.905 63.3603 125.298 62.86 125.807 62.3518C126.072 62.0861 126.38 61.8436 126.685 61.6246C126.877 61.4867 126.87 61.8337 126.913 61.968C127.095 62.5474 127.291 63.1213 127.458 63.7052C128.052 65.7855 127.782 68.2445 127.493 70.351C127.281 71.8975 127.067 73.5156 126.438 74.9617C125.856 76.2977 125.013 78.1084 123.726 78.9664" stroke="url(#paint20_linear_33_1823)" stroke-opacity="0.2" stroke-width="1.49513" stroke-linecap="round"/>
<defs>
<linearGradient id="paint0_linear_33_1823" x1="87.0887" y1="2.45505" x2="-0.0936973" y2="69.0686" gradientUnits="userSpaceOnUse">
<stop stop-color="#FF0000"/>
<stop offset="0.515" stop-color="#BB004F"/>
<stop offset="0.67" stop-color="#2E079C"/>
<stop offset="1"/>
</linearGradient>
<linearGradient id="paint1_linear_33_1823" x1="321.486" y1="2.25616" x2="262.258" y2="131.029" gradientUnits="userSpaceOnUse">
<stop stop-color="#FF0000"/>
<stop offset="0.515" stop-color="#BB004F"/>
<stop offset="0.67" stop-color="#2E079C"/>
<stop offset="1"/>
</linearGradient>
<linearGradient id="paint2_linear_33_1823" x1="324.82" y1="67.6098" x2="309.81" y2="73.5143" gradientUnits="userSpaceOnUse">
<stop stop-color="#FF0000"/>
<stop offset="0.515" stop-color="#BB004F"/>
<stop offset="0.67" stop-color="#2E079C"/>
<stop offset="1"/>
</linearGradient>
<linearGradient id="paint3_linear_33_1823" x1="313.466" y1="67.5999" x2="302.627" y2="72.5489" gradientUnits="userSpaceOnUse">
<stop stop-color="#FF0000"/>
<stop offset="0.515" stop-color="#BB004F"/>
<stop offset="0.67" stop-color="#2E079C"/>
<stop offset="1"/>
</linearGradient>
<linearGradient id="paint4_linear_33_1823" x1="302.597" y1="61.3643" x2="288.273" y2="66.4766" gradientUnits="userSpaceOnUse">
<stop stop-color="#FF0000"/>
<stop offset="0.515" stop-color="#BB004F"/>
<stop offset="0.67" stop-color="#2E079C"/>
<stop offset="1"/>
</linearGradient>
<linearGradient id="paint5_linear_33_1823" x1="290.947" y1="67.5999" x2="279.769" y2="72.9557" gradientUnits="userSpaceOnUse">
<stop stop-color="#FF0000"/>
<stop offset="0.515" stop-color="#BB004F"/>
<stop offset="0.67" stop-color="#2E079C"/>
<stop offset="1"/>
</linearGradient>
<linearGradient id="paint6_linear_33_1823" x1="272.164" y1="64.4152" x2="261.494" y2="67.7861" gradientUnits="userSpaceOnUse">
<stop stop-color="#FF0000"/>
<stop offset="0.515" stop-color="#BB004F"/>
<stop offset="0.67" stop-color="#2E079C"/>
<stop offset="1"/>
</linearGradient>
<linearGradient id="paint7_linear_33_1823" x1="262.957" y1="67.5999" x2="251.617" y2="73.161" gradientUnits="userSpaceOnUse">
<stop stop-color="#FF0000"/>
<stop offset="0.515" stop-color="#BB004F"/>
<stop offset="0.67" stop-color="#2E079C"/>
<stop offset="1"/>
</linearGradient>
<linearGradient id="paint8_linear_33_1823" x1="253.045" y1="67.6098" x2="238.035" y2="73.5143" gradientUnits="userSpaceOnUse">
<stop stop-color="#FF0000"/>
<stop offset="0.515" stop-color="#BB004F"/>
<stop offset="0.67" stop-color="#2E079C"/>
<stop offset="1"/>
</linearGradient>
<linearGradient id="paint9_linear_33_1823" x1="232.361" y1="67.5999" x2="221.021" y2="73.161" gradientUnits="userSpaceOnUse">
<stop stop-color="#FF0000"/>
<stop offset="0.515" stop-color="#BB004F"/>
<stop offset="0.67" stop-color="#2E079C"/>
<stop offset="1"/>
</linearGradient>
<linearGradient id="paint10_linear_33_1823" x1="222.911" y1="64.4152" x2="212.241" y2="67.7861" gradientUnits="userSpaceOnUse">
<stop stop-color="#FF0000"/>
<stop offset="0.515" stop-color="#BB004F"/>
<stop offset="0.67" stop-color="#2E079C"/>
<stop offset="1"/>
</linearGradient>
<linearGradient id="paint11_linear_33_1823" x1="215.176" y1="63.2795" x2="207.099" y2="64.9756" gradientUnits="userSpaceOnUse">
<stop stop-color="#FF0000"/>
<stop offset="0.515" stop-color="#BB004F"/>
<stop offset="0.67" stop-color="#2E079C"/>
<stop offset="1"/>
</linearGradient>
<linearGradient id="paint12_linear_33_1823" x1="209.763" y1="67.6018" x2="199.665" y2="71.7114" gradientUnits="userSpaceOnUse">
<stop stop-color="#FF0000"/>
<stop offset="0.515" stop-color="#BB004F"/>
<stop offset="0.67" stop-color="#2E079C"/>
<stop offset="1"/>
</linearGradient>
<linearGradient id="paint13_linear_33_1823" x1="200.252" y1="67.5999" x2="188.331" y2="73.9681" gradientUnits="userSpaceOnUse">
<stop stop-color="#FF0000"/>
<stop offset="0.515" stop-color="#BB004F"/>
<stop offset="0.67" stop-color="#2E079C"/>
<stop offset="1"/>
</linearGradient>
<linearGradient id="paint14_linear_33_1823" x1="188.718" y1="67.5999" x2="177.879" y2="72.5489" gradientUnits="userSpaceOnUse">
<stop stop-color="#FF0000"/>
<stop offset="0.515" stop-color="#BB004F"/>
<stop offset="0.67" stop-color="#2E079C"/>
<stop offset="1"/>
</linearGradient>
<linearGradient id="paint15_linear_33_1823" x1="178.716" y1="67.6018" x2="168.027" y2="72.3236" gradientUnits="userSpaceOnUse">
<stop stop-color="#FF0000"/>
<stop offset="0.515" stop-color="#BB004F"/>
<stop offset="0.67" stop-color="#2E079C"/>
<stop offset="1"/>
</linearGradient>
<linearGradient id="paint16_linear_33_1823" x1="167.44" y1="67.5999" x2="156.244" y2="72.9784" gradientUnits="userSpaceOnUse">
<stop stop-color="#FF0000"/>
<stop offset="0.515" stop-color="#BB004F"/>
<stop offset="0.67" stop-color="#2E079C"/>
<stop offset="1"/>
</linearGradient>
<linearGradient id="paint17_linear_33_1823" x1="160.301" y1="61.4109" x2="147.468" y2="65.3904" gradientUnits="userSpaceOnUse">
<stop stop-color="#FF0000"/>
<stop offset="0.515" stop-color="#BB004F"/>
<stop offset="0.67" stop-color="#2E079C"/>
<stop offset="1"/>
</linearGradient>
<linearGradient id="paint18_linear_33_1823" x1="140.425" y1="67.7218" x2="125.642" y2="73.4593" gradientUnits="userSpaceOnUse">
<stop stop-color="#FF0000"/>
<stop offset="0.515" stop-color="#BB004F"/>
<stop offset="0.67" stop-color="#2E079C"/>
<stop offset="1"/>
</linearGradient>
<linearGradient id="paint19_linear_33_1823" x1="127.521" y1="61.9565" x2="107.26" y2="74.5611" gradientUnits="userSpaceOnUse">
<stop stop-color="#FF0000"/>
<stop offset="0.515" stop-color="#BB004F"/>
<stop offset="0.67" stop-color="#2E079C"/>
<stop offset="1"/>
</linearGradient>
<linearGradient id="paint20_linear_33_1823" x1="127.521" y1="61.9565" x2="107.26" y2="74.5611" gradientUnits="userSpaceOnUse">
<stop stop-color="#FF0000"/>
<stop offset="0.515" stop-color="#BB004F"/>
<stop offset="0.67" stop-color="#2E079C"/>
<stop offset="1"/>
</linearGradient>
</defs>
</svg>
