<svg width="339" height="79" viewBox="0 0 339 79" fill="none" xmlns="http://www.w3.org/2000/svg">
<path fill-rule="evenodd" clip-rule="evenodd" d="M28.0002 24.5687L26.3377 8.58896L24.2252 9.27928L16.334 4.20383L19.2752 19.1295L26.4402 25.2252L28.0002 24.5687ZM43.1665 17.3041V3.14302L41.344 3.70045L33.834 0L35.2552 13.3637L41.954 17.8682L43.1665 17.3041Z" fill="#558FFF"/>
<path fill-rule="evenodd" clip-rule="evenodd" d="M28.0002 24.5687L26.3377 8.58896L24.2252 9.27928L16.334 4.20383L19.2752 19.1295L26.4402 25.2252L28.0002 24.5687ZM43.1665 17.3041V3.14302L41.344 3.70045L33.834 0L35.2552 13.3637L41.954 17.8682L43.1665 17.3041Z" fill="url(#paint0_linear_33_1806)" fill-opacity="0.2"/>
<path fill-rule="evenodd" clip-rule="evenodd" d="M43.1663 42.4989L39.6537 44.3604L39.0287 35.786C39.0287 35.786 43.3025 33.8604 44.575 33.3682C45.8488 32.8772 47.8875 32.5394 48.6 33.7984C49.2025 34.866 50.0187 38.6205 43.1663 42.4989ZM45.6488 17.6903L15.0675 31.3896L0 19.0383L10.8687 66.8018L22.5262 78.8288L41.3988 68.4122L40.49 55.8896C40.49 55.8896 46.0862 53.1622 49.5787 51.2928C54.1025 48.8761 67.6663 41.2883 67.6663 25.1937C67.6663 13.8063 57.465 12.3547 45.6488 17.6903Z" fill="#558FFF"/>
<path fill-rule="evenodd" clip-rule="evenodd" d="M43.1663 42.4989L39.6537 44.3604L39.0287 35.786C39.0287 35.786 43.3025 33.8604 44.575 33.3682C45.8488 32.8772 47.8875 32.5394 48.6 33.7984C49.2025 34.866 50.0187 38.6205 43.1663 42.4989ZM45.6488 17.6903L15.0675 31.3896L0 19.0383L10.8687 66.8018L22.5262 78.8288L41.3988 68.4122L40.49 55.8896C40.49 55.8896 46.0862 53.1622 49.5787 51.2928C54.1025 48.8761 67.6663 41.2883 67.6663 25.1937C67.6663 13.8063 57.465 12.3547 45.6488 17.6903Z" fill="url(#paint1_linear_33_1806)" fill-opacity="0.2"/>
<path fill-rule="evenodd" clip-rule="evenodd" d="M112.696 40.9989C112.059 44.3254 109.225 44.786 106.659 44.786H104.181L105.558 37.473H108.05C110.613 37.473 113.233 37.8525 112.696 40.9977M123.671 40.7939C125.206 32.8502 119.586 30.634 115.088 30.634H96.2476L90.6426 60.1205H101.624L103.196 51.6408H111.078C116.824 51.6408 122.218 48.4809 123.673 40.7939M140.089 48.7331C139.493 51.9426 138.706 54.3063 136.71 54.3063C134.695 54.3063 134.848 51.9414 135.46 48.732C135.948 46.1318 136.71 43.9437 138.706 43.9437C140.705 43.9437 140.575 46.1318 140.089 48.7331ZM151.076 48.7331C152.528 41.3232 148.52 37.5822 139.885 37.5822C131.181 37.5822 126.006 41.3243 124.545 48.7331C123.093 56.3525 126.82 60.6419 135.531 60.6419C144.164 60.6419 149.639 56.3525 151.076 48.7331ZM186.401 60.1205H173.56L173.824 45.2162H173.746L168.243 60.1205H155.318L154.29 38.098H164.436L164.171 52.5281H164.23L169.205 38.098H181.654L181.285 52.5281L186.401 38.098H195.861L186.401 60.1205ZM210.866 47.0045H205.486C205.674 45.2894 206.743 42.6824 209.073 42.6824C211.445 42.6824 211.244 45.3412 210.866 47.0045ZM218.873 51.6824L219.163 50.3908C220.741 42.9775 218.675 37.5822 210.384 37.5822C201.684 37.5822 196.434 41.3243 194.979 48.7331C193.54 56.3525 197.334 60.643 206.041 60.643C209.625 60.643 212.935 60.2511 215.855 59.3806L216.963 53.6779C215.158 54.5698 212.524 55.0676 209.696 55.0676C206.66 55.0676 204.311 54.4369 204.594 51.6824H218.873ZM238.778 46.2984C235.883 46.2984 232.991 48.8592 232.356 52.1126L230.856 60.1205H220.554L224.754 38.098H234.421L233.459 43.0867H233.538C235.398 39.9741 237.879 37.5822 241.053 37.5822C241.694 37.5822 242.309 37.7399 242.725 37.8525L241.053 46.625C240.646 46.4471 239.754 46.2984 238.778 46.2984ZM270.71 39.0878C270.298 41.3243 268.116 41.9606 266.228 41.9606H263.42L264.51 36.1892H267.5C269.479 36.1892 271.141 36.893 270.711 39.0878M279.651 51.9414C280.206 48.9865 278.254 45.7939 274.39 45.2162V45.1689C278.375 44.1329 280.945 41.9606 281.701 37.9144C282.815 32.2917 278.254 30.634 273.285 30.634H255.248L249.663 60.1205H266.229C272.183 60.1205 278.194 59.3795 279.651 51.9414ZM268.795 50.9876C268.378 53.2849 266.03 54.0495 264.018 54.0495H261.125L262.24 48.0338H265.203C267.284 48.0338 269.269 48.4809 268.795 50.9876ZM296.304 60.1205L296.998 56.3525H296.95C295.188 59.4336 292.08 60.643 289.206 60.643C283.731 60.643 282.214 57.6971 283.029 53.4167L285.933 38.098H296.304L293.894 50.804C293.613 52.0653 293.27 53.8041 295.066 53.8041C296.85 53.8041 297.21 52.0653 297.481 50.804L299.906 38.098H310.306L306.118 60.1205H296.305H296.304ZM328.95 56.5495C325.519 63.3739 322.549 69.5473 314.468 69.5473C311.764 69.5473 309.765 69.116 307.831 68.7691L309.008 62.491C309.836 62.7545 310.574 62.9437 312.035 62.9437C314.059 62.9437 315.435 61.9809 315.623 60.8322C315.971 59.1734 315.145 55.9673 314.725 53.5653L312.245 38.098H323.015V51.6396H323.099L328.286 38.098H338.225L328.95 56.5495Z" fill="#558FFF"/>
<path fill-rule="evenodd" clip-rule="evenodd" d="M112.696 40.9989C112.059 44.3254 109.225 44.786 106.659 44.786H104.181L105.558 37.473H108.05C110.613 37.473 113.233 37.8525 112.696 40.9977M123.671 40.7939C125.206 32.8502 119.586 30.634 115.088 30.634H96.2476L90.6426 60.1205H101.624L103.196 51.6408H111.078C116.824 51.6408 122.218 48.4809 123.673 40.7939M140.089 48.7331C139.493 51.9426 138.706 54.3063 136.71 54.3063C134.695 54.3063 134.848 51.9414 135.46 48.732C135.948 46.1318 136.71 43.9437 138.706 43.9437C140.705 43.9437 140.575 46.1318 140.089 48.7331ZM151.076 48.7331C152.528 41.3232 148.52 37.5822 139.885 37.5822C131.181 37.5822 126.006 41.3243 124.545 48.7331C123.093 56.3525 126.82 60.6419 135.531 60.6419C144.164 60.6419 149.639 56.3525 151.076 48.7331ZM186.401 60.1205H173.56L173.824 45.2162H173.746L168.243 60.1205H155.318L154.29 38.098H164.436L164.171 52.5281H164.23L169.205 38.098H181.654L181.285 52.5281L186.401 38.098H195.861L186.401 60.1205ZM210.866 47.0045H205.486C205.674 45.2894 206.743 42.6824 209.073 42.6824C211.445 42.6824 211.244 45.3412 210.866 47.0045ZM218.873 51.6824L219.163 50.3908C220.741 42.9775 218.675 37.5822 210.384 37.5822C201.684 37.5822 196.434 41.3243 194.979 48.7331C193.54 56.3525 197.334 60.643 206.041 60.643C209.625 60.643 212.935 60.2511 215.855 59.3806L216.963 53.6779C215.158 54.5698 212.524 55.0676 209.696 55.0676C206.66 55.0676 204.311 54.4369 204.594 51.6824H218.873ZM238.778 46.2984C235.883 46.2984 232.991 48.8592 232.356 52.1126L230.856 60.1205H220.554L224.754 38.098H234.421L233.459 43.0867H233.538C235.398 39.9741 237.879 37.5822 241.053 37.5822C241.694 37.5822 242.309 37.7399 242.725 37.8525L241.053 46.625C240.646 46.4471 239.754 46.2984 238.778 46.2984ZM270.71 39.0878C270.298 41.3243 268.116 41.9606 266.228 41.9606H263.42L264.51 36.1892H267.5C269.479 36.1892 271.141 36.893 270.711 39.0878M279.651 51.9414C280.206 48.9865 278.254 45.7939 274.39 45.2162V45.1689C278.375 44.1329 280.945 41.9606 281.701 37.9144C282.815 32.2917 278.254 30.634 273.285 30.634H255.248L249.663 60.1205H266.229C272.183 60.1205 278.194 59.3795 279.651 51.9414ZM268.795 50.9876C268.378 53.2849 266.03 54.0495 264.018 54.0495H261.125L262.24 48.0338H265.203C267.284 48.0338 269.269 48.4809 268.795 50.9876ZM296.304 60.1205L296.998 56.3525H296.95C295.188 59.4336 292.08 60.643 289.206 60.643C283.731 60.643 282.214 57.6971 283.029 53.4167L285.933 38.098H296.304L293.894 50.804C293.613 52.0653 293.27 53.8041 295.066 53.8041C296.85 53.8041 297.21 52.0653 297.481 50.804L299.906 38.098H310.306L306.118 60.1205H296.305H296.304ZM328.95 56.5495C325.519 63.3739 322.549 69.5473 314.468 69.5473C311.764 69.5473 309.765 69.116 307.831 68.7691L309.008 62.491C309.836 62.7545 310.574 62.9437 312.035 62.9437C314.059 62.9437 315.435 61.9809 315.623 60.8322C315.971 59.1734 315.145 55.9673 314.725 53.5653L312.245 38.098H323.015V51.6396H323.099L328.286 38.098H338.225L328.95 56.5495Z" fill="url(#paint2_linear_33_1806)" fill-opacity="0.2"/>
<defs>
<linearGradient id="paint0_linear_33_1806" x1="42.7279" y1="0.528113" x2="12.843" y2="19.8163" gradientUnits="userSpaceOnUse">
<stop stop-color="#FF0000"/>
<stop offset="0.515" stop-color="#BB004F"/>
<stop offset="0.67" stop-color="#2E079C"/>
<stop offset="1"/>
</linearGradient>
<linearGradient id="paint1_linear_33_1806" x1="66.5602" y1="16.0566" x2="-9.15056" y2="64.5393" gradientUnits="userSpaceOnUse">
<stop stop-color="#FF0000"/>
<stop offset="0.515" stop-color="#BB004F"/>
<stop offset="0.67" stop-color="#2E079C"/>
<stop offset="1"/>
</linearGradient>
<linearGradient id="paint2_linear_33_1806" x1="334.178" y1="31.4487" x2="309.616" y2="126.27" gradientUnits="userSpaceOnUse">
<stop stop-color="#FF0000"/>
<stop offset="0.515" stop-color="#BB004F"/>
<stop offset="0.67" stop-color="#2E079C"/>
<stop offset="1"/>
</linearGradient>
</defs>
</svg>
