<svg width="150" height="151" viewBox="0 0 150 151" fill="none" xmlns="http://www.w3.org/2000/svg">
<rect y="0.125" width="150" height="150" rx="6" fill="#558FFF"/>
<rect y="0.125" width="150" height="150" rx="6" fill="url(#paint0_linear_33_1886)" fill-opacity="0.2"/>
<path d="M72.2466 95.6436C72.1433 95.8297 72.195 95.747 72.2466 95.6436V95.6436ZM115.164 80.6564C111.699 80.6552 108.28 81.4509 105.172 82.982C104.156 80.932 103.105 79.1404 102.933 77.7967C102.726 76.2291 102.502 75.2988 102.743 73.4383C102.984 71.5779 104.07 68.9422 104.052 68.7527C104.035 68.5632 103.811 67.6157 101.589 67.5985C99.3667 67.5812 97.4546 68.0291 97.2323 68.6148C96.8399 69.6852 96.5345 70.7856 96.3193 71.9052C95.9231 73.9207 91.8765 81.1215 89.5854 84.8769C88.8274 83.4126 88.19 82.1206 88.0522 81.087C87.8455 79.5194 87.6215 78.5891 87.8627 76.7287C88.1039 74.8682 89.1892 72.2325 89.1719 72.043C89.1547 71.8535 88.9308 70.906 86.7102 70.8888C84.4897 70.8716 82.5758 71.3194 82.3519 71.9052C82.1279 72.4909 81.8867 73.869 81.4389 75.1955C80.991 76.5219 75.6007 88.5118 74.1898 91.6298C73.4663 93.2147 72.8461 94.4894 72.3982 95.3508C72.3293 95.4886 72.2777 95.5747 72.2432 95.6436C72.2949 95.5575 72.3293 95.4714 72.3293 95.5058C71.9503 96.2466 71.7264 96.66 71.7264 96.66V96.6772C71.4335 97.2285 71.1062 97.7281 70.9512 97.7281C70.8478 97.7281 70.6239 96.281 71.0029 94.2999C71.8125 90.1311 73.7247 83.6538 73.7075 83.4299C73.6903 83.3093 74.0692 82.1895 72.4499 81.5866C70.8823 81.0181 70.3138 81.9656 70.176 81.9656C70.0382 81.9656 69.9348 82.3101 69.9348 82.3101C69.9348 82.3101 71.6747 75.006 66.5945 75.006C63.4248 75.006 59.0148 78.4858 56.8476 81.6383C55.4867 82.379 52.541 83.9811 49.4401 85.6866C48.2515 86.3412 47.0284 87.013 45.8742 87.6504C45.7881 87.5643 45.7192 87.4781 45.633 87.392C39.4676 80.8114 28.0841 76.1602 28.5665 67.3228C28.7387 64.1014 29.8585 55.6431 50.4565 45.3759C67.3387 36.9693 80.8359 39.2777 83.1598 44.4112C86.5018 51.7326 75.9435 65.359 58.4118 67.3228C51.7296 68.0636 48.217 65.4796 47.3385 64.5149C46.4255 63.4985 46.2876 63.4468 45.9431 63.6363C45.3746 63.9464 45.7364 64.8422 45.9431 65.3762C46.4599 66.7371 48.6133 69.1489 52.2808 70.3547C55.5022 71.4056 63.337 71.9913 72.81 68.322C83.4527 64.222 91.737 52.8007 89.308 43.2398C86.8343 33.5239 70.7238 30.337 55.4902 35.7462C46.4134 38.9676 36.5976 44.0323 29.5363 50.6301C21.1486 58.4855 19.8067 65.3245 20.3579 68.1842C22.32 78.3307 36.3047 84.9458 41.9017 89.8382C41.6261 89.9933 41.3677 90.1311 41.1265 90.2689C38.3203 91.6643 27.6586 97.2457 24.9902 103.137C21.9755 109.821 25.4898 114.61 27.7964 115.265C34.9955 117.263 42.3668 113.663 46.3273 107.754C50.2877 101.845 49.8071 94.1277 47.981 90.6134C47.9638 90.5617 47.9293 90.5273 47.9121 90.4756C48.6356 90.0449 49.3764 89.6143 50.1171 89.1836C51.5452 88.3395 52.9406 87.5643 54.1637 86.8924C53.4746 88.7529 52.9751 90.9924 52.7167 94.231C52.4066 98.0209 53.9742 102.931 56.007 104.86C56.9028 105.704 57.9863 105.721 58.6582 105.721C61.0355 105.721 62.1035 103.757 63.2905 101.415C64.7547 98.555 66.0467 95.2302 66.0467 95.2302C66.0467 95.2302 64.4274 104.223 68.8547 104.223C70.4723 104.223 72.0916 102.138 72.8169 101.07V101.087C72.8169 101.087 72.8513 101.018 72.9374 100.881C73.1097 100.622 73.1958 100.467 73.1958 100.467V100.415C73.8505 99.2957 75.2803 96.7289 77.4319 92.4911C80.2226 87.013 82.8911 80.174 82.8911 80.174C83.1489 81.6774 83.5057 83.1621 83.9591 84.6185C84.4415 86.2551 85.4579 88.0466 86.2675 89.7865C85.6129 90.6823 85.2167 91.1991 85.2167 91.1991C85.2179 91.2124 85.2241 91.2246 85.2339 91.2336C84.7171 91.9227 84.1314 92.6634 83.5285 93.3869C81.3251 96.0054 78.705 99.0029 78.3604 99.8642C77.947 100.881 78.0503 101.639 78.8428 102.224C79.4285 102.672 80.4621 102.741 81.5457 102.655C83.5267 102.517 84.9221 102.035 85.5939 101.725C86.8325 101.281 88.0031 100.666 89.072 99.8987C91.2254 98.3138 92.5346 96.0399 92.414 93.0424C92.3451 91.3886 91.8111 89.7349 91.1565 88.1844C91.346 87.9088 91.5527 87.616 91.7422 87.3231C95.1514 82.3446 97.787 76.8802 97.787 76.8802C98.0449 78.3836 98.4017 79.8684 98.8551 81.3247C99.2685 82.7201 100.076 84.2533 100.817 85.752C97.6148 88.3533 95.6337 91.368 94.9446 93.349C93.6699 97.0183 94.669 98.6721 96.5467 99.0511C97.3908 99.2234 98.5967 98.8271 99.4925 98.4482C100.823 98.005 102.077 97.3601 103.212 96.536C105.365 94.9511 107.448 92.7289 107.31 89.7142C107.258 88.3533 106.879 86.9924 106.38 85.6831C109.084 84.5462 112.597 83.926 117.076 84.4428C126.668 85.5625 128.545 91.5575 128.184 94.0553C127.822 96.5532 125.806 97.9486 125.135 98.362C124.463 98.7755 124.256 98.9305 124.308 99.2406C124.394 99.6885 124.704 99.6713 125.272 99.5679C126.065 99.4301 130.301 97.5351 130.49 92.9011C130.766 87.044 125.135 80.6012 115.159 80.6529L115.164 80.6564ZM41.2299 105.583C38.0619 109.046 33.6174 110.355 31.7069 109.253C29.6569 108.061 30.4666 102.965 34.3753 99.275C36.7526 97.0356 39.8173 94.9683 41.85 93.6936C42.3151 93.4179 42.987 93.0045 43.8139 92.5049C43.9517 92.4188 44.0206 92.3843 44.0206 92.3843C44.1756 92.281 44.3479 92.1948 44.5202 92.0915C45.9483 97.3284 44.5719 101.945 41.2299 105.58V105.583ZM64.3757 89.8382C63.2732 92.5428 60.9493 99.4335 59.5367 99.0718C58.3309 98.7617 57.5901 93.5075 59.2956 88.3395C60.1569 85.7382 61.9829 82.6374 63.0682 81.4316C64.8064 79.4849 66.7186 78.8648 67.1665 79.64C67.7694 80.6564 65.0648 88.15 64.3757 89.8382ZM83.4974 98.9684C83.0323 99.2096 82.6017 99.3646 82.3949 99.244C82.2399 99.1579 82.5844 98.8306 82.5844 98.8306C82.5844 98.8306 84.979 96.2638 85.9264 95.0924C86.4777 94.4033 87.1151 93.5937 87.8024 92.6979C87.8024 92.784 87.8196 92.8701 87.8196 92.9735C87.7972 96.0571 84.836 98.1415 83.4923 98.9684H83.4974ZM98.2401 95.6092C97.8956 95.368 97.9473 94.5583 99.1014 92.0432C99.5493 91.0613 100.581 89.4075 102.375 87.8227C102.578 88.4226 102.688 89.05 102.702 89.6832C102.685 93.5592 99.9111 95.0062 98.2418 95.6092H98.2401Z" fill="black"/>
<defs>
<linearGradient id="paint0_linear_33_1886" x1="147.548" y1="3.26539" x2="-25.4268" y2="108.219" gradientUnits="userSpaceOnUse">
<stop stop-color="#FF0000"/>
<stop offset="0.515" stop-color="#BB004F"/>
<stop offset="0.67" stop-color="#2E079C"/>
<stop offset="1"/>
</linearGradient>
</defs>
</svg>
