<svg width="438" height="49" viewBox="0 0 438 49" fill="none" xmlns="http://www.w3.org/2000/svg">
<path d="M101.343 34.8057L102.623 31.5382C105.61 33.0759 109.877 33.8447 112.864 33.8447C117.558 33.8447 121.612 32.6914 121.612 29.2317C121.612 26.9252 119.265 26.3485 114.998 25.5797C109.237 24.6186 106.037 23.081 106.037 20.0056C106.037 14.6238 112.224 11.5484 118.838 11.5484C122.252 11.5484 125.452 12.125 128.226 13.4705L126.519 16.5458C123.745 15.2004 121.398 14.6238 118.411 14.6238C114.358 14.6238 110.304 15.777 110.304 19.0446C110.304 20.7745 112.438 21.5433 116.705 22.3121C122.679 23.2732 126.092 24.8109 126.092 28.2706C126.092 33.8447 119.692 36.9201 112.651 36.9201C108.171 36.9201 103.903 36.1512 101.343 34.8057Z" fill="#558FFF"/>
<path d="M101.343 34.8057L102.623 31.5382C105.61 33.0759 109.877 33.8447 112.864 33.8447C117.558 33.8447 121.612 32.6914 121.612 29.2317C121.612 26.9252 119.265 26.3485 114.998 25.5797C109.237 24.6186 106.037 23.081 106.037 20.0056C106.037 14.6238 112.224 11.5484 118.838 11.5484C122.252 11.5484 125.452 12.125 128.226 13.4705L126.519 16.5458C123.745 15.2004 121.398 14.6238 118.411 14.6238C114.358 14.6238 110.304 15.777 110.304 19.0446C110.304 20.7745 112.438 21.5433 116.705 22.3121C122.679 23.2732 126.092 24.8109 126.092 28.2706C126.092 33.8447 119.692 36.9201 112.651 36.9201C108.171 36.9201 103.903 36.1512 101.343 34.8057Z" fill="url(#paint0_linear_33_1790)" fill-opacity="0.2"/>
<path d="M133.56 26.3485L136.973 11.7406H141.027L137.4 26.3485C136.333 30.1927 137.827 33.4603 143.587 33.4603C148.708 33.4603 152.548 31.346 153.615 26.3485L157.242 11.7406H161.295L157.882 26.3485C156.175 32.8836 150.628 36.92 143.16 36.92C134.413 36.92 132.066 31.9226 133.56 26.3485Z" fill="#558FFF"/>
<path d="M133.56 26.3485L136.973 11.7406H141.027L137.4 26.3485C136.333 30.1927 137.827 33.4603 143.587 33.4603C148.708 33.4603 152.548 31.346 153.615 26.3485L157.242 11.7406H161.295L157.882 26.3485C156.175 32.8836 150.628 36.92 143.16 36.92C134.413 36.92 132.066 31.9226 133.56 26.3485Z" fill="url(#paint1_linear_33_1790)" fill-opacity="0.2"/>
<path d="M191.165 18.6601C191.165 22.8888 187.538 28.655 176.87 28.655H170.043L168.123 36.5356H164.282L170.256 11.7406H180.71C187.324 11.7406 191.165 14.6237 191.165 18.6601ZM177.297 25.5797C184.764 25.5797 187.111 21.9277 187.111 19.429C187.111 16.738 184.764 15.0082 180.284 15.0082H173.456L170.896 25.5797H177.297Z" fill="#558FFF"/>
<path d="M191.165 18.6601C191.165 22.8888 187.538 28.655 176.87 28.655H170.043L168.123 36.5356H164.282L170.256 11.7406H180.71C187.324 11.7406 191.165 14.6237 191.165 18.6601ZM177.297 25.5797C184.764 25.5797 187.111 21.9277 187.111 19.429C187.111 16.738 184.764 15.0082 180.284 15.0082H173.456L170.896 25.5797H177.297Z" fill="url(#paint2_linear_33_1790)" fill-opacity="0.2"/>
<path d="M221.46 15.0084H203.752L201.832 22.3124H217.62L216.98 25.3877H201.192L199.271 33.4605H217.406L216.553 36.5359H194.364L200.551 11.7408H222.313L221.46 15.0084Z" fill="#558FFF"/>
<path d="M221.46 15.0084H203.752L201.832 22.3124H217.62L216.98 25.3877H201.192L199.271 33.4605H217.406L216.553 36.5359H194.364L200.551 11.7408H222.313L221.46 15.0084Z" fill="url(#paint3_linear_33_1790)" fill-opacity="0.2"/>
<path d="M241.302 27.6942L248.129 36.5359H243.222L236.608 27.8864H230.848L228.714 36.5359H224.66L230.634 11.7408H241.302C247.916 11.7408 251.756 14.4318 251.756 18.4682C251.756 21.9279 249.409 26.541 241.302 27.6942ZM237.888 24.8111C245.569 24.8111 247.489 21.7357 247.489 19.237C247.489 16.5461 245.142 15.0084 240.662 15.0084H233.621L231.274 24.8111H237.888Z" fill="#558FFF"/>
<path d="M241.302 27.6942L248.129 36.5359H243.222L236.608 27.8864H230.848L228.714 36.5359H224.66L230.634 11.7408H241.302C247.916 11.7408 251.756 14.4318 251.756 18.4682C251.756 21.9279 249.409 26.541 241.302 27.6942ZM237.888 24.8111C245.569 24.8111 247.489 21.7357 247.489 19.237C247.489 16.5461 245.142 15.0084 240.662 15.0084H233.621L231.274 24.8111H237.888Z" fill="url(#paint4_linear_33_1790)" fill-opacity="0.2"/>
<path d="M253.463 34.806L255.17 29.6163C257.943 30.9618 262.637 31.9228 265.624 31.9228C269.038 31.9228 271.811 31.3462 271.811 28.8475C271.811 27.3098 270.104 26.9254 266.691 26.3488C260.717 25.3877 257.303 24.0423 257.303 20.5825C257.303 14.624 264.131 11.3564 271.171 11.3564C275.011 11.3564 278.638 11.9331 281.412 13.2785L279.279 18.4682C276.078 17.1227 273.518 16.5461 270.531 16.5461C267.544 16.5461 264.984 17.1227 264.984 19.4292C264.984 20.5825 266.264 20.9669 269.891 21.5435C276.078 22.5046 279.705 24.2345 279.705 27.6942C279.705 33.8449 272.665 37.1125 265.411 37.1125C260.717 37.1125 256.45 36.3437 253.463 34.806Z" fill="#558FFF"/>
<path d="M253.463 34.806L255.17 29.6163C257.943 30.9618 262.637 31.9228 265.624 31.9228C269.038 31.9228 271.811 31.3462 271.811 28.8475C271.811 27.3098 270.104 26.9254 266.691 26.3488C260.717 25.3877 257.303 24.0423 257.303 20.5825C257.303 14.624 264.131 11.3564 271.171 11.3564C275.011 11.3564 278.638 11.9331 281.412 13.2785L279.279 18.4682C276.078 17.1227 273.518 16.5461 270.531 16.5461C267.544 16.5461 264.984 17.1227 264.984 19.4292C264.984 20.5825 266.264 20.9669 269.891 21.5435C276.078 22.5046 279.705 24.2345 279.705 27.6942C279.705 33.8449 272.665 37.1125 265.411 37.1125C260.717 37.1125 256.45 36.3437 253.463 34.806Z" fill="url(#paint5_linear_33_1790)" fill-opacity="0.2"/>
<path d="M312.562 19.237C312.562 23.6578 308.721 29.8085 297.414 29.8085H292.507L290.8 36.5359H283.759L289.733 11.7408H301.254C308.295 11.7408 312.562 14.8162 312.562 19.237ZM298.267 24.8111C303.601 24.8111 305.521 22.1202 305.521 20.1981C305.521 18.0838 303.814 16.9305 300.614 16.9305H295.92L294 24.8111H298.267Z" fill="#558FFF"/>
<path d="M312.562 19.237C312.562 23.6578 308.721 29.8085 297.414 29.8085H292.507L290.8 36.5359H283.759L289.733 11.7408H301.254C308.295 11.7408 312.562 14.8162 312.562 19.237ZM298.267 24.8111C303.601 24.8111 305.521 22.1202 305.521 20.1981C305.521 18.0838 303.814 16.9305 300.614 16.9305H295.92L294 24.8111H298.267Z" fill="url(#paint6_linear_33_1790)" fill-opacity="0.2"/>
<path d="M316.402 26.3488C316.402 18.6604 323.229 11.5486 333.684 11.5486C342.218 11.5486 347.338 15.7773 347.338 22.3124C347.338 30.0008 340.511 37.3047 330.057 37.3047C321.736 37.1125 316.402 32.6917 316.402 26.3488ZM340.298 22.889C340.298 18.8526 337.737 16.5461 333.257 16.5461C327.283 16.5461 323.656 20.9669 323.656 25.3877C323.656 29.2319 326.216 31.5384 330.697 31.5384C336.671 31.7306 340.298 27.502 340.298 22.889Z" fill="#558FFF"/>
<path d="M316.402 26.3488C316.402 18.6604 323.229 11.5486 333.684 11.5486C342.218 11.5486 347.338 15.7773 347.338 22.3124C347.338 30.0008 340.511 37.3047 330.057 37.3047C321.736 37.1125 316.402 32.6917 316.402 26.3488ZM340.298 22.889C340.298 18.8526 337.737 16.5461 333.257 16.5461C327.283 16.5461 323.656 20.9669 323.656 25.3877C323.656 29.2319 326.216 31.5384 330.697 31.5384C336.671 31.7306 340.298 27.502 340.298 22.889Z" fill="url(#paint7_linear_33_1790)" fill-opacity="0.2"/>
<path d="M371.447 28.2709L376.994 36.5359H369.1L363.98 28.8475H360.353L358.432 36.5359H351.392L357.366 11.7408H369.1C375.927 11.7408 380.194 14.624 380.194 18.8526C380.194 22.3124 378.061 26.541 371.447 28.2709ZM365.686 24.0423C371.234 24.0423 372.94 21.9279 372.94 20.1981C372.94 18.276 371.234 16.9305 368.033 16.9305H363.126L361.419 24.0423H365.686Z" fill="#558FFF"/>
<path d="M371.447 28.2709L376.994 36.5359H369.1L363.98 28.8475H360.353L358.432 36.5359H351.392L357.366 11.7408H369.1C375.927 11.7408 380.194 14.624 380.194 18.8526C380.194 22.3124 378.061 26.541 371.447 28.2709ZM365.686 24.0423C371.234 24.0423 372.94 21.9279 372.94 20.1981C372.94 18.276 371.234 16.9305 368.033 16.9305H363.126L361.419 24.0423H365.686Z" fill="url(#paint8_linear_33_1790)" fill-opacity="0.2"/>
<path d="M411.131 11.7408L409.85 16.9305H400.676L395.982 36.5359H388.942L393.636 16.9305H384.675L385.955 11.7408H411.131Z" fill="#558FFF"/>
<path d="M411.131 11.7408L409.85 16.9305H400.676L395.982 36.5359H388.942L393.636 16.9305H384.675L385.955 11.7408H411.131Z" fill="url(#paint9_linear_33_1790)" fill-opacity="0.2"/>
<path d="M409.21 34.806L410.917 29.6163C413.691 30.9618 418.385 31.9228 421.372 31.9228C424.785 31.9228 427.559 31.3462 427.559 28.8475C427.559 27.3098 425.852 26.9254 422.438 26.3488C416.464 25.3877 413.051 24.0423 413.051 20.5825C413.051 14.624 419.878 11.3564 426.919 11.3564C430.759 11.3564 434.386 11.9331 437.16 13.2785L435.026 18.4682C431.826 17.1227 429.266 16.5461 426.279 16.5461C423.292 16.5461 420.731 17.1227 420.731 19.4292C420.731 20.5825 422.012 20.9669 425.639 21.5435C431.826 22.5046 435.453 24.2345 435.453 27.6942C435.453 33.8449 428.412 37.1125 421.158 37.1125C416.464 37.1125 412.197 36.3437 409.21 34.806Z" fill="#558FFF"/>
<path d="M409.21 34.806L410.917 29.6163C413.691 30.9618 418.385 31.9228 421.372 31.9228C424.785 31.9228 427.559 31.3462 427.559 28.8475C427.559 27.3098 425.852 26.9254 422.438 26.3488C416.464 25.3877 413.051 24.0423 413.051 20.5825C413.051 14.624 419.878 11.3564 426.919 11.3564C430.759 11.3564 434.386 11.9331 437.16 13.2785L435.026 18.4682C431.826 17.1227 429.266 16.5461 426.279 16.5461C423.292 16.5461 420.731 17.1227 420.731 19.4292C420.731 20.5825 422.012 20.9669 425.639 21.5435C431.826 22.5046 435.453 24.2345 435.453 27.6942C435.453 33.8449 428.412 37.1125 421.158 37.1125C416.464 37.1125 412.197 36.3437 409.21 34.806Z" fill="url(#paint10_linear_33_1790)" fill-opacity="0.2"/>
<path d="M73.8199 0.016256C55.4715 -0.175954 40.5369 1.36172 31.7894 3.28382C14.5079 7.12801 2.98682 13.4709 2.98682 20.9671C2.98682 27.1178 10.6675 32.6919 23.2553 36.7283C21.1218 34.2295 20.055 31.5386 20.055 28.8477C20.055 26.5412 20.9084 24.2346 22.4019 22.1203C23.8954 19.6216 26.6689 17.3151 30.5093 15.2008C39.2567 10.2034 73.8199 0.016256 73.8199 0.016256Z" fill="#558FFF"/>
<path d="M73.8199 0.016256C55.4715 -0.175954 40.5369 1.36172 31.7894 3.28382C14.5079 7.12801 2.98682 13.4709 2.98682 20.9671C2.98682 27.1178 10.6675 32.6919 23.2553 36.7283C21.1218 34.2295 20.055 31.5386 20.055 28.8477C20.055 26.5412 20.9084 24.2346 22.4019 22.1203C23.8954 19.6216 26.6689 17.3151 30.5093 15.2008C39.2567 10.2034 73.8199 0.016256 73.8199 0.016256Z" fill="url(#paint11_linear_33_1790)" fill-opacity="0.2"/>
<path d="M0 48.4531C18.3483 48.6453 33.4963 47.2998 42.2438 45.1855C59.5254 41.3414 71.0464 34.9984 71.0464 27.5023C71.0464 21.3516 63.3657 15.7775 50.7779 11.7411C52.9114 14.2398 53.9782 16.9307 53.9782 19.6217C53.9782 21.9282 53.1248 24.2347 51.6313 26.349C50.1379 28.8477 47.3643 31.1542 43.5239 33.2686C34.7765 38.266 0 48.4531 0 48.4531Z" fill="#558FFF"/>
<path d="M0 48.4531C18.3483 48.6453 33.4963 47.2998 42.2438 45.1855C59.5254 41.3414 71.0464 34.9984 71.0464 27.5023C71.0464 21.3516 63.3657 15.7775 50.7779 11.7411C52.9114 14.2398 53.9782 16.9307 53.9782 19.6217C53.9782 21.9282 53.1248 24.2347 51.6313 26.349C50.1379 28.8477 47.3643 31.1542 43.5239 33.2686C34.7765 38.266 0 48.4531 0 48.4531Z" fill="url(#paint12_linear_33_1790)" fill-opacity="0.2"/>
<defs>
<linearGradient id="paint0_linear_33_1790" x1="127.786" y1="12.0796" x2="97.7767" y2="31.3723" gradientUnits="userSpaceOnUse">
<stop stop-color="#FF0000"/>
<stop offset="0.515" stop-color="#BB004F"/>
<stop offset="0.67" stop-color="#2E079C"/>
<stop offset="1"/>
</linearGradient>
<linearGradient id="paint1_linear_33_1790" x1="160.835" y1="12.2678" x2="130.417" y2="32.9047" gradientUnits="userSpaceOnUse">
<stop stop-color="#FF0000"/>
<stop offset="0.515" stop-color="#BB004F"/>
<stop offset="0.67" stop-color="#2E079C"/>
<stop offset="1"/>
</linearGradient>
<linearGradient id="paint2_linear_33_1790" x1="190.725" y1="12.2597" x2="161.123" y2="31.7331" gradientUnits="userSpaceOnUse">
<stop stop-color="#FF0000"/>
<stop offset="0.515" stop-color="#BB004F"/>
<stop offset="0.67" stop-color="#2E079C"/>
<stop offset="1"/>
</linearGradient>
<linearGradient id="paint3_linear_33_1790" x1="221.857" y1="12.26" x2="191.814" y2="32.8072" gradientUnits="userSpaceOnUse">
<stop stop-color="#FF0000"/>
<stop offset="0.515" stop-color="#BB004F"/>
<stop offset="0.67" stop-color="#2E079C"/>
<stop offset="1"/>
</linearGradient>
<linearGradient id="paint4_linear_33_1790" x1="251.313" y1="12.26" x2="221.619" y2="31.9489" gradientUnits="userSpaceOnUse">
<stop stop-color="#FF0000"/>
<stop offset="0.515" stop-color="#BB004F"/>
<stop offset="0.67" stop-color="#2E079C"/>
<stop offset="1"/>
</linearGradient>
<linearGradient id="paint5_linear_33_1790" x1="280.955" y1="11.8957" x2="250.195" y2="32.1489" gradientUnits="userSpaceOnUse">
<stop stop-color="#FF0000"/>
<stop offset="0.515" stop-color="#BB004F"/>
<stop offset="0.67" stop-color="#2E079C"/>
<stop offset="1"/>
</linearGradient>
<linearGradient id="paint6_linear_33_1790" x1="312.091" y1="12.26" x2="281.731" y2="33.6584" gradientUnits="userSpaceOnUse">
<stop stop-color="#FF0000"/>
<stop offset="0.515" stop-color="#BB004F"/>
<stop offset="0.67" stop-color="#2E079C"/>
<stop offset="1"/>
</linearGradient>
<linearGradient id="paint7_linear_33_1790" x1="346.833" y1="12.0879" x2="314.955" y2="35.3195" gradientUnits="userSpaceOnUse">
<stop stop-color="#FF0000"/>
<stop offset="0.515" stop-color="#BB004F"/>
<stop offset="0.67" stop-color="#2E079C"/>
<stop offset="1"/>
</linearGradient>
<linearGradient id="paint8_linear_33_1790" x1="379.724" y1="12.26" x2="349.364" y2="33.6584" gradientUnits="userSpaceOnUse">
<stop stop-color="#FF0000"/>
<stop offset="0.515" stop-color="#BB004F"/>
<stop offset="0.67" stop-color="#2E079C"/>
<stop offset="1"/>
</linearGradient>
<linearGradient id="paint9_linear_33_1790" x1="410.698" y1="12.26" x2="381.286" y2="31.3012" gradientUnits="userSpaceOnUse">
<stop stop-color="#FF0000"/>
<stop offset="0.515" stop-color="#BB004F"/>
<stop offset="0.67" stop-color="#2E079C"/>
<stop offset="1"/>
</linearGradient>
<linearGradient id="paint10_linear_33_1790" x1="436.703" y1="11.8957" x2="405.942" y2="32.1489" gradientUnits="userSpaceOnUse">
<stop stop-color="#FF0000"/>
<stop offset="0.515" stop-color="#BB004F"/>
<stop offset="0.67" stop-color="#2E079C"/>
<stop offset="1"/>
</linearGradient>
<linearGradient id="paint11_linear_33_1790" x1="72.662" y1="0.76894" x2="25.4946" y2="55.9629" gradientUnits="userSpaceOnUse">
<stop stop-color="#FF0000"/>
<stop offset="0.515" stop-color="#BB004F"/>
<stop offset="0.67" stop-color="#2E079C"/>
<stop offset="1"/>
</linearGradient>
<linearGradient id="paint12_linear_33_1790" x1="69.8851" y1="12.5101" x2="22.7371" y2="67.8445" gradientUnits="userSpaceOnUse">
<stop stop-color="#FF0000"/>
<stop offset="0.515" stop-color="#BB004F"/>
<stop offset="0.67" stop-color="#2E079C"/>
<stop offset="1"/>
</linearGradient>
</defs>
</svg>
