<svg width="151" height="151" viewBox="0 0 151 151" fill="none" xmlns="http://www.w3.org/2000/svg">
<rect x="0.5" y="0.125" width="150" height="150" rx="7.8" fill="#558FFF"/>
<rect x="0.5" y="0.125" width="150" height="150" rx="7.8" fill="url(#paint0_linear_33_1877)" fill-opacity="0.2"/>
<g clip-path="url(#clip0_33_1877)">
<path d="M73.2123 37.1592C57.3522 37.1592 47.4434 45.0892 43.4809 60.9443C49.4272 53.0143 56.3628 50.0411 64.2929 52.0249C68.815 53.1542 72.048 56.4371 75.6258 60.0698C81.4621 65.9911 88.2029 72.8368 102.944 72.8368C118.799 72.8368 128.708 64.9068 132.675 49.0517C126.729 56.9818 119.788 59.9549 111.863 57.9711C107.336 56.8419 104.108 53.5589 100.52 49.9262C94.6988 44.0049 87.9531 37.1592 73.2123 37.1592ZM43.4809 72.8368C27.6208 72.8368 17.712 80.7669 13.7495 96.622C19.6958 88.6919 26.6314 85.7188 34.5615 87.7025C39.0837 88.8318 42.3166 92.1148 45.8994 95.7475C51.7257 101.669 58.4715 108.515 73.2123 108.515C89.0674 108.515 98.9762 100.584 102.944 84.7294C96.9974 92.6594 90.0567 95.6326 82.1317 93.6488C77.6045 92.5195 74.3766 89.2366 70.7888 85.6039C64.9674 79.6826 58.2217 72.8368 43.4809 72.8368Z" fill="black"/>
</g>
<defs>
<linearGradient id="paint0_linear_33_1877" x1="148.048" y1="3.26539" x2="-24.9268" y2="108.219" gradientUnits="userSpaceOnUse">
<stop stop-color="#FF0000"/>
<stop offset="0.515" stop-color="#BB004F"/>
<stop offset="0.67" stop-color="#2E079C"/>
<stop offset="1"/>
</linearGradient>
<clipPath id="clip0_33_1877">
<rect width="119.925" height="119.925" fill="white" transform="translate(13.25 12.875)"/>
</clipPath>
</defs>
</svg>
