<svg width="188" height="75" viewBox="0 0 188 75" fill="none" xmlns="http://www.w3.org/2000/svg">
<g clip-path="url(#clip0_33_1777)">
<path d="M82.7828 17.9853C75.8895 11.4053 64.6095 9.46265 55.8362 13.0346C39.8562 19.2386 35.5948 39.6053 48.0655 51.4493C57.4028 60.4107 73.4455 60.348 82.8455 51.4493C92.4335 42.676 92.4335 26.7587 82.8455 17.9853H82.7828ZM74.8242 39.0413C72.9442 44.4933 66.4268 47.0627 61.2882 44.744C55.7108 42.3 54.0188 35.7827 55.8988 30.3307C58.4055 23.312 67.5548 21.5573 72.6935 26.884C75.7015 29.892 76.2655 35.0933 74.8242 39.0413Z" fill="#558FFF"/>
<path d="M82.7828 17.9853C75.8895 11.4053 64.6095 9.46265 55.8362 13.0346C39.8562 19.2386 35.5948 39.6053 48.0655 51.4493C57.4028 60.4107 73.4455 60.348 82.8455 51.4493C92.4335 42.676 92.4335 26.7587 82.8455 17.9853H82.7828ZM74.8242 39.0413C72.9442 44.4933 66.4268 47.0627 61.2882 44.744C55.7108 42.3 54.0188 35.7827 55.8988 30.3307C58.4055 23.312 67.5548 21.5573 72.6935 26.884C75.7015 29.892 76.2655 35.0933 74.8242 39.0413Z" fill="url(#paint0_linear_33_1777)" fill-opacity="0.2"/>
<path d="M135.36 17.7346C128.153 10.716 115.683 9.58798 106.784 13.536C100.893 16.168 96.82 20.6173 95.128 27.0093C94.376 29.7666 94 32.9626 94 36.66V74.3226H107.912V53.3293C108.977 54.3946 110.544 55.3973 112.675 56.4C117.061 58.5306 124.393 58.4053 129.093 56.2746C143.82 50.3213 146.64 28.2626 135.36 17.672V17.7346ZM125.02 42.3626C120.069 47.6266 111.045 45.7466 108.539 38.8533C106.032 31.6466 109.792 24.1266 117.813 24.1893C123.704 24.1266 127.965 28.6386 127.84 34.6546C127.84 37.788 126.9 40.3573 125.02 42.3626Z" fill="#558FFF"/>
<path d="M135.36 17.7346C128.153 10.716 115.683 9.58798 106.784 13.536C100.893 16.168 96.82 20.6173 95.128 27.0093C94.376 29.7666 94 32.9626 94 36.66V74.3226H107.912V53.3293C108.977 54.3946 110.544 55.3973 112.675 56.4C117.061 58.5306 124.393 58.4053 129.093 56.2746C143.82 50.3213 146.64 28.2626 135.36 17.672V17.7346ZM125.02 42.3626C120.069 47.6266 111.045 45.7466 108.539 38.8533C106.032 31.6466 109.792 24.1266 117.813 24.1893C123.704 24.1266 127.965 28.6386 127.84 34.6546C127.84 37.788 126.9 40.3573 125.02 42.3626Z" fill="url(#paint1_linear_33_1777)" fill-opacity="0.2"/>
<path d="M186.746 36.7226C182.798 29.0146 172.27 29.2026 164.813 27.9493C162.933 27.636 161.554 27.3226 160.614 26.884C158.609 26.0693 158.86 23.3746 160.74 22.372C161.742 21.7453 163.56 21.432 166.192 21.432C170.14 21.432 173.837 22.0586 177.096 23.124C178.85 23.688 180.605 24.5653 181.67 25.4426C183.676 24.3146 185.869 21.996 185.744 19.364C185.806 12.1573 171.769 11.2173 165.816 11.28C155.601 11.1546 145.136 15.1653 145.136 26.4453C145.073 38.916 157.293 40.1693 166.944 41.172C169.074 41.4853 170.704 41.7986 171.706 42.2373C172.709 42.676 173.21 43.4906 173.21 44.6186C173.21 47.5013 168.949 47.5013 166.004 47.564C162.244 47.564 158.296 46.9373 154.974 45.9346C153.47 45.496 152.217 45.0573 151.152 44.556C150.086 44.0546 148.081 42.9893 147.58 42.676L143.318 52.1386C147.517 55.0213 152.28 56.5253 157.857 57.4653C165.377 58.7813 176.908 58.5306 182.36 54.0813C186.057 51.3866 187.937 47.564 187.937 42.676C187.937 37.788 187.498 38.352 186.684 36.7226H186.746Z" fill="#558FFF"/>
<path d="M186.746 36.7226C182.798 29.0146 172.27 29.2026 164.813 27.9493C162.933 27.636 161.554 27.3226 160.614 26.884C158.609 26.0693 158.86 23.3746 160.74 22.372C161.742 21.7453 163.56 21.432 166.192 21.432C170.14 21.432 173.837 22.0586 177.096 23.124C178.85 23.688 180.605 24.5653 181.67 25.4426C183.676 24.3146 185.869 21.996 185.744 19.364C185.806 12.1573 171.769 11.2173 165.816 11.28C155.601 11.1546 145.136 15.1653 145.136 26.4453C145.073 38.916 157.293 40.1693 166.944 41.172C169.074 41.4853 170.704 41.7986 171.706 42.2373C172.709 42.676 173.21 43.4906 173.21 44.6186C173.21 47.5013 168.949 47.5013 166.004 47.564C162.244 47.564 158.296 46.9373 154.974 45.9346C153.47 45.496 152.217 45.0573 151.152 44.556C150.086 44.0546 148.081 42.9893 147.58 42.676L143.318 52.1386C147.517 55.0213 152.28 56.5253 157.857 57.4653C165.377 58.7813 176.908 58.5306 182.36 54.0813C186.057 51.3866 187.937 47.564 187.937 42.676C187.937 37.788 187.498 38.352 186.684 36.7226H186.746Z" fill="url(#paint2_linear_33_1777)" fill-opacity="0.2"/>
<path d="M19.176 57.152H33.4013V13.2853H42.488C45.9347 13.2853 49.5693 12.8467 51.5747 9.588C53.3293 6.768 53.2667 3.13333 52.5773 0H0V13.2853H19.176V57.2147V57.152Z" fill="#558FFF"/>
<path d="M19.176 57.152H33.4013V13.2853H42.488C45.9347 13.2853 49.5693 12.8467 51.5747 9.588C53.3293 6.768 53.2667 3.13333 52.5773 0H0V13.2853H19.176V57.2147V57.152Z" fill="url(#paint3_linear_33_1777)" fill-opacity="0.2"/>
</g>
<defs>
<linearGradient id="paint0_linear_33_1777" x1="89.2318" y1="12.2498" x2="33.9921" y2="47.4452" gradientUnits="userSpaceOnUse">
<stop stop-color="#FF0000"/>
<stop offset="0.515" stop-color="#BB004F"/>
<stop offset="0.67" stop-color="#2E079C"/>
<stop offset="1"/>
</linearGradient>
<linearGradient id="paint1_linear_33_1777" x1="141.486" y1="12.5987" x2="78.8444" y2="41.7032" gradientUnits="userSpaceOnUse">
<stop stop-color="#FF0000"/>
<stop offset="0.515" stop-color="#BB004F"/>
<stop offset="0.67" stop-color="#2E079C"/>
<stop offset="1"/>
</linearGradient>
<linearGradient id="paint2_linear_33_1777" x1="187.208" y1="12.2587" x2="134.415" y2="42.7429" gradientUnits="userSpaceOnUse">
<stop stop-color="#FF0000"/>
<stop offset="0.515" stop-color="#BB004F"/>
<stop offset="0.67" stop-color="#2E079C"/>
<stop offset="1"/>
</linearGradient>
<linearGradient id="paint3_linear_33_1777" x1="52.1607" y1="1.19784" x2="-11.4006" y2="36.9417" gradientUnits="userSpaceOnUse">
<stop stop-color="#FF0000"/>
<stop offset="0.515" stop-color="#BB004F"/>
<stop offset="0.67" stop-color="#2E079C"/>
<stop offset="1"/>
</linearGradient>
<clipPath id="clip0_33_1777">
<rect width="188" height="74.3853" fill="white"/>
</clipPath>
</defs>
</svg>
