<svg width="151" height="151" viewBox="0 0 151 151" fill="none" xmlns="http://www.w3.org/2000/svg">
<path d="M11.9688 0.875H138.531C145.004 0.875 150.25 6.12148 150.25 12.5938V139.156C150.25 145.629 145.004 150.875 138.531 150.875H11.9688C5.49648 150.875 0.25 145.629 0.25 139.156V12.5938C0.25 6.12148 5.49648 0.875 11.9688 0.875Z" fill="#558FFF"/>
<path d="M11.9688 0.875H138.531C145.004 0.875 150.25 6.12148 150.25 12.5938V139.156C150.25 145.629 145.004 150.875 138.531 150.875H11.9688C5.49648 150.875 0.25 145.629 0.25 139.156V12.5938C0.25 6.12148 5.49648 0.875 11.9688 0.875Z" fill="url(#paint0_linear_33_1883)" fill-opacity="0.2"/>
<path d="M88.4441 118.341V134.524C91.0762 135.873 94.1893 136.885 97.7828 137.559C101.376 138.233 105.164 138.57 109.146 138.57C113.026 138.57 116.713 138.199 120.205 137.458C123.697 136.716 126.76 135.494 129.391 133.791C132.023 132.089 134.107 129.863 135.643 127.115C137.178 124.368 137.945 120.971 137.945 116.925C137.945 113.992 137.506 111.421 136.629 109.212C135.762 107.019 134.472 105.017 132.833 103.321C131.18 101.601 129.197 100.059 126.886 98.6932C124.575 97.3279 121.968 96.0383 119.066 94.8248C116.94 93.9477 115.034 93.0969 113.346 92.2707C111.66 91.4445 110.225 90.602 109.045 89.7418C107.863 88.8822 106.952 87.9717 106.311 87.0107C105.67 86.0498 105.35 84.9629 105.35 83.7488C105.35 82.6361 105.636 81.6336 106.21 80.74C106.783 79.8465 107.594 79.0795 108.64 78.4391C109.686 77.7981 110.968 77.3012 112.486 76.9467C114.004 76.5928 115.692 76.4158 117.548 76.4158C118.898 76.4158 120.323 76.5172 121.824 76.7193C123.326 76.9215 124.836 77.2332 126.355 77.6551C127.869 78.0748 129.349 78.6073 130.783 79.2482C132.174 79.8645 133.504 80.6094 134.757 81.473V66.3518C132.293 65.4078 129.602 64.7082 126.684 64.2529C123.765 63.7977 120.416 63.5703 116.637 63.5703C112.79 63.5703 109.146 63.9834 105.704 64.8096C102.262 65.6352 99.2336 66.9248 96.6186 68.6779C94.0035 70.4316 91.9369 72.6652 90.4182 75.3793C88.9 78.0934 88.1406 81.3383 88.1406 85.1146C88.1406 89.9357 89.5322 94.049 92.3166 97.4545C95.1004 100.859 99.3262 103.742 104.995 106.102C107.088 106.955 109.163 107.848 111.221 108.783C113.144 109.66 114.806 110.57 116.206 111.513C117.607 112.457 118.712 113.486 119.522 114.598C120.331 115.711 120.736 116.976 120.736 118.392C120.743 119.411 120.481 120.414 119.977 121.3C119.471 122.193 118.703 122.969 117.674 123.626C116.645 124.283 115.363 124.797 113.828 125.168C112.292 125.539 110.495 125.725 108.437 125.725C104.928 125.725 101.453 125.11 98.0107 123.879C94.5684 122.648 91.3797 120.802 88.4441 118.341ZM61.4699 78.0676H82.2812V64.7422H24.2734V78.0676H44.9834V137.398H61.4699V78.0676Z" fill="black"/>
<defs>
<linearGradient id="paint0_linear_33_1883" x1="147.798" y1="4.01539" x2="-25.1768" y2="108.969" gradientUnits="userSpaceOnUse">
<stop stop-color="#FF0000"/>
<stop offset="0.515" stop-color="#BB004F"/>
<stop offset="0.67" stop-color="#2E079C"/>
<stop offset="1"/>
</linearGradient>
</defs>
</svg>
