<svg width="100" height="100" viewBox="0 0 100 100" fill="none" xmlns="http://www.w3.org/2000/svg">
<path d="M14.2857 0C6.40625 0 0 6.40625 0 14.2857V85.7143C0 93.5938 6.40625 100 14.2857 100H85.7143C93.5938 100 100 93.5938 100 85.7143V14.2857C100 6.40625 93.5938 0 85.7143 0H14.2857ZM80.6027 18.75L57.433 45.2232L84.6875 81.25H63.3482L46.6518 59.3973L27.5223 81.25H16.9196L41.6964 52.9241L15.558 18.75H37.433L52.5446 38.7277L70 18.75H80.6027ZM72.1652 74.9107L34.2411 24.7545H27.9241L66.2723 74.9107H72.1429H72.1652Z" fill="#558FFF"/>
<path d="M14.2857 0C6.40625 0 0 6.40625 0 14.2857V85.7143C0 93.5938 6.40625 100 14.2857 100H85.7143C93.5938 100 100 93.5938 100 85.7143V14.2857C100 6.40625 93.5938 0 85.7143 0H14.2857ZM80.6027 18.75L57.433 45.2232L84.6875 81.25H63.3482L46.6518 59.3973L27.5223 81.25H16.9196L41.6964 52.9241L15.558 18.75H37.433L52.5446 38.7277L70 18.75H80.6027ZM72.1652 74.9107L34.2411 24.7545H27.9241L66.2723 74.9107H72.1429H72.1652Z" fill="url(#paint0_linear_33_1853)" fill-opacity="0.2"/>
<defs>
<linearGradient id="paint0_linear_33_1853" x1="98.3654" y1="2.09359" x2="-16.9512" y2="72.0626" gradientUnits="userSpaceOnUse">
<stop stop-color="#FF0000"/>
<stop offset="0.515" stop-color="#BB004F"/>
<stop offset="0.67" stop-color="#2E079C"/>
<stop offset="1"/>
</linearGradient>
</defs>
</svg>
